<?xml version="1.0" encoding="UTF-8"?>
<svg version="1.1" xmlns="http://www.w3.org/2000/svg" width="528" height="538">
<path d="M0 0 C174.24 0 348.48 0 528 0 C528 177.54 528 355.08 528 538 C353.76 538 179.52 538 0 538 C0 360.46 0 182.92 0 0 Z " fill="#1E1E1E" transform="translate(0,0)"/>
<path d="M0 0 C32.34056085 21.64873609 44.59591124 64.57466346 54.859375 99.9140625 C57.92463178 99.9140625 60.34204201 99.41163931 63.3203125 98.70703125 C64.42173584 98.45139404 65.52315918 98.19575684 66.65795898 97.93237305 C67.83817627 97.65820557 69.01839355 97.38403809 70.234375 97.1015625 C82.05580219 94.41498191 93.81905959 92.30642332 105.859375 90.9140625 C106.96925781 90.78257813 108.07914062 90.65109375 109.22265625 90.515625 C122.86959674 89.14908427 136.36154176 89.53298405 149.859375 91.9140625 C150.86226563 92.08550781 151.86515625 92.25695312 152.8984375 92.43359375 C164.73065945 94.90528432 178.76119031 100.71248544 185.859375 110.9140625 C193.79671366 124.31178369 196.37596009 137.71305838 192.80078125 153.05078125 C188.62564908 168.54326918 181.66487193 182.31118089 172.13378906 195.19091797 C170.74459104 197.06926273 169.37674554 198.96231218 168.0078125 200.85546875 C160.00703451 211.81872516 151.26729486 221.63425655 141.5859375 231.15625 C139.17018944 233.615722 137.01213448 236.22311315 134.859375 238.9140625 C135.42785156 239.4709375 135.99632812 240.0278125 136.58203125 240.6015625 C140.44600191 244.42037824 144.2713455 248.26450334 147.921875 252.2890625 C148.49035156 252.91554688 149.05882812 253.54203125 149.64453125 254.1875 C150.859375 255.9140625 150.859375 255.9140625 150.859375 258.9140625 C150.17230469 259.22859375 149.48523438 259.543125 148.77734375 259.8671875 C147.42576172 260.50914062 147.42576172 260.50914062 146.046875 261.1640625 C144.70689453 261.79054688 144.70689453 261.79054688 143.33984375 262.4296875 C140.73205735 263.99025259 139.6462138 265.51795775 137.859375 267.9140625 C134.859375 267.9140625 134.859375 267.9140625 133.28125 266.41015625 C132.72953125 265.73082031 132.1778125 265.05148437 131.609375 264.3515625 C128.22902486 260.30811596 124.63539835 256.58679037 120.859375 252.9140625 C117.13948993 254.52337448 114.37228073 256.85980583 111.296875 259.4765625 C110.22424801 260.38185375 109.15132505 261.28679442 108.078125 262.19140625 C107.26988281 262.87565674 107.26988281 262.87565674 106.4453125 263.57373047 C100.60790967 268.50712664 94.72272988 273.34607773 88.546875 277.8515625 C87.65226562 278.5321875 86.75765625 279.2128125 85.8359375 279.9140625 C82.859375 281.9140625 82.859375 281.9140625 79.1953125 283.4765625 C74.76557606 285.5305105 71.40145782 287.63977199 68.859375 291.9140625 C66.37666587 300.49361611 65.97711603 309.56269803 65.3618927 318.4360199 C64.86236108 325.53159358 63.86299699 332.51697796 62.734375 339.5390625 C62.57501465 340.59158203 62.4156543 341.64410156 62.25146484 342.72851562 C61.44310854 347.92862821 60.44792424 352.89537152 58.859375 357.9140625 C59.68115234 358.07841797 59.68115234 358.07841797 60.51953125 358.24609375 C61.31230469 358.40464844 62.10507812 358.56320312 62.921875 358.7265625 C63.85128906 358.91089844 64.78070313 359.09523438 65.73828125 359.28515625 C67.81105217 359.70282348 69.88145405 360.13243337 71.94921875 360.57421875 C118.81787591 371.03770551 118.81787591 371.03770551 164.3515625 360.4140625 C169.94035661 355.99215947 173.15738898 350.45924473 174.24609375 343.41015625 C174.39748933 341.86393579 174.5147707 340.31370252 174.5859375 338.76171875 C174.859375 336.9140625 174.859375 336.9140625 176.859375 334.9140625 C178.27804075 334.38171445 179.71951718 333.90860844 181.171875 333.4765625 C184.75377287 332.34786156 187.67944352 330.93765526 190.859375 328.9140625 C191.519375 328.9140625 192.179375 328.9140625 192.859375 328.9140625 C196.42616853 336.04764956 194.21206157 348.17507898 191.859375 355.3515625 C187.31187593 366.44085492 179.14726363 375.76171251 168.04199219 380.7265625 C140.93054969 391.37318718 111.79008145 387.92848363 83.796875 383.5390625 C82.52545654 383.34231934 81.25403809 383.14557617 79.9440918 382.94287109 C71.34787859 381.53174489 63.17157843 379.47818491 54.859375 376.9140625 C54.67906738 377.58920898 54.49875977 378.26435547 54.31298828 378.95996094 C47.88068973 402.82532106 40.73535592 427.23569604 26.859375 447.9140625 C25.94913 449.30983796 25.03897731 450.70567362 24.12890625 452.1015625 C15.49878401 465.16627664 3.77312944 479.67227238 -12.140625 483.9140625 C-16.08648264 484.35573304 -19.98585732 484.37858414 -23.953125 484.3515625 C-24.98244141 484.37154297 -26.01175781 484.39152344 -27.07226562 484.41210938 C-39.27255685 484.40439256 -47.23674089 479.93435506 -56.140625 471.9140625 C-57.01589844 471.13289063 -57.89117187 470.35171875 -58.79296875 469.546875 C-82.28935488 447.36520775 -96.09445714 413.1910425 -102.484375 381.984375 C-102.98450522 379.0176497 -102.98450522 379.0176497 -104.140625 376.9140625 C-105.60435547 377.3471875 -105.60435547 377.3471875 -107.09765625 377.7890625 C-108.38275115 378.16427269 -109.66791081 378.53926112 -110.953125 378.9140625 C-112.21769531 379.2853125 -113.48226562 379.6565625 -114.78515625 380.0390625 C-118.140625 380.9140625 -118.140625 380.9140625 -121.140625 380.9140625 C-121.27339844 379.96144531 -121.40617187 379.00882812 -121.54296875 378.02734375 C-121.80787109 376.14595703 -121.80787109 376.14595703 -122.078125 374.2265625 C-122.25214844 372.98519531 -122.42617187 371.74382812 -122.60546875 370.46484375 C-123.03704016 367.60135171 -123.5727057 364.75365898 -124.140625 361.9140625 C-116.220625 359.9340625 -116.220625 359.9340625 -108.140625 357.9140625 C-108.58277344 355.77550781 -109.02492187 353.63695312 -109.48046875 351.43359375 C-111.00651442 343.88907609 -112.25084869 336.31735736 -113.38644409 328.70535278 C-113.71166112 326.54485494 -114.04956775 324.3865912 -114.38891602 322.22827148 C-115.32169141 316.20096148 -116.23421856 310.23303323 -116.4140625 304.125 C-116.38901705 296.78321299 -116.38901705 296.78321299 -119.44238281 290.33789062 C-122.7679656 287.30437901 -126.49077068 285.07104468 -130.41650391 282.90185547 C-132.7471044 281.56659497 -134.80190121 279.97279137 -136.890625 278.2890625 C-137.58800781 277.73863281 -138.28539062 277.18820312 -139.00390625 276.62109375 C-139.70902344 276.05777344 -140.41414063 275.49445313 -141.140625 274.9140625 C-142.33751953 273.96080078 -142.33751953 273.96080078 -143.55859375 272.98828125 C-145.23875735 271.64675527 -146.9171447 270.30300166 -148.59375 268.95703125 C-150.30943188 267.58080177 -152.02825308 266.2084779 -153.75 264.83984375 C-158.63249631 260.95603987 -163.43268373 257.00792448 -168.140625 252.9140625 C-176.91778311 256.53540746 -184.12641381 266.85348027 -189.88671875 274.09765625 C-192.28398121 277.09319565 -194.77163197 279.99876145 -197.265625 282.9140625 C-201.76402314 288.30378411 -205.53743928 293.89985621 -209.140625 299.9140625 C-209.65238281 300.72359375 -210.16414063 301.533125 -210.69140625 302.3671875 C-212.24124117 304.85012716 -213.70603606 307.362841 -215.140625 309.9140625 C-215.68074219 310.86539062 -216.22085938 311.81671875 -216.77734375 312.796875 C-222.43174564 323.7223295 -224.9848401 337.40844682 -222.1015625 349.578125 C-219.6856065 355.45105869 -214.92483698 360.31116711 -209.140625 362.9140625 C-206.830625 363.5740625 -204.520625 364.2340625 -202.140625 364.9140625 C-202.470625 371.1840625 -202.800625 377.4540625 -203.140625 383.9140625 C-210.90612902 382.83278979 -216.63008784 381.28159638 -223.140625 376.9140625 C-223.89214844 376.42035156 -224.64367187 375.92664063 -225.41796875 375.41796875 C-233.31789117 369.786742 -239.4557147 362.31267822 -242.140625 352.9140625 C-242.54453138 348.52422842 -242.46508017 344.13323729 -242.453125 339.7265625 C-242.46923828 338.55802734 -242.48535156 337.38949219 -242.50195312 336.18554688 C-242.50793536 325.45940838 -240.38538665 316.44411731 -235.390625 306.9765625 C-235.04209473 306.29907959 -234.69356445 305.62159668 -234.33447266 304.92358398 C-227.20307139 291.19927501 -219.13880809 278.71003756 -209.140625 266.9140625 C-208.40682617 266.04273682 -208.40682617 266.04273682 -207.65820312 265.15380859 C-200.20277697 256.32317742 -192.44622509 247.95029178 -184.140625 239.9140625 C-185.50214772 236.84571244 -187.02136 234.82177577 -189.44921875 232.515625 C-190.10857422 231.87834473 -190.76792969 231.24106445 -191.44726562 230.58447266 C-192.50204102 229.57199463 -192.50204102 229.57199463 -193.578125 228.5390625 C-199.85249203 222.39810301 -205.48505623 216.08551074 -210.7578125 209.07421875 C-212.85172315 206.29721266 -215.02924095 203.63829802 -217.265625 200.9765625 C-222.27008872 194.72608944 -226.19530579 187.86024158 -230.140625 180.9140625 C-230.50752441 180.27742676 -230.87442383 179.64079102 -231.25244141 178.98486328 C-232.33575553 177.09498002 -233.39775709 175.19467118 -234.453125 173.2890625 C-235.06800781 172.18304688 -235.68289062 171.07703125 -236.31640625 169.9375 C-241.25253139 159.73527314 -242.78733092 149.91151614 -242.640625 138.6640625 C-242.65609375 137.46265625 -242.6715625 136.26125 -242.6875 135.0234375 C-242.63625966 123.34064029 -239.0369784 115.45150598 -231.140625 106.9140625 C-215.43780856 92.13144892 -192.13448533 89.42152914 -171.4140625 89.6953125 C-148.6118092 90.39236266 -126.21369893 95.53875434 -104.140625 100.9140625 C-103.95886719 100.14320312 -103.77710938 99.37234375 -103.58984375 98.578125 C-103.33847656 97.57523437 -103.08710938 96.57234375 -102.828125 95.5390625 C-102.58449219 94.54132813 -102.34085938 93.54359375 -102.08984375 92.515625 C-101.140625 89.9140625 -101.140625 89.9140625 -98.140625 87.9140625 C-97.17125 88.5328125 -96.201875 89.1515625 -95.203125 89.7890625 C-91.04535458 92.19170852 -86.83670464 93.10476079 -82.140625 93.9140625 C-82.65467669 98.88322886 -83.37447382 103.20432601 -85.140625 107.9140625 C-84.4194751 108.04224365 -83.6983252 108.1704248 -82.95532227 108.30249023 C-80.20881595 108.89924609 -77.73346795 109.70940118 -75.10546875 110.69921875 C-74.1407666 111.06112305 -73.17606445 111.42302734 -72.18212891 111.79589844 C-70.64564697 112.38032715 -70.64564697 112.38032715 -69.078125 112.9765625 C-68.01770996 113.3777832 -66.95729492 113.77900391 -65.86474609 114.19238281 C-36.22776494 125.45186661 -36.22776494 125.45186661 -28.11328125 130.19921875 C-24.45650402 131.52434792 -21.70665704 130.16726698 -18.28515625 128.63671875 C-17.18558594 128.08886719 -16.08601562 127.54101562 -14.953125 126.9765625 C-3.67211705 121.52390609 8.14121087 117.31746621 19.859375 112.9140625 C21.60288054 112.25655274 23.34637167 111.59900474 25.08984375 110.94140625 C28.67678652 109.59108635 32.26671708 108.24909852 35.859375 106.9140625 C32.24049262 93.12507336 28.39713061 79.77313449 22.63085938 66.72509766 C21.46056981 63.97787993 20.48693508 61.16353753 19.484375 58.3515625 C12.93582643 41.26561005 2.17620488 22.27559562 -15.078125 14.5390625 C-21.68344349 12.13529216 -27.14968263 11.8683103 -33.703125 14.5390625 C-36.93608829 16.10194353 -39.59780317 17.97868152 -42.390625 20.2265625 C-45.81338466 22.89847963 -45.81338466 22.89847963 -48.765625 23.0390625 C-51.78132566 21.61057271 -54.40006626 19.81567469 -57.140625 17.9140625 C-59.12570448 16.88476203 -61.12176751 15.87542321 -63.140625 14.9140625 C-58.92385972 5.42634061 -49.44160016 -0.30279072 -40.29296875 -4.34375 C-26.05919048 -9.70720268 -12.93835404 -7.41945161 0 0 Z " fill="#FEFEFE" transform="translate(291.140625,23.0859375)"/>
<path d="M0 0 C2.8939114 1.04580401 5.63778192 2.17372331 8.4375 3.4375 C9.74170898 4.024104 9.74170898 4.024104 11.07226562 4.62255859 C22.46624721 9.92795581 33.11541387 16.55470268 43.83276367 23.08837891 C46.96866213 24.98108568 50.12915064 26.82417306 53.30078125 28.65625 C58.04240026 31.40977534 62.64984617 34.29878695 67.1875 37.375 C67.84041016 37.81199219 68.49332031 38.24898437 69.16601562 38.69921875 C73.84350198 41.84350198 73.84350198 41.84350198 75 43 C76.13577333 51.93141456 76.14791717 60.94924599 76.1328125 69.9375 C76.13376923 71.22003662 76.13472595 72.50257324 76.13571167 73.82397461 C76.13717138 76.51645131 76.1350905 79.20889445 76.13037109 81.90136719 C76.12467488 85.3131935 76.12796327 88.72494108 76.13394356 92.13676453 C76.13847272 95.44534894 76.13528059 98.75391337 76.1328125 102.0625 C76.13483673 103.26704834 76.13686096 104.47159668 76.13894653 105.71264648 C76.12311983 111.52838005 76.01611843 117.33924368 75.73388672 123.1484375 C75.6872287 124.18790527 75.64057068 125.22737305 75.59249878 126.29833984 C74.86767035 129.60339322 73.81635958 130.58710252 71.125 132.5625 C69.09547097 133.72969695 67.05136918 134.87162892 65 136 C63.53873007 136.92416371 62.08482941 137.86003737 60.63671875 138.8046875 C52.14310527 144.33746525 43.54705138 149.47743219 34.546875 154.13671875 C30.94631269 156.0051774 27.44381434 158.02419518 23.9375 160.0625 C21.6279753 161.3807338 19.31653294 162.69425938 17 164 C16.3920459 164.34546875 15.7840918 164.6909375 15.15771484 165.046875 C2.32602192 172.25063243 2.32602192 172.25063243 -2.95703125 170.91015625 C-7.89026572 168.71236728 -12.41380859 165.83178186 -17 163 C-18.65859735 162.06881238 -20.32523945 161.15179414 -22 160.25 C-22.886875 159.76917969 -23.77375 159.28835938 -24.6875 158.79296875 C-26.3271875 157.90544922 -26.3271875 157.90544922 -28 157 C-49.05733536 145.60002577 -49.05733536 145.60002577 -56.26171875 140.80859375 C-58.46966647 139.35027735 -60.69384223 137.96625769 -62.95703125 136.59765625 C-64.34670708 135.73233735 -65.73603163 134.86645403 -67.125 134 C-67.78991455 133.60868896 -68.4548291 133.21737793 -69.13989258 132.81420898 C-71.0078125 131.625 -71.0078125 131.625 -74 129 C-75.00867787 124.23350172 -75.12628257 119.56672704 -75.12939453 114.70703125 C-75.13114685 114.01499603 -75.13289917 113.32296082 -75.13470459 112.60995483 C-75.13907147 110.34411032 -75.13620344 108.07834518 -75.1328125 105.8125 C-75.13348702 104.22501613 -75.13445829 102.63753235 -75.13571167 101.05004883 C-75.13718165 97.73159802 -75.13505663 94.41317422 -75.13037109 91.09472656 C-75.12467424 86.85484161 -75.12795699 82.61501997 -75.13394356 78.37513733 C-75.13756808 75.09964527 -75.1364019 71.82416806 -75.13381577 68.54867554 C-75.13315173 66.98587028 -75.13395651 65.42306365 -75.13629532 63.86026001 C-75.13885299 61.67112691 -75.13493767 59.48209441 -75.12939453 57.29296875 C-75.12859894 56.0505542 -75.12780334 54.80813965 -75.12698364 53.52807617 C-74.99700893 49.91689701 -74.7434446 46.53884874 -74 43 C-71.69234748 40.87080594 -69.74851086 39.38004333 -67.125 37.75 C-66.41174561 37.28456787 -65.69849121 36.81913574 -64.96362305 36.33959961 C-57.32393717 31.4208751 -49.44298914 26.89841871 -41.53125 22.43554688 C-38.90698112 20.94724624 -36.29620202 19.43727989 -33.6875 17.921875 C-23.29457197 11.89955785 -12.81989433 6.21699 -2 1 C-1.34 0.67 -0.68 0.34 0 0 Z " fill="#1E1E1E" transform="translate(266,176)"/>
<path d="M0 0 C10.56675303 5.13076038 21.16121253 9.8439802 32.5 13.0234375 C37.79178256 14.65291933 42.91802396 16.77244916 48.0625 18.8125 C45.97360542 27.98547185 43.47963006 36.94870535 40.5 45.875 C40.06095337 47.19407349 40.06095337 47.19407349 39.61303711 48.53979492 C38.34783873 52.27268241 37.04625598 55.95537954 35.47265625 59.5703125 C34.17333762 62.55766557 33.11782391 65.54559782 32.0625 68.625 C25.52837046 85.68852503 14.00111757 103.42503076 -1.9375 112.8125 C-8.84812193 115.3383536 -19.3095253 115.11117177 -26.01953125 112.03515625 C-30.50294197 109.17709605 -34.22304424 105.59089788 -37.9375 101.8125 C-38.66839844 101.07773437 -39.39929688 100.34296875 -40.15234375 99.5859375 C-56.72080149 81.18985603 -73.9375 43.93472698 -73.9375 18.8125 C-56.77885833 11.95674643 -56.77885833 11.95674643 -49.375 9.875 C-40.00486836 7.12674394 -31.32424737 2.51539091 -22.62109375 -1.8515625 C-21.67363281 -2.31304687 -20.72617187 -2.77453125 -19.75 -3.25 C-18.55310547 -3.85521484 -18.55310547 -3.85521484 -17.33203125 -4.47265625 C-11.07096584 -6.34178344 -5.47671352 -2.72867081 0 0 Z " fill="#1E1E1E" transform="translate(279.9375,374.1875)"/>
<path d="M0 0 C5.26568821 4.7279947 8.60319009 9.29922551 9.37109375 16.4609375 C9.74817538 38.68657235 -1.46240916 58.779953 -15.61328125 75.37353516 C-16.99947642 76.9993859 -18.36104916 78.64328398 -19.71875 80.29296875 C-24.43786485 85.99219441 -29.32032874 91.53876567 -34.3125 97 C-34.79195068 97.52795166 -35.27140137 98.05590332 -35.76538086 98.59985352 C-38.95830375 102.05254337 -42.33351898 105.05381732 -46 108 C-47.60416667 106.6875 -49.20833333 105.375 -50.8125 104.0625 C-51.82054687 103.23878906 -52.82859375 102.41507812 -53.8671875 101.56640625 C-55.83637153 99.95575203 -57.79887718 98.33804086 -59.7578125 96.71484375 C-66.35446053 91.26251222 -73.12810226 86.09907099 -80 81 C-81.0724303 80.19248844 -82.14403832 79.38388374 -83.21484375 78.57421875 C-84.25769531 77.78660156 -85.30054688 76.99898438 -86.375 76.1875 C-87.31085938 75.47980469 -88.24671875 74.77210938 -89.2109375 74.04296875 C-91.97296223 71.93168323 -91.97296223 71.93168323 -95.09399414 70.27539062 C-98 68 -98 68 -98.96899414 65.0402832 C-99.07332764 63.88874756 -99.17766113 62.73721191 -99.28515625 61.55078125 C-99.42083008 60.24230225 -99.55650391 58.93382324 -99.69628906 57.58569336 C-99.7857782 56.54105423 -99.7857782 56.54105423 -99.8770752 55.47531128 C-100.19408975 51.77762552 -100.59902292 48.08908717 -100.98828125 44.3984375 C-101.06617889 43.63363571 -101.14407654 42.86883392 -101.22433472 42.08085632 C-102.1149136 33.4901429 -103.41754985 24.96892635 -104.75 16.4375 C-104.97550378 14.97894756 -105.20084976 13.52037071 -105.42602539 12.06176758 C-105.94537481 8.70700321 -106.47070045 5.35321068 -107 2 C-28.29890547 -19.47733308 -28.29890547 -19.47733308 0 0 Z " fill="#1E1E1E" transform="translate(457,141)"/>
<path d="M0 0 C3.47735304 0.95423122 6.97337361 1.81919884 10.47509766 2.67919922 C9.12363015 14.05153401 7.50531718 25.35374428 5.62615967 36.65219116 C3.95937803 46.45525357 3.95937803 46.45525357 3.23291016 56.36279297 C2.98920491 66.83470151 2.98920491 66.83470151 0.12353516 70.32568359 C-3.42265264 73.61209251 -7.41510588 76.08858783 -11.578125 78.51611328 C-14.39239477 80.19747536 -16.97711764 82.13696912 -19.58740234 84.11669922 C-20.54517578 84.83599609 -21.50294922 85.55529297 -22.48974609 86.29638672 C-26.57512916 89.50370161 -30.50210722 92.87763649 -34.42407227 96.28149414 C-39.35044188 100.55589503 -44.38994331 104.65642025 -49.52490234 108.67919922 C-57.74697389 103.74595629 -63.61827759 96.73912259 -69.45849609 89.24169922 C-71.54712443 86.65164215 -73.75386968 84.2349443 -76.02490234 81.80419922 C-80.85923633 76.49639954 -84.68439222 70.72780551 -88.52490234 64.67919922 C-89.12173828 63.78330078 -89.71857422 62.88740234 -90.33349609 61.96435547 C-98.98857819 48.83715969 -104.57205951 37.34765894 -104.83740234 21.55419922 C-104.85536865 20.78946289 -104.87333496 20.02472656 -104.8918457 19.23681641 C-104.88219934 13.30237423 -103.89093432 8.60379047 -100.05224609 3.85888672 C-73.69040848 -17.77466061 -29.77524739 -8.25943836 0 0 Z " fill="#1D1D1D" transform="translate(172.52490234375,140.32080078125)"/>
<path d="M0 0 C8.60477809 5.33989602 15.86937045 13.17964732 18.26953125 23.234375 C19.82393653 32.73351837 18.50698986 40.42154109 13.69140625 48.8125 C7.66328419 57.00398549 1.50686929 61.99803031 -8.30859375 64.8125 C-18.8799691 65.98459279 -27.49999415 65.2721397 -36.30859375 58.8125 C-43.29256474 52.4087996 -48.9550966 45.41385382 -49.4765625 35.67578125 C-49.54724917 22.82494404 -48.45377984 15.32567851 -39.48828125 5.8984375 C-28.94671597 -4.13098696 -13.16565042 -6.7721789 0 0 Z " fill="#7E7E7E" transform="translate(282.30859375,231.1875)"/>
<path d="M0 0 C6.93472836 4.73850921 11.38255391 10.64319519 13 19 C14.12973769 28.26653894 12.39734025 35.33067874 7 43 C0.56802378 49.68072668 -6.56322201 53.01296582 -15.75 53.5625 C-23.68123139 53.32185581 -30.55486449 50.42681032 -36.203125 44.80859375 C-42.41065268 37.10134825 -44.6968123 30.76311872 -44.47265625 20.83203125 C-43.41150019 12.2287743 -38.78551553 5.66685844 -32.0546875 0.37109375 C-22.19298344 -6.20962512 -10.20819083 -5.73215568 0 0 Z " fill="#45906D" transform="translate(144,376)"/>
<path d="M0 0 C6.57247891 3.72440472 12.453091 9.04717297 15.125 16.328125 C16.90348429 25.15702913 16.43936285 33.83197665 11.5625 41.5 C11.17320312 42.12390625 10.78390625 42.7478125 10.3828125 43.390625 C5.58848107 49.91545475 -1.8582888 53.74488861 -9.75390625 55.046875 C-19.18009946 55.44751603 -26.20578456 52.61823096 -33.25 46.4375 C-38.50895636 40.70498833 -41.63724096 33.07554348 -42 25.3125 C-41.55212201 17.54928157 -37.60997283 10.21394382 -32.4375 4.5 C-23.05913524 -3.62791613 -11.41317171 -5.28973198 0 0 Z " fill="#FBD435" transform="translate(471.4375,292.5)"/>
<path d="M0 0 C5.5863515 3.2698269 11.70590479 8.06447133 14.01953125 14.3125 C16.21029897 24.33011307 16.45417861 32.67565797 10.8828125 41.58984375 C6.00583417 48.58324664 0.25585037 51.68424779 -7.7109375 54.33984375 C-17.36612633 55.30536263 -24.26625017 53.25189795 -31.8984375 47.33984375 C-38.18482674 41.43139374 -41.98682484 33.85870957 -42.3984375 25.21484375 C-41.92599856 16.62095454 -37.71074462 9.33965087 -31.7109375 3.33984375 C-21.99842303 -3.68217064 -11.14055677 -5.09852842 0 0 Z " fill="#FB5154" transform="translate(226.7109375,50.66015625)"/>
<path d="M0 0 C10.10769231 6.73846154 10.10769231 6.73846154 14.375 10.3125 C15.29152344 11.075625 16.20804687 11.83875 17.15234375 12.625 C18.56193359 13.800625 18.56193359 13.800625 20 15 C22.86114854 17.32166019 25.7246324 19.64038761 28.58984375 21.95703125 C30.85037361 23.8731692 32.9393349 25.87239914 35 28 C30.17488793 39.64320522 12.27294298 50.29405111 2 57 C1.34 57 0.68 57 0 57 C0 38.19 0 19.38 0 0 Z " fill="#1E1E1E" transform="translate(361,233)"/>
<path d="M0 0 C0.93005859 0.60134766 0.93005859 0.60134766 1.87890625 1.21484375 C13.53186747 8.6951289 25.32962629 15.76581451 37.58984375 22.203125 C41.76432404 24.40273661 45.88973971 26.68310531 50 29 C41.47771246 39.10159258 19.24727896 42.99179961 7 47 C4.78614078 37.32917629 3.11819812 27.71092048 1.8125 17.875 C1.63525391 16.58851563 1.45800781 15.30203125 1.27539062 13.9765625 C0 4.5613236 0 4.5613236 0 0 Z " fill="#1E1E1E" transform="translate(194,328)"/>
<path d="M0 0 C7.15574522 1.91942343 13.96290427 4.51092519 20.81640625 7.3046875 C25.50283412 9.21460227 30.21893325 11.04622848 34.9375 12.875 C35.73736328 13.1853418 36.53722656 13.49568359 37.36132812 13.81542969 C39.24063758 14.54425917 41.12028083 15.27222786 43 16 C40.80099591 18.38659686 38.6063356 19.94596779 35.78125 21.53125 C34.94029785 22.00691406 34.0993457 22.48257813 33.23291016 22.97265625 C32.3310498 23.47667969 31.42918945 23.98070312 30.5 24.5 C28.60126145 25.57238382 26.70283074 26.64531283 24.8046875 27.71875 C23.84014648 28.26273438 22.87560547 28.80671875 21.88183594 29.3671875 C17.44516367 31.88095098 13.0343543 34.43870973 8.625 37 C3.42646508 40.01751521 -1.77772615 43.02371728 -7 46 C-5.60742189 34.37428627 -4.19665046 22.75503746 -2.375 11.1875 C-2.25213623 10.40076904 -2.12927246 9.61403809 -2.00268555 8.8034668 C-1.51319749 5.76634688 -0.97468907 2.92406722 0 0 Z " fill="#1E1E1E" transform="translate(201,149)"/>
<path d="M0 0 C1.88790009 10.26903231 3.61388256 20.56289159 5.25 30.875 C5.43723633 32.02210449 5.62447266 33.16920898 5.81738281 34.35107422 C5.98592773 35.4288916 6.15447266 36.50670898 6.328125 37.6171875 C6.4818457 38.58253418 6.63556641 39.54788086 6.79394531 40.54248047 C7 43 7 43 6 46 C5.0821875 45.39671875 4.164375 44.7934375 3.21875 44.171875 C1.97931102 43.36436172 0.73971943 42.55708265 -0.5 41.75 C-1.10070312 41.35425781 -1.70140625 40.95851562 -2.3203125 40.55078125 C-6.09456733 38.10153077 -9.91605814 35.99538951 -13.95996094 34.02734375 C-17.5295992 32.22970878 -20.94320796 30.17032448 -24.375 28.125 C-25.11161865 27.68881348 -25.8482373 27.25262695 -26.60717773 26.80322266 C-32.08405312 23.55664296 -37.55114584 20.29341062 -43 17 C-36.53015494 12.68676996 -28.77895231 10.31232804 -21.5625 7.5 C-20.56412109 7.10941406 -19.56574219 6.71882812 -18.53710938 6.31640625 C-15.69335818 5.20582886 -12.84725319 4.10156363 -10 3 C-8.79512939 2.53013672 -8.79512939 2.53013672 -7.56591797 2.05078125 C-2.23316461 0 -2.23316461 0 0 0 Z " fill="#1E1E1E" transform="translate(332,149)"/>
<path d="M0 0 C0.66 0 1.32 0 2 0 C0.97543853 10.55567935 -0.39410556 21.02577141 -2.0625 31.5 C-2.2368457 32.60400146 -2.41119141 33.70800293 -2.59082031 34.84545898 C-2.75807617 35.87614502 -2.92533203 36.90683105 -3.09765625 37.96875 C-3.24726807 38.89107422 -3.39687988 39.81339844 -3.55102539 40.76367188 C-4 43 -4 43 -5 45 C-9.70424798 44.39762678 -13.63117637 43.07662023 -18 41.25 C-23.10403603 39.14179739 -28.21924211 37.18369649 -33.4375 35.375 C-38.53366417 33.5875826 -43.25064238 31.56465312 -48 29 C-45.60889205 26.29323424 -43.19021822 24.97007469 -39.9375 23.4375 C-18.64912538 13.69712769 -18.64912538 13.69712769 0 0 Z " fill="#1E1E1E" transform="translate(337,329)"/>
<path d="M0 0 C0 18.48 0 36.96 0 56 C-6.79110303 51.67838898 -13.02162024 47.65200615 -19.125 42.5625 C-19.80369141 42.00409424 -20.48238281 41.44568848 -21.18164062 40.87036133 C-26.2268621 36.69913894 -31.18057458 32.43119393 -36 28 C-28.03778182 19.78896251 -19.09280774 12.89603974 -10 6 C-9.16082031 5.34902344 -8.32164062 4.69804687 -7.45703125 4.02734375 C-6.74933594 3.48207031 -6.04164063 2.93679687 -5.3125 2.375 C-4.71050781 1.90835938 -4.10851562 1.44171875 -3.48828125 0.9609375 C-2 0 -2 0 0 0 Z " fill="#1D1D1D" transform="translate(172,234)"/>
</svg>
