<?xml version="1.0" encoding="UTF-8"?>
<svg version="1.1" xmlns="http://www.w3.org/2000/svg" width="2358" height="765">
<path d="M0 0 C778.14 0 1556.28 0 2358 0 C2358 252.45 2358 504.9 2358 765 C1579.86 765 801.72 765 0 765 C0 512.55 0 260.1 0 0 Z " fill="#FEFEFE" transform="translate(0,0)"/>
<path d="M0 0 C1.74719645 1.20340044 3.47806423 2.43103775 5.1875 3.6875 C5.86039063 4.16445313 6.53328125 4.64140625 7.2265625 5.1328125 C28.3249967 21.71635543 39.9580422 52.37859676 48.1875 76.875 C48.56124756 77.98447998 48.93499512 79.09395996 49.32006836 80.23706055 C51.51740967 86.99282989 53.12130933 93.66344291 54.1875 100.6875 C54.90292969 100.49833008 55.61835937 100.30916016 56.35546875 100.11425781 C66.20840695 97.53177439 76.19036069 95.61732134 86.1875 93.6875 C86.96367676 93.53748535 87.73985352 93.3874707 88.53955078 93.23291016 C100.81083652 90.87150814 112.5611984 89.41863306 125.0625 89.375 C125.80160614 89.37204926 126.54071228 89.36909851 127.30221558 89.36605835 C147.83452418 89.34736954 167.61280346 93.33701289 183.296875 107.5546875 C191.37417157 116.66667908 193.38383215 125.08607581 193.4375 136.8125 C193.4684375 138.46765625 193.4684375 138.46765625 193.5 140.15625 C193.53234911 146.96573843 192.82889686 152.41777912 190.1875 158.6875 C189.89681641 159.42838867 189.60613281 160.16927734 189.30664062 160.93261719 C182.31748006 178.37596613 172.49217052 194.47076916 160.1875 208.6875 C159.21423163 209.8432348 158.24163247 210.99953333 157.26953125 212.15625 C149.97834828 220.76314348 142.28020398 228.83320628 134.1875 236.6875 C135.54190214 239.72929954 137.04834538 241.76989455 139.4453125 244.0703125 C140.07050781 244.68003906 140.69570312 245.28976562 141.33984375 245.91796875 C141.99082031 246.54316406 142.64179687 247.16835938 143.3125 247.8125 C144.61127053 249.06043802 145.90578638 250.3128243 147.1953125 251.5703125 C147.76910645 252.12090332 148.34290039 252.67149414 148.93408203 253.23876953 C150.1875 254.6875 150.1875 254.6875 150.1875 256.6875 C149.3625 257.05875 148.5375 257.43 147.6875 257.8125 C143.24777939 260.07747618 143.24777939 260.07747618 136.1875 265.6875 C131.2375 260.7375 126.2875 255.7875 121.1875 250.6875 C116.31506552 252.63647379 114.36231801 254.13382984 110.6875 257.6875 C105.07735354 262.98858346 99.18367665 267.72275166 92.99707031 272.33691406 C91.01099091 273.81923884 89.03257029 275.31144543 87.0546875 276.8046875 C84.3434019 278.84806952 81.63144545 280.89051264 78.9140625 282.92578125 C77.99065063 283.63190552 77.99065063 283.63190552 77.04858398 284.35229492 C75.1875 285.6875 75.1875 285.6875 73.21899414 286.7824707 C70.29998825 288.47760787 68.55394625 289.66461649 67.390625 292.91186523 C66.88301168 295.69561041 66.59672888 298.42911587 66.375 301.25 C66.26720215 302.27359619 66.1594043 303.29719238 66.04833984 304.35180664 C65.72742414 307.46160972 65.45004172 310.57227362 65.1875 313.6875 C64.90293624 317.00067896 64.61368766 320.3132879 64.3125 323.625 C64.24264893 324.41237549 64.17279785 325.19975098 64.10083008 326.01098633 C63.04041166 336.71917518 60.56193442 347.20742487 58.1875 357.6875 C59.486875 357.80351562 60.78625 357.91953125 62.125 358.0390625 C66.97948429 358.57950313 71.50067325 359.72453597 76.1875 361.0625 C82.52478595 362.80008226 88.83690844 364.31302228 95.3125 365.4375 C95.97378906 365.55270996 96.63507813 365.66791992 97.31640625 365.78662109 C106.73536171 367.35249875 115.89069078 367.86966659 125.4375 367.875 C126.57574219 367.88724609 127.71398438 367.89949219 128.88671875 367.91210938 C143.16870841 367.93642604 157.01439531 366.53560068 168.296875 356.8828125 C169.78950762 355.22022667 171.00967708 353.58264364 172.1875 351.6875 C172.785625 350.759375 173.38375 349.83125 174 348.875 C175.61767924 344.53280836 175.92374005 340.28965639 176.1875 335.6875 C182.6875 332.6875 182.6875 332.6875 187.1875 332.6875 C187.1875 332.0275 187.1875 331.3675 187.1875 330.6875 C189.1675 330.0275 191.1475 329.3675 193.1875 328.6875 C193.65600929 344.616816 192.7854957 355.95818908 181.8125 368.375 C180.94625 369.138125 180.08 369.90125 179.1875 370.6875 C178.68347656 371.15671875 178.17945313 371.6259375 177.66015625 372.109375 C173.39788008 375.72811275 168.75465875 377.89172371 163.5625 379.875 C162.94850342 380.11275146 162.33450684 380.35050293 161.7019043 380.59545898 C150.15503144 384.77186305 138.60127241 386.22317796 126.375 386.125 C125.37395737 386.12043793 125.37395737 386.12043793 124.35269165 386.11578369 C101.56059813 385.96387466 75.30520907 382.59192798 54.1875 373.6875 C53.97996094 374.65945313 53.77242187 375.63140625 53.55859375 376.6328125 C49.84348008 393.48269083 45.14713423 410.23310458 37.23876953 425.63232422 C36.01966894 428.01560076 34.83806893 430.4163577 33.65234375 432.81640625 C28.38146905 443.32996916 22.81646781 452.7176044 15.1875 461.6875 C14.38183594 462.698125 13.57617188 463.70875 12.74609375 464.75 C4.40284448 474.32881443 -7.98861929 481.79092679 -20.80859375 482.9609375 C-35.76134386 483.40222184 -47.40719208 477.79389499 -58.20141602 467.74780273 C-65.3282411 460.85468088 -70.73412229 453.16613061 -75.8125 444.6875 C-76.24868652 443.96191895 -76.68487305 443.23633789 -77.13427734 442.48876953 C-82.88110511 432.81483857 -87.35543888 423.41091223 -90.8125 412.6875 C-91.27491047 411.43644061 -91.74411937 410.1878808 -92.21875 408.94140625 C-94.05963701 404.08494338 -95.72425948 399.17382173 -97.375 394.25 C-97.67857422 393.35990234 -97.98214844 392.46980469 -98.29492188 391.55273438 C-100.16521866 385.97444178 -101.63371168 380.45241998 -102.8125 374.6875 C-108.4225 375.6775 -114.0325 376.6675 -119.8125 377.6875 C-122.8125 364.0625 -122.8125 364.0625 -122.8125 360.6875 C-115.3875 358.7075 -115.3875 358.7075 -107.8125 356.6875 C-108.53002964 349.89065671 -109.42700422 343.13480156 -110.40625 336.37109375 C-110.63362854 334.78724632 -110.63362854 334.78724632 -110.86560059 333.17140198 C-111.34655535 329.82240626 -111.82939348 326.47368594 -112.3125 323.125 C-112.7953611 319.77270908 -113.27779851 316.42035856 -113.75939941 313.06788635 C-114.05800769 310.98975965 -114.35736414 308.91174027 -114.65759277 306.83384705 C-114.86285583 305.40680199 -114.86285583 305.40680199 -115.07226562 303.95092773 C-115.20242569 303.05427399 -115.33258575 302.15762024 -115.46669006 301.23379517 C-115.78775476 298.86970611 -116.03628255 296.50731587 -116.27709961 294.1340332 C-116.49836265 290.59058844 -116.49836265 290.59058844 -118.97265625 288.359375 C-119.93042969 287.72515625 -120.88820313 287.0909375 -121.875 286.4375 C-122.9578125 285.68984375 -124.040625 284.9421875 -125.15625 284.171875 C-125.74535156 283.77548828 -126.33445312 283.37910156 -126.94140625 282.97070312 C-130.32929758 280.64727452 -133.59473272 278.15938787 -136.875 275.6875 C-137.55852539 275.17566162 -138.24205078 274.66382324 -138.94628906 274.13647461 C-143.79518891 270.49399127 -148.53455596 266.74097771 -153.1953125 262.859375 C-155.09010048 261.28698378 -157.00417789 259.73774168 -158.9296875 258.203125 C-159.94289063 257.39359375 -160.95609375 256.5840625 -162 255.75 C-162.92167969 255.01910156 -163.84335938 254.28820312 -164.79296875 253.53515625 C-165.45941406 252.92542969 -166.12585937 252.31570313 -166.8125 251.6875 C-166.8125 251.0275 -166.8125 250.3675 -166.8125 249.6875 C-171.00871578 251.95406911 -174.24578478 254.8093142 -177.5625 258.1875 C-178.3512854 258.98426147 -178.3512854 258.98426147 -179.15600586 259.79711914 C-183.20869791 263.94716947 -186.9290138 268.29918047 -190.53125 272.84765625 C-192.16429779 274.88057704 -193.81167711 276.85239897 -195.53125 278.80859375 C-205.83771205 290.55746311 -213.22268777 303.57190913 -219.8125 317.6875 C-220.27140625 318.64398438 -220.7303125 319.60046875 -221.203125 320.5859375 C-224.79900741 329.01853498 -225.50011845 338.88537815 -222.9296875 347.72265625 C-218.91398555 356.53858471 -212.37296395 360.78272697 -203.8125 364.6875 C-204.1425 370.2975 -204.4725 375.9075 -204.8125 381.6875 C-217.71661503 379.10667699 -228.1920283 372.54951563 -235.8125 361.6875 C-239.02815846 355.91431007 -241.46799176 350.3479926 -241.8125 343.6875 C-241.88597656 342.81351562 -241.95945312 341.93953125 -242.03515625 341.0390625 C-243.01465639 321.0974442 -233.90209326 301.73059367 -222.8125 285.6875 C-222.43722168 285.1423877 -222.06194336 284.59727539 -221.67529297 284.03564453 C-210.25548395 267.52091467 -197.06124514 252.8049203 -182.8125 238.6875 C-184.35377351 234.97481906 -186.62093234 232.70634302 -189.5 229.9375 C-193.8378731 225.6801874 -197.87813848 221.31424398 -201.8125 216.6875 C-202.61042969 215.7903125 -203.40835937 214.893125 -204.23046875 213.96875 C-214.57663316 202.22913714 -223.5631746 189.36961576 -230.9375 175.5625 C-231.29150879 174.90088867 -231.64551758 174.23927734 -232.01025391 173.55761719 C-234.48020452 168.75312197 -236.24378476 163.8509971 -237.8125 158.6875 C-238.01294922 158.03201172 -238.21339844 157.37652344 -238.41992188 156.70117188 C-242.82133532 141.77930677 -243.95158232 128.16491477 -236.375 114 C-232.07632667 107.22132282 -226.55620972 102.92077763 -219.8125 98.6875 C-219.16667969 98.27757812 -218.52085938 97.86765625 -217.85546875 97.4453125 C-195.53982976 84.90188144 -162.02978779 87.7493737 -137.8125 92.6875 C-136.14405029 93.02539551 -136.14405029 93.02539551 -134.44189453 93.37011719 C-111.66999269 98.06250908 -111.66999269 98.06250908 -102.8125 101.6875 C-101.8225 97.3975 -100.8325 93.1075 -99.8125 88.6875 C-95.3894382 89.42467697 -92.42351389 90.08018337 -88.4375 91.75 C-86.91125 92.389375 -85.385 93.02875 -83.8125 93.6875 C-84.4725 98.3075 -85.1325 102.9275 -85.8125 107.6875 C-84.4925 107.89375 -83.1725 108.1 -81.8125 108.3125 C-67.93258692 111.16163611 -54.96065074 117.73960988 -42.12915039 123.54833984 C-41.01145264 124.05316895 -39.89375488 124.55799805 -38.7421875 125.078125 C-37.24534424 125.7592334 -37.24534424 125.7592334 -35.71826172 126.45410156 C-31.08035617 128.42273699 -27.01023661 129.96621929 -21.9375 129.8125 C-21.15632813 129.79445312 -20.37515625 129.77640625 -19.5703125 129.7578125 C-18.99023438 129.73460937 -18.41015625 129.71140625 -17.8125 129.6875 C-17.8125 129.0275 -17.8125 128.3675 -17.8125 127.6875 C-17.00167969 127.38457031 -16.19085937 127.08164063 -15.35546875 126.76953125 C-9.9946914 124.74129768 -4.68972231 122.68663792 0.5 120.25 C5.68194945 117.84084806 10.97005945 115.82928702 16.33056641 113.86108398 C20.97242884 112.1566936 25.54169249 110.33202691 30.07421875 108.3515625 C32.5315732 107.57938088 34.6267989 107.57090065 37.1875 107.6875 C31.02418932 79.86652219 22.3503035 48.55809096 3.1875 26.6875 C2.56875 25.82125 1.95 24.955 1.3125 24.0625 C-4.44936773 17.62276548 -12.11597318 11.53938633 -20.81640625 10.23828125 C-30.61735834 9.71756951 -37.30779561 12.9495538 -44.75 19.125 C-46.8125 20.6875 -46.8125 20.6875 -48.58203125 20.5078125 C-51.52962195 19.42375988 -53.93713124 17.84399145 -56.5625 16.125 C-57.54734375 15.48433594 -58.5321875 14.84367187 -59.546875 14.18359375 C-60.66835937 13.44302734 -60.66835937 13.44302734 -61.8125 12.6875 C-55.57239376 4.59222705 -47.54524738 -1.94347206 -37.8125 -5.3125 C-36.760625 -5.704375 -35.70875 -6.09625 -34.625 -6.5 C-22.23513786 -9.14046242 -10.74195584 -6.58760828 0 0 Z " fill="#050505" transform="translate(1744.8125,30.3125)"/>
<path d="M0 0 C12.88851884 12.43986787 19.76998863 27.15362472 20.16796875 45.1796875 C20.17981737 47.07809919 20.18621204 48.97655177 20.1875 50.875 C20.19974609 51.81730469 20.21199219 52.75960937 20.22460938 53.73046875 C20.26371358 72.5786961 12.07247884 88.67153568 -0.6875 102.25 C-6.94271696 108.24990198 -15.37538576 115.12422218 -24 117 C-23.62415771 117.67651611 -23.24831543 118.35303223 -22.86108398 119.05004883 C-5.19140625 150.85546875 -5.19140625 150.85546875 -3.34179688 154.18481445 C-2.10487288 156.41124485 -0.86789291 158.63764414 0.36914062 160.86401367 C3.50911313 166.51539238 6.64810477 172.16731176 9.78515625 177.8203125 C25.58412079 206.37092026 25.58412079 206.37092026 41.7421875 234.71875 C43 237 43 237 43 238 C31.12 238 19.24 238 7 238 C4.9375 233.99875 2.875 229.9975 0.75 225.875 C-3.66199679 217.34544677 -8.12055903 208.85140924 -12.75 200.4375 C-17.86818779 191.13392307 -22.85429185 181.76443243 -27.8125 172.375 C-35.81693085 157.21829125 -43.89261212 142.10199702 -52 127 C-67.18 126.67 -82.36 126.34 -98 126 C-98 162.96 -98 199.92 -98 238 C-107.9 238 -117.8 238 -128 238 C-128 154.84 -128 71.68 -128 -14 C-113.92383081 -16.3460282 -113.92383081 -16.3460282 -106.8125 -17.0625 C-105.99918213 -17.14483887 -105.18586426 -17.22717773 -104.34790039 -17.31201172 C-69.85329526 -20.69810864 -28.08585781 -24.35841372 0 0 Z " fill="#020202" transform="translate(1452,160)"/>
<path d="M0 0 C9.24 0 18.48 0 28 0 C36.7233024 10.60753571 36.7233024 10.60753571 38.9296875 15.6015625 C41.94838711 22.04498564 45.58506811 27.90321389 49.4375 33.875 C50.7001297 35.89103193 51.95923307 37.90927657 53.21484375 39.9296875 C56.35001642 44.95857235 59.48913648 49.98497052 62.63085938 55.00976562 C63.86854005 56.98979605 65.10552898 58.97025905 66.34179688 60.95117188 C69.28286923 65.66247785 72.23004982 70.36962799 75.19747925 75.06439209 C76.261953 76.74907936 77.32435138 78.43507739 78.38671875 80.12109375 C79.73073546 82.25360026 81.07826816 84.38389576 82.4296875 86.51171875 C83.02910156 87.46433594 83.62851562 88.41695313 84.24609375 89.3984375 C84.77904053 90.24067871 85.3119873 91.08291992 85.86108398 91.95068359 C87 94 87 94 87 96 C90.38442005 92.91202894 92.67708858 89.52800602 94.94921875 85.59375 C95.31880203 84.96569458 95.68838531 84.33763916 96.06916809 83.69055176 C96.86480191 82.33722391 97.65774157 80.9823092 98.44824219 79.62597656 C100.57175163 75.98304508 102.7151609 72.35182813 104.85546875 68.71875 C105.28999359 67.97987549 105.72451843 67.24100098 106.17221069 66.47973633 C108.87168966 61.89448939 111.5985839 57.32745887 114.36328125 52.78125 C114.70713867 52.21452576 115.05099609 51.64780151 115.40527344 51.06390381 C117.11940817 48.24486404 118.85208896 45.43943194 120.60693359 42.64550781 C124.11783751 37.02527254 127.35967467 31.40597142 130.20889282 25.41711426 C131.65802791 22.39579783 133.18840769 19.41894819 134.72509766 16.44140625 C135.43805181 15.00461314 136.11201737 13.54766168 136.74121094 12.07226562 C137.19028809 11.02329102 137.19028809 11.02329102 137.6484375 9.953125 C137.8961792 9.33888672 138.1439209 8.72464844 138.39916992 8.09179688 C139.70703125 6.015625 139.70703125 6.015625 146 0 C155.24 0 164.48 0 174 0 C174 83.82 174 167.64 174 254 C164.1 254 154.2 254 144 254 C143.93013484 231.8140886 143.87680423 209.6282043 143.84456348 187.44220448 C143.82918635 177.13761937 143.80827522 166.83310446 143.77368164 156.52856445 C143.74349545 147.53247593 143.72435879 138.53643832 143.71773452 129.54030055 C143.71387095 124.79022353 143.70499001 120.04029195 143.68280983 115.29026222 C143.58551755 93.64100855 144.11013655 72.4881151 147 51 C146.34 51 145.68 51 145 51 C144.72486572 51.71792725 144.44973145 52.43585449 144.16625977 53.17553711 C136.72087582 71.20686365 125.46565089 88.0807121 115.26358032 104.66345215 C111.16551089 111.33657456 107.17324893 118.07189178 103.1875 124.8125 C102.52379395 125.93325928 101.86008789 127.05401855 101.17626953 128.20874023 C98.07760005 133.45044856 95.00068982 138.70155274 92 144 C88.51009272 144.59699802 85.47383252 144.76525751 82 144 C78.97146163 141.32321821 77.24572941 138.01630909 75.3125 134.5 C74.11382209 132.47103455 72.91458384 130.44240006 71.71484375 128.4140625 C71.10624512 127.35606445 70.49764648 126.29806641 69.87060547 125.20800781 C67.43839346 121.03686897 64.8662193 116.96319622 62.28173828 112.88525391 C59.15270882 107.94531366 56.0766496 102.97267453 53 98 C52.47164551 97.14728516 51.94329102 96.29457031 51.39892578 95.41601562 C44.32364871 83.95193033 37.79263677 72.24515348 31.54272461 60.31494141 C30.97948486 59.24808105 30.41624512 58.1812207 29.8359375 57.08203125 C29.33626465 56.12530518 28.8365918 55.1685791 28.32177734 54.18286133 C27.18737374 51.8714152 27.18737374 51.8714152 25 51 C25.12117187 51.65742188 25.24234375 52.31484375 25.3671875 52.9921875 C28.06577886 68.31188309 29.30083387 83.38416743 29.22705078 98.92431641 C29.22648465 100.63138319 29.22680714 102.33845046 29.22793579 104.04551697 C29.22850245 108.61666354 29.2168613 113.18770209 29.20278788 117.75882387 C29.19016416 122.55937411 29.18910095 127.35992766 29.18673706 132.16049194 C29.18055613 141.22286204 29.16419185 150.28518305 29.14403808 159.34753168 C29.12157277 169.6766453 29.11065909 180.00576144 29.10064721 190.33489347 C29.07982206 211.55662363 29.04430332 232.77830697 29 254 C19.43 254 9.86 254 0 254 C0 170.18 0 86.36 0 0 Z " fill="#000000" transform="translate(874,144)"/>
<path d="M0 0 C1.91821677 0.87545215 3.80463962 1.82216353 5.6640625 2.81640625 C6.77289795 3.40776367 7.8817334 3.99912109 9.02416992 4.60839844 C10.22480955 5.2590964 11.42507686 5.91048174 12.625 6.5625 C13.23759674 6.89302368 13.85019348 7.22354736 14.48135376 7.56408691 C27.20266205 14.43299677 39.66009595 21.69319644 52.00048828 29.22509766 C54.77176262 30.864945 57.5741273 32.3765444 60.43359375 33.85546875 C61.23708252 34.29793945 62.04057129 34.74041016 62.8684082 35.19628906 C65.07514775 36.4456787 65.07514775 36.4456787 67.24291992 37.40917969 C69.55276368 38.73761586 70.62354919 39.7002275 72 42 C73.11945401 47.64588585 73.01303128 53.26230181 73 59 C73.02154217 61.01996498 73.04559439 63.0399043 73.07177734 65.05981445 C73.13228211 70.68609412 73.1406263 76.31118557 73.13037109 81.93774414 C73.12501467 85.42794142 73.13034576 88.91800975 73.13671875 92.40820312 C73.14245777 97.94030419 73.08811815 103.4698387 73.01385498 109.00137329 C73.00091352 111.80228766 73.06475596 114.59008118 73.15087891 117.3894043 C73.31781191 128.30183626 73.31781191 128.30183626 69.97412109 132.6105957 C67.13532897 134.79466364 64.3386858 136.35938986 61.125 137.9375 C60.02945801 138.54408447 58.93391602 139.15066895 57.80517578 139.77563477 C55.58705003 140.99940043 53.35435527 142.19715563 51.10742188 143.3671875 C47.67107107 145.17283758 44.35965405 147.13242754 41.03881836 149.1394043 C31.90054897 154.62154109 22.45069429 159.58796658 13.0625 164.625 C12.05905548 165.16542435 12.05905548 165.16542435 11.03533936 165.71676636 C9.121235 166.7458677 7.20382531 167.76850196 5.28515625 168.7890625 C4.17019775 169.38412598 3.05523926 169.97918945 1.90649414 170.59228516 C-2.68324112 172.81525143 -2.68324112 172.81525143 -5 173 C-7.31494141 172.09130859 -7.31494141 172.09130859 -9.8515625 170.6484375 C-11.25341797 169.86533203 -11.25341797 169.86533203 -12.68359375 169.06640625 C-13.65425781 168.50824219 -14.62492187 167.95007813 -15.625 167.375 C-17.53288411 166.29775931 -19.44173354 165.22222642 -21.3515625 164.1484375 C-22.28387695 163.62217773 -23.21619141 163.09591797 -24.17675781 162.55371094 C-28.38629773 160.2370807 -32.67989606 158.1016403 -37 156 C-37 155.34 -37 154.68 -37 154 C-37.70560059 153.90412598 -38.41120117 153.80825195 -39.13818359 153.70947266 C-42.50777273 152.87411811 -44.84583494 151.48753686 -47.7890625 149.6484375 C-48.89636719 148.96136719 -50.00367188 148.27429688 -51.14453125 147.56640625 C-52.30477465 146.83607593 -53.46493056 146.1056066 -54.625 145.375 C-55.76129485 144.66728769 -56.89801053 143.96025058 -58.03515625 143.25390625 C-60.2838877 141.85267359 -62.51885688 140.42910442 -64.73925781 138.98339844 C-67.9177939 136.94258916 -67.9177939 136.94258916 -71.25292969 135.61816406 C-74.62724479 134.0635572 -76.63121078 132.87897258 -79 130 C-80.67543084 124.5491722 -80.23365204 118.66299166 -80.07263184 113.02966309 C-79.99671072 109.86279573 -80.01483113 106.70747446 -80.05566406 103.54003906 C-80.12735598 97.75580942 -80.14073923 91.9735883 -80.13037109 86.18896484 C-80.1249759 82.60900705 -80.13037045 79.02917294 -80.13671875 75.44921875 C-80.14087565 69.90271178 -80.10382436 64.35802425 -80.03060913 58.81201172 C-80.01158946 57.06470481 -80.00258082 55.31722216 -80.00918579 53.56982422 C-80.04504116 43.44232634 -80.04504116 43.44232634 -77.67578125 40.17236328 C-75.83639366 38.69360904 -74.07723503 37.74097754 -71.9375 36.75 C-70.46924797 35.9572166 -69.00182231 35.16290115 -67.53515625 34.3671875 C-66.78121582 33.98014648 -66.02727539 33.59310547 -65.25048828 33.19433594 C-61.66260654 31.29024422 -58.28783632 29.07246021 -54.875 26.875 C-8.39353066 -2.27146451 -8.39353066 -2.27146451 0 0 Z " fill="#FDFDFD" transform="translate(1724,182)"/>
<path d="M0 0 C0.82274414 0.00725098 1.64548828 0.01450195 2.49316406 0.02197266 C11.92832159 0.14900924 20.98930357 1.5438925 30.25 3.25 C31.31549072 3.44231201 32.38098145 3.63462402 33.47875977 3.83276367 C41.62388135 5.43084521 48.00993433 7.92689782 56 11 C56 30.8 56 50.6 56 71 C47.09 71 38.18 71 29 71 C29 58.13 29 45.26 29 32 C-12.83405116 24.92748562 -12.83405116 24.92748562 -52 38 C-52.59296875 38.37769531 -53.1859375 38.75539062 -53.796875 39.14453125 C-59.21160967 43.09393824 -62.90967981 49.72903942 -65 56 C-65.85140625 66.73330172 -64.89192801 75.40000541 -58.125 84 C-42.80261402 99.99413985 -20.60066195 108.11886474 -0.625 116.625 C15.46345128 123.47720778 30.39995434 130.8936453 44 142 C44.72316406 142.55945313 45.44632813 143.11890625 46.19140625 143.6953125 C56.86910474 152.34612889 65.70090642 165.30781005 68 179 C68.29815512 182.94160356 68.32488719 186.86098748 68.3125 190.8125 C68.32861328 191.82892578 68.34472656 192.84535156 68.36132812 193.89257812 C68.36781576 204.07168408 65.9816117 213.01660093 61.375 222.0625 C60.85776367 223.08428345 60.85776367 223.08428345 60.33007812 224.12670898 C57.08066548 230.28207078 53.02893656 235.18620511 48 240 C47.41089844 240.62003906 46.82179688 241.24007812 46.21484375 241.87890625 C39.95907179 248.02468662 31.8904246 251.42783069 24 255 C22.62521484 255.63808594 22.62521484 255.63808594 21.22265625 256.2890625 C-2.50037136 266.10807235 -32.66800198 263.92840936 -57 258 C-57.74217773 257.82339844 -58.48435547 257.64679688 -59.24902344 257.46484375 C-72.34386427 254.25211588 -86.74897921 249.50068053 -98 242 C-98.36076355 239.48165894 -98.36076355 239.48165894 -98.34057617 236.26513672 C-98.34034958 235.06404266 -98.34012299 233.86294861 -98.33988953 232.62545776 C-98.31666374 230.67230148 -98.31666374 230.67230148 -98.29296875 228.6796875 C-98.28737416 227.33733595 -98.28310341 225.99497827 -98.28010559 224.65261841 C-98.26864585 221.11789059 -98.23916959 217.58353202 -98.20599365 214.0489502 C-98.17531671 210.44284053 -98.16160538 206.83667126 -98.14648438 203.23046875 C-98.11430045 196.15348026 -98.0615237 189.07680306 -98 182 C-89.42 182 -80.84 182 -72 182 C-72 195.2 -72 208.4 -72 222 C-70.02 222.66 -68.04 223.32 -66 224 C-64.60244372 224.52907263 -63.20879192 225.06863896 -61.8203125 225.62109375 C-39.14950219 234.46345974 -11.48421721 239.38496526 11.7734375 229.453125 C23.2420043 224.19930166 31.24046639 217.9114977 35.81640625 205.84765625 C38.20888402 196.86331664 38.63577642 186.26366528 34.17578125 177.94140625 C33.59376953 176.98041016 33.59376953 176.98041016 33 176 C32.52626953 175.11634766 32.52626953 175.11634766 32.04296875 174.21484375 C21.39209594 156.70273452 -5.64012752 148.42508894 -23.625 140.9375 C-50.95546763 129.55468917 -78.96124619 116.93305357 -92.5390625 88.8125 C-98.07006748 74.96953782 -98.67170829 56.83539254 -93.3125 42.8046875 C-85.78139098 26.71142478 -75.60375531 16.85787199 -60 9 C-59.23171875 8.59136719 -58.4634375 8.18273437 -57.671875 7.76171875 C-39.71765888 -1.11259799 -19.44113189 -0.2512156 0 0 Z " fill="#010101" transform="translate(324,140)"/>
<path d="M0 0 C49.17 0 98.34 0 149 0 C149 8.91 149 17.82 149 27 C109.73 27 70.46 27 30 27 C30 54.39 30 81.78 30 110 C66.3 110 102.6 110 140 110 C140 118.91 140 127.82 140 137 C103.7 137 67.4 137 30 137 C30 166.7 30 196.4 30 227 C69.93 227 109.86 227 151 227 C151 235.91 151 244.82 151 254 C101.17 254 51.34 254 0 254 C0 170.18 0 86.36 0 0 Z " fill="#000000" transform="translate(1109,144)"/>
<path d="M0 0 C49.17 0 98.34 0 149 0 C149 8.91 149 17.82 149 27 C109.73 27 70.46 27 30 27 C30 54.39 30 81.78 30 110 C66.3 110 102.6 110 140 110 C140 118.91 140 127.82 140 137 C103.7 137 67.4 137 30 137 C30 166.7 30 196.4 30 227 C69.93 227 109.86 227 151 227 C151 235.91 151 244.82 151 254 C101.17 254 51.34 254 0 254 C0 170.18 0 86.36 0 0 Z " fill="#000000" transform="translate(673,144)"/>
<path d="M0 0 C62.04 0 124.08 0 188 0 C188 21.78 188 43.56 188 66 C179.09 66 170.18 66 161 66 C161 53.13 161 40.26 161 27 C143.84 27 126.68 27 109 27 C109 93 109 159 109 227 C122.2 227 135.4 227 149 227 C149 235.91 149 244.82 149 254 C112.7 254 76.4 254 39 254 C39 245.09 39 236.18 39 227 C52.2 227 65.4 227 79 227 C79 161 79 95 79 27 C61.51 27 44.02 27 26 27 C26 39.87 26 52.74 26 66 C17.42 66 8.84 66 0 66 C0 44.22 0 22.44 0 0 Z " fill="#010101" transform="translate(1957,144)"/>
<path d="M0 0 C62.04 0 124.08 0 188 0 C188 21.78 188 43.56 188 66 C179.09 66 170.18 66 161 66 C161 53.13 161 40.26 161 27 C143.84 27 126.68 27 109 27 C109 93 109 159 109 227 C122.2 227 135.4 227 149 227 C149 235.91 149 244.82 149 254 C112.7 254 76.4 254 39 254 C39 245.09 39 236.18 39 227 C52.2 227 65.4 227 79 227 C79 161 79 95 79 27 C61.51 27 44.02 27 26 27 C26 39.87 26 52.74 26 66 C17.42 66 8.84 66 0 66 C0 44.22 0 22.44 0 0 Z " fill="#010101" transform="translate(431,144)"/>
<path d="M0 0 C1.17986984 -0.01164688 1.17986984 -0.01164688 2.38357544 -0.02352905 C18.65580575 -0.15025949 18.65580575 -0.15025949 26.25 3.375 C27.18070313 3.76300781 28.11140625 4.15101563 29.0703125 4.55078125 C36.1920022 8.06334346 42.73637365 11.95734437 46.25 19.375 C50.2629537 31.81515648 46.78839143 46.08074339 41.24121094 57.44091797 C32.68384802 73.77943975 21.40996882 88.71490467 8.61816406 101.94189453 C6.48020262 104.18133666 4.43133108 106.49826786 2.375 108.8125 C-0.89058168 112.4587688 -4.24448358 115.95936862 -7.75 119.375 C-11.63184707 117.7366185 -14.5532151 115.11702839 -17.6875 112.375 C-23.66749868 107.22979422 -29.82442217 102.38347142 -36.11181641 97.62207031 C-37.78416549 96.34899145 -39.4460909 95.06336896 -41.10546875 93.7734375 C-46.93960784 89.24219944 -52.82645329 84.83065702 -58.921875 80.65234375 C-60.75 79.375 -60.75 79.375 -61.75 78.375 C-62.06464579 75.86242703 -62.32248431 73.36484739 -62.546875 70.84375 C-62.69946593 69.2426061 -62.85281751 67.64153456 -63.00683594 66.04052734 C-63.08703979 65.1965741 -63.16724365 64.35262085 -63.24987793 63.48309326 C-64.74246817 47.91943448 -66.77886063 32.76596112 -70.35449219 17.52099609 C-70.75 15.375 -70.75 15.375 -70.75 11.375 C-48.94377652 5.18310938 -48.94377652 5.18310938 -39.75 3.375 C-39.08419922 3.23819824 -38.41839844 3.10139648 -37.73242188 2.96044922 C-25.19728474 0.47638607 -12.73607359 0.05817315 0 0 Z " fill="#FCFCFC" transform="translate(1873.75,136.625)"/>
<path d="M0 0 C25.97309016 -1.02038999 50.86902765 3.98122496 75.70556641 11.10742188 C75.55967462 12.83159751 75.41060785 14.55550463 75.26025391 16.27929688 C75.17759277 17.23932617 75.09493164 18.19935547 75.00976562 19.18847656 C74.72296053 21.94051644 74.31508791 24.63405814 73.83056641 27.35742188 C72.9752279 32.25502678 72.28111984 37.15892064 71.64990234 42.08935547 C71.39349492 44.07405382 71.12707081 46.05748162 70.85107422 48.03955078 C70.17421742 52.97264237 69.63491396 57.82940673 69.44384766 62.80664062 C68.67869558 76.70175298 68.67869558 76.70175298 63.33056641 81.84960938 C59.7785908 84.75346063 55.97167474 87.203348 52.06933594 89.60693359 C48.20598558 92.05933509 44.62894602 94.86463866 41.01806641 97.66992188 C40.31963623 98.20214355 39.62120605 98.73436523 38.90161133 99.28271484 C32.92806231 103.8518288 27.21870705 108.69462615 21.56103516 113.64648438 C19.32806324 115.57093349 17.09386761 117.38414401 14.70556641 119.10742188 C11.63351651 117.74509655 9.60867279 116.22924884 7.30712891 113.79101562 C6.66984863 113.11796387 6.03256836 112.44491211 5.37597656 111.75146484 C4.70099121 111.02330566 4.02600586 110.29514648 3.33056641 109.54492188 C2.27361572 108.41014404 2.27361572 108.41014404 1.1953125 107.25244141 C-17.6233309 86.85537849 -43.31983863 58.37863907 -42.95678711 28.80932617 C-42.48938599 20.75085648 -38.79456583 15.249004 -33.10693359 9.79492188 C-23.20070327 1.99404251 -12.12438566 0.56764521 0 0 Z " fill="#FDFDFD" transform="translate(1562.29443359375,136.892578125)"/>
<path d="M0 0 C10.52243822 4.9936995 21.41771913 9.17305091 32.25 13.4375 C33.47267578 13.92283203 34.69535156 14.40816406 35.95507812 14.90820312 C37.73495117 15.60913086 37.73495117 15.60913086 39.55078125 16.32421875 C40.61079346 16.74276123 41.67080566 17.16130371 42.76293945 17.5925293 C46.1279653 18.8194452 49.48408852 19.80514488 52.9375 20.75 C52.31534889 27.34480182 50.81330718 33.40535807 48.9375 39.75 C48.61007812 40.90113281 48.28265625 42.05226563 47.9453125 43.23828125 C39.92374739 70.31797864 27.98257108 102.6666525 1.8125 116.90625 C-4.10299641 119.48235328 -10.41553276 119.92589131 -16.5703125 117.94140625 C-31.94758688 110.97583839 -40.75755067 96.68787149 -49.0625 82.75 C-49.60519531 81.87214844 -50.14789062 80.99429688 -50.70703125 80.08984375 C-52.22111321 77.47619794 -53.24078267 74.78404652 -54.26025391 71.94628906 C-55.06420308 69.74533753 -55.94204508 67.58771849 -56.8359375 65.421875 C-59.31182564 59.25059755 -61.46846124 52.97516725 -63.58178711 46.67260742 C-64.2510681 44.68432693 -64.93306589 42.70068666 -65.61523438 40.71679688 C-67.87430781 34.04698795 -69.66831643 27.80665885 -70.0625 20.75 C-69.1653125 20.45867187 -68.268125 20.16734375 -67.34375 19.8671875 C-53.95760467 15.46967281 -40.82263777 10.75357359 -28.0625 4.75 C-25.79928676 3.73286768 -23.53122563 2.72848397 -21.2578125 1.734375 C-19.7186324 1.04420883 -18.19336681 0.32255745 -16.6796875 -0.421875 C-15.89851563 -0.79828125 -15.11734375 -1.1746875 -14.3125 -1.5625 C-13.61640625 -1.90925781 -12.9203125 -2.25601562 -12.203125 -2.61328125 C-7.76480253 -3.93343921 -3.99389438 -1.9035756 0 0 Z " fill="#FDFDFD" transform="translate(1729.0625,377.25)"/>
<path d="M0 0 C2.20063559 -0.0021892 4.40077079 -0.02041045 6.60131836 -0.03930664 C22.22057237 -0.10324317 36.26450382 2.42764271 48.51342773 12.88452148 C56.87747745 21.40774862 61.14080407 31.55481356 61.13256836 43.40600586 C61.11645508 44.34379883 61.1003418 45.2815918 61.08374023 46.24780273 C61.08696289 47.18946289 61.09018555 48.13112305 61.09350586 49.10131836 C61.00219376 61.0299988 57.14704672 70.55908148 50.58374023 80.49780273 C29.77617393 100.38058831 2.05781565 97.18530273 -25.22875977 97.18530273 C-25.22875977 65.83530273 -25.22875977 34.48530273 -25.22875977 2.18530273 C-18.10596766 -1.37609332 -7.8538104 -0.00087332 0 0 Z " fill="#FCFCFC" transform="translate(1379.228759765625,165.814697265625)"/>
<path d="M0 0 C7.39241849 7.59776345 9.59559072 16.81012466 9.47509766 27.13354492 C9.24500373 37.9764117 7.14939172 46.08638363 1.25 55.3125 C0.86972656 55.910625 0.48945312 56.50875 0.09765625 57.125 C-4.58311871 63.52150386 -13.06475804 68.00991662 -20.75 69.3125 C-29.53052676 70.1558927 -36.46311643 69.56644866 -43.75 64.3125 C-49.70619457 58.8863058 -53.34303962 52.31429306 -53.89233398 44.21337891 C-54.30411034 34.01012664 -54.6186512 24.56445399 -49.75 15.3125 C-49.32589844 14.44367187 -48.90179687 13.57484375 -48.46484375 12.6796875 C-44.05553846 4.45062191 -37.40395621 -1.14724519 -28.75 -4.6875 C-17.8486475 -7.283937 -9.39807006 -5.76699754 0 0 Z " fill="#FCFCFC" transform="translate(1266.75,539.6875)"/>
<path d="M0 0 C7.39241849 7.59776345 9.59559072 16.81012466 9.47509766 27.13354492 C9.24500373 37.9764117 7.14939172 46.08638363 1.25 55.3125 C0.86972656 55.910625 0.48945312 56.50875 0.09765625 57.125 C-4.58311871 63.52150386 -13.06475804 68.00991662 -20.75 69.3125 C-29.53052676 70.1558927 -36.46311643 69.56644866 -43.75 64.3125 C-49.70619457 58.8863058 -53.34303962 52.31429306 -53.89233398 44.21337891 C-54.30411034 34.01012664 -54.6186512 24.56445399 -49.75 15.3125 C-49.32589844 14.44367187 -48.90179687 13.57484375 -48.46484375 12.6796875 C-44.05553846 4.45062191 -37.40395621 -1.14724519 -28.75 -4.6875 C-17.8486475 -7.283937 -9.39807006 -5.76699754 0 0 Z " fill="#FCFCFC" transform="translate(795.75,539.6875)"/>
<path d="M0 0 C8.41611305 6.09138252 14.21340107 13.15104244 16.4375 23.4375 C17.69120177 33.51935172 15.4086353 41.51925689 9.5625 49.75 C4.5077396 56.0652674 -1.84263823 60.86773779 -9.5625 63.4375 C-20.31323612 64.59134578 -29.58173048 64.11043594 -38.5625 57.4375 C-45.54350991 51.02700353 -51.20877594 44.0430911 -51.73046875 34.30078125 C-51.79255924 23.01272954 -51.46809901 14.94856064 -43.5625 6.4375 C-31.51728629 -5.12954833 -15.08123368 -9.29065761 0 0 Z " fill="#818181" transform="translate(1738.5625,238.5625)"/>
<path d="M0 0 C6.81517127 5.12628043 11.03316222 9.64525532 12.4296875 18.265625 C13.2580173 27.98831573 11.67199362 34.40216581 6.3046875 42.453125 C1.3033779 48.03090954 -5.83443018 51.77953737 -13.234375 52.5390625 C-20.95710293 52.80395818 -26.06010473 51.39316893 -32.5703125 47.265625 C-33.4778125 46.70875 -34.3853125 46.151875 -35.3203125 45.578125 C-41.94661782 38.76775565 -44.92532454 31.55254065 -44.95092773 22.21850586 C-44.74187609 13.39526579 -41.53879391 7.82657092 -35.2578125 1.828125 C-24.82490598 -6.66577093 -11.28257522 -7.61316626 0 0 Z " fill="#499371" transform="translate(1598.5703125,382.734375)"/>
<path d="M0 0 C7.0050615 3.55656699 13.63307924 8.77832944 16.78125 16.16796875 C17.37783005 18.4678877 17.67342899 20.60707178 17.84765625 22.9765625 C17.91597656 23.88921875 17.98429687 24.801875 18.0546875 25.7421875 C18.38843741 34.79051851 15.55891865 40.88637111 9.953125 47.890625 C4.64174797 53.15273137 -2.86706291 56.08849934 -10.27734375 56.2890625 C-18.72809154 56.17772195 -25.16909854 52.8965615 -31.2890625 47.14453125 C-37.12774384 40.35109699 -40.1691307 32.84144898 -39.67578125 23.8671875 C-38.25425605 16.01697369 -33.66606755 8.23992273 -27.1640625 3.5390625 C-18.92838438 -1.76067918 -9.44106812 -3.06512992 0 0 Z " fill="#FF5457" transform="translate(1678.15234375,55.0234375)"/>
<path d="M0 0 C6.51673345 3.69281562 12.48275575 9.03093714 15.12109375 16.265625 C16.82727944 24.90224639 16.71748684 33.66488181 12.171875 41.3515625 C7.4479798 47.65773328 1.25529763 52.49420921 -6.4375 54.5 C-16.38510658 55.82468128 -23.43202811 53.91889908 -31.43359375 48.03125 C-37.37686615 42.81650776 -40.59811853 35.55101479 -41.8828125 27.8203125 C-42.29271754 19.0483446 -38.25824287 10.93007683 -32.4375 4.5 C-23.05913524 -3.62791613 -11.41317171 -5.28973198 0 0 Z " fill="#FFD738" transform="translate(1925.4375,298.5)"/>
<path d="M0 0 C106.59 0 213.18 0 323 0 C323 1.65 323 3.3 323 5 C216.41 5 109.82 5 0 5 C0 3.35 0 1.7 0 0 Z " fill="#000000" transform="translate(1749,569)"/>
<path d="M0 0 C106.59 0 213.18 0 323 0 C323 1.65 323 3.3 323 5 C216.41 5 109.82 5 0 5 C0 3.35 0 1.7 0 0 Z " fill="#000000" transform="translate(271,562)"/>
<path d="M0 0 C3.2914911 -0.08857863 6.58266805 -0.1409104 9.875 -0.1875 C10.7928125 -0.21263672 11.710625 -0.23777344 12.65625 -0.26367188 C19.12356813 -0.33198862 25.0271047 0.37372157 31 3 C34.93224321 6.93224321 36.15956106 9.7234809 36.25 15.1875 C36.17436642 22.41996065 34.22577843 27.77422157 29 33 C24.57142854 35.73111045 19.92507057 37.37581034 15 39 C17.20506792 42.64781752 19.41465555 46.29287771 21.625 49.9375 C22.55119141 51.46987305 22.55119141 51.46987305 23.49609375 53.03320312 C26.84269482 58.54628804 30.25763803 63.96876806 33.94677734 69.26000977 C35 71 35 71 35 73 C33.25244141 72.87792969 33.25244141 72.87792969 31 72 C29.47585079 69.99807636 28.21970367 68.11211241 26.9609375 65.953125 C26.59400787 65.34490906 26.22707825 64.73669312 25.84902954 64.11004639 C25.07518617 62.82227902 24.30728222 61.53092655 23.54492188 60.23632812 C22.3835015 58.2644341 21.20534905 56.30341653 20.0234375 54.34375 C19.27243234 53.08914281 18.52240033 51.83395247 17.7734375 50.578125 C17.42445404 49.99460266 17.07547058 49.41108032 16.71591187 48.80987549 C14.8099826 45.56641187 13.4114975 42.52874376 12 39 C5.07 38.505 5.07 38.505 -2 38 C-1.95875 39.0725 -1.9175 40.145 -1.875 41.25 C-1.875 45.81523946 -2.61804674 50.12906791 -3.421875 54.61328125 C-4.46364517 60.7160835 -5.21153493 66.860038 -6 73 C-6.99 73 -7.98 73 -9 73 C-8.35418379 62.79983428 -7.20168828 52.68675914 -5.953125 42.54589844 C-5.62818555 39.90092998 -5.30988583 37.25522178 -4.9921875 34.609375 C-3.5853479 23.02776775 -1.89691334 11.5112256 0 0 Z " fill="#FBFBFB" transform="translate(1570,535)"/>
<path d="M0 0 C2.24790584 9.07308981 3.9044043 18.11873762 5.1875 27.375 C5.36474609 28.59316406 5.54199219 29.81132812 5.72460938 31.06640625 C6.52794341 36.75487971 7.24581584 42.25299525 7 48 C1.05956183 46.4494778 -3.58561389 43.28162697 -8.6875 40 C-18.52721967 33.77604421 -28.61704217 28.25674322 -39 23 C-39 22.34 -39 21.68 -39 21 C-40.175625 20.7834375 -40.175625 20.7834375 -41.375 20.5625 C-44 20 -44 20 -46 19 C-46 18.34 -46 17.68 -46 17 C-36.39609529 12.54495675 -26.71368526 8.57850877 -16.74609375 5.015625 C-13.18127006 3.69719803 -9.68484186 2.23073951 -6.19140625 0.734375 C-4 0 -4 0 0 0 Z " fill="#F5F5F5" transform="translate(1787,154)"/>
<path d="M0 0 C-2.31536926 42.31536926 -2.31536926 42.31536926 -7 47 C-12.47943169 46.57349289 -17.03088938 45.48968899 -22.1875 43.5 C-23.17943359 43.11884033 -23.17943359 43.11884033 -24.19140625 42.72998047 C-33.56442008 39.07562091 -42.78194769 35.02550301 -52 31 C-52 30.01 -52 29.02 -52 28 C-51.43418213 27.71503662 -50.86836426 27.43007324 -50.28540039 27.13647461 C-35.15674829 19.47745244 -20.6004984 11.16896613 -6.15698242 2.30004883 C-2.34084507 0 -2.34084507 0 0 0 Z " fill="#F6F6F6" transform="translate(1794,334)"/>
<path d="M0 0 C11.83809029 5.91904514 21.89706303 15.56411215 32 24 C33.17049158 24.97535803 34.34105577 25.95062894 35.51171875 26.92578125 C36.33285156 27.61027344 37.15398437 28.29476563 38 29 C36.6576514 32.06958372 35.27575559 33.88738927 32.68359375 35.99609375 C31.67244507 36.82536377 31.67244507 36.82536377 30.64086914 37.67138672 C29.91375732 38.2542041 29.18664551 38.83702148 28.4375 39.4375 C27.69040771 40.04352051 26.94331543 40.64954102 26.17358398 41.27392578 C20.6851714 45.70248721 15.14238105 50.06237114 9.5625 54.375 C8.83538818 54.94017334 8.10827637 55.50534668 7.35913086 56.08764648 C6.68503174 56.60270752 6.01093262 57.11776855 5.31640625 57.6484375 C4.72287354 58.10395996 4.12934082 58.55948242 3.51782227 59.02880859 C2 60 2 60 0 60 C0 40.2 0 20.4 0 0 Z " fill="#F7F7F7" transform="translate(1814,238)"/>
<path d="M0 0 C0 19.47 0 38.94 0 59 C-11.49043715 53.25478142 -21.34905055 43.67434385 -31.18701172 35.49755859 C-33.43729152 33.6387899 -35.71263803 31.81287984 -38 30 C-36.50024443 26.2878978 -34.43055631 24.46088749 -31.3125 22 C-30.33410156 21.22140625 -29.35570312 20.4428125 -28.34765625 19.640625 C-27.81285645 19.21974609 -27.27805664 18.79886719 -26.72705078 18.36523438 C-24.86903195 16.8964697 -23.02542711 15.41087912 -21.18359375 13.921875 C-19.87256721 12.86437083 -18.56137089 11.80707712 -17.25 10.75 C-16.63680908 10.255 -16.02361816 9.76 -15.3918457 9.25 C-3.8464408 0 -3.8464408 0 0 0 Z " fill="#F9F9F9" transform="translate(1627,239)"/>
<path d="M0 0 C2.38474026 0.71542208 4.76917525 1.43169505 7.15234375 2.15234375 C8.93135933 2.68189983 10.71470615 3.19735256 12.50390625 3.69140625 C18.01968637 5.24078269 23.0752467 7.29724774 28.2578125 9.734375 C32.43715602 11.66330278 36.7141806 13.32516614 41 15 C42.66714932 15.66545876 44.33394304 16.33181108 46 17 C46 17.66 46 18.32 46 19 C45.04222656 19.46148437 44.08445312 19.92296875 43.09765625 20.3984375 C28.84602807 27.34683041 15.32690063 35.37407545 2 43.95263672 C-2.78537982 47 -2.78537982 47 -5 47 C-5 47.66 -5 48.32 -5 49 C-5.66 49 -6.32 49 -7 49 C-6.5954063 37.32747174 -4.56908272 26.06421197 -2.47119141 14.60009766 C-1.86571497 11.25899712 -1.30241676 7.91276857 -0.75 4.5625 C-0.60046875 3.65628906 -0.4509375 2.75007812 -0.296875 1.81640625 C-0.19890625 1.21699219 -0.1009375 0.61757812 0 0 Z " fill="#F8F8F8" transform="translate(1654,154)"/>
<path d="M0 0 C6.07197308 3.24171689 12.07079225 6.59101358 17.99609375 10.09375 C18.60168121 10.45154541 19.20726868 10.80934082 19.83120728 11.17797852 C22.3255022 12.65363962 24.81843465 14.1315491 27.30883789 15.61376953 C35.39445326 20.4213183 43.5119765 24.92810242 52 29 C52 29.66 52 30.32 52 31 C50.91203125 31.44730469 49.8240625 31.89460938 48.703125 32.35546875 C47.99776611 32.64566895 47.29240723 32.93586914 46.56567383 33.23486328 C45.00836576 33.87551864 43.45090873 34.51581202 41.89331055 35.15576172 C37.52197499 36.9537334 33.16311086 38.77731859 28.8125 40.625 C11.12230066 48 11.12230066 48 6 48 C5.80664062 46.90042969 5.61328125 45.80085938 5.4140625 44.66796875 C5.2888623 43.95793701 5.16366211 43.24790527 5.03466797 42.51635742 C4.75873961 40.94777539 4.4843559 39.37892095 4.21142578 37.80981445 C3.64537303 34.57051259 3.07253541 31.34221835 2.390625 28.125 C0.4338164 18.87463209 0.35060335 9.42015849 0 0 Z " fill="#F9F9F9" transform="translate(1648,334)"/>
<path d="M0 0 C0.99 0 1.98 0 3 0 C3.21440231 0.51428055 3.42880463 1.0285611 3.64970398 1.5584259 C5.90296091 6.96227292 8.15868295 12.36508627 10.41577148 17.76733398 C11.25525789 19.77749216 12.09413758 21.78790384 12.93237305 23.79858398 C19.23816775 38.99905555 19.23816775 38.99905555 26 54 C36.45862185 37.98249057 36.45862185 37.98249057 46.875 21.9375 C47.31175049 21.26541504 47.74850098 20.59333008 48.19848633 19.90087891 C50.35891991 16.56992168 52.48780269 13.22405577 54.5703125 9.84375 C55.18543701 8.85580444 55.18543701 8.85580444 55.81298828 7.84790039 C56.58345905 6.60788933 57.34540127 5.36252294 58.09716797 4.11108398 C59.125 2.46484375 59.125 2.46484375 61 0 C61.99 0 62.98 0 64 0 C63.39367804 7.84828232 62.62284961 15.65650124 61.66015625 23.46875 C61.53313828 24.51091675 61.4061203 25.5530835 61.2752533 26.62683105 C61.00829576 28.81174496 60.74018153 30.99651782 60.47094727 33.18115234 C60.06355529 36.49142522 59.66143017 39.8023091 59.25976562 43.11328125 C58.99771283 45.25264302 58.73535324 47.39196724 58.47265625 49.53125 C58.3548732 50.50348511 58.23709015 51.47572021 58.11573792 52.47741699 C57.26311905 59.35250011 56.18495381 66.17462104 55 73 C54.34 73 53.68 73 53 73 C53.73221323 61.36655242 55.12659704 49.82135951 56.5 38.25 C56.84015063 35.36283242 57.17957722 32.47558039 57.5189209 29.58831787 C57.72864452 27.80621883 57.93896902 26.02419035 58.15002441 24.24224854 C58.79022816 18.83062201 59.40374628 13.41665196 60 8 C59.35675781 8.99515625 58.71351562 9.9903125 58.05078125 11.015625 C53.93704507 17.37763763 49.82199022 23.73875134 45.69140625 30.08984375 C45.14363525 30.93224609 44.59586426 31.77464844 44.03149414 32.64257812 C42.92914405 34.33615179 41.82546976 36.02886428 40.72045898 37.72070312 C38.2011229 41.58345826 35.70391482 45.45465652 33.28125 49.37890625 C32.87084473 50.03802002 32.46043945 50.69713379 32.03759766 51.3762207 C30.95190565 53.12604979 29.87784312 54.88307956 28.8046875 56.640625 C28.20914062 57.41921875 27.61359375 58.1978125 27 59 C26.01 59 25.02 59 24 59 C16.40817715 41.77063827 9.14875078 24.41651893 2 7 C1.18030118 13.50611865 0.36268161 20.01249638 -0.45361328 26.51904297 C-0.73049851 28.72417872 -1.00782869 30.92925865 -1.28564453 33.13427734 C-2.95827237 46.41264784 -4.57248985 59.69288232 -6 73 C-6.99 73 -7.98 73 -9 73 C-8.35418379 62.79983428 -7.20168828 52.68675914 -5.953125 42.54589844 C-5.62818555 39.90092998 -5.30988583 37.25522178 -4.9921875 34.609375 C-3.5853479 23.02776775 -1.89691334 11.5112256 0 0 Z " fill="#181818" transform="translate(1014,535)"/>
<path d="M0 0 C7.39241849 7.59776345 9.59559072 16.81012466 9.47509766 27.13354492 C9.24500373 37.9764117 7.14939172 46.08638363 1.25 55.3125 C0.86972656 55.910625 0.48945312 56.50875 0.09765625 57.125 C-4.58311871 63.52150386 -13.06475804 68.00991662 -20.75 69.3125 C-29.53052676 70.1558927 -36.46311643 69.56644866 -43.75 64.3125 C-49.70619457 58.8863058 -53.34303962 52.31429306 -53.89233398 44.21337891 C-54.30411034 34.01012664 -54.6186512 24.56445399 -49.75 15.3125 C-49.32589844 14.44367187 -48.90179687 13.57484375 -48.46484375 12.6796875 C-44.05553846 4.45062191 -37.40395621 -1.14724519 -28.75 -4.6875 C-17.8486475 -7.283937 -9.39807006 -5.76699754 0 0 Z M-43.91796875 9.734375 C-46.88525684 13.91008958 -48.38402903 18.41198268 -49.75 23.3125 C-49.9243457 23.93189453 -50.09869141 24.55128906 -50.27832031 25.18945312 C-51.14314017 29.08203773 -51.01884496 33.02739172 -51.0625 37 C-51.09150391 37.86044922 -51.12050781 38.72089844 -51.15039062 39.60742188 C-51.23554166 48.29937767 -48.39045074 55.42874672 -42.4296875 61.8046875 C-36.79225284 66.86526838 -31.26462008 67.98918911 -23.76953125 67.6875 C-14.71398758 66.56287879 -7.63901452 62.22618053 -1.75 55.3125 C5.8513191 43.49546003 7.36738924 31.07035505 6.25 17.3125 C4.53975899 9.83991284 0.72964769 3.21008401 -5.78515625 -1.00390625 C-20.07785911 -8.23848424 -34.17067782 -1.5225346 -43.91796875 9.734375 Z " fill="#1E1E1E" transform="translate(1266.75,539.6875)"/>
<path d="M0 0 C7.39241849 7.59776345 9.59559072 16.81012466 9.47509766 27.13354492 C9.24500373 37.9764117 7.14939172 46.08638363 1.25 55.3125 C0.86972656 55.910625 0.48945312 56.50875 0.09765625 57.125 C-4.58311871 63.52150386 -13.06475804 68.00991662 -20.75 69.3125 C-29.53052676 70.1558927 -36.46311643 69.56644866 -43.75 64.3125 C-49.70619457 58.8863058 -53.34303962 52.31429306 -53.89233398 44.21337891 C-54.30411034 34.01012664 -54.6186512 24.56445399 -49.75 15.3125 C-49.32589844 14.44367187 -48.90179687 13.57484375 -48.46484375 12.6796875 C-44.05553846 4.45062191 -37.40395621 -1.14724519 -28.75 -4.6875 C-17.8486475 -7.283937 -9.39807006 -5.76699754 0 0 Z M-43.91796875 9.734375 C-46.88525684 13.91008958 -48.38402903 18.41198268 -49.75 23.3125 C-49.9243457 23.93189453 -50.09869141 24.55128906 -50.27832031 25.18945312 C-51.14314017 29.08203773 -51.01884496 33.02739172 -51.0625 37 C-51.09150391 37.86044922 -51.12050781 38.72089844 -51.15039062 39.60742188 C-51.23554166 48.29937767 -48.39045074 55.42874672 -42.4296875 61.8046875 C-36.79225284 66.86526838 -31.26462008 67.98918911 -23.76953125 67.6875 C-14.71398758 66.56287879 -7.63901452 62.22618053 -1.75 55.3125 C5.8513191 43.49546003 7.36738924 31.07035505 6.25 17.3125 C4.53975899 9.83991284 0.72964769 3.21008401 -5.78515625 -1.00390625 C-20.07785911 -8.23848424 -34.17067782 -1.5225346 -43.91796875 9.734375 Z " fill="#1E1E1E" transform="translate(795.75,539.6875)"/>
<path d="M0 0 C3.72548963 1.24182988 3.9042787 2.14148532 5.6796875 5.5390625 C6.18983398 6.50062256 6.69998047 7.46218262 7.22558594 8.45288086 C7.76989258 9.49968018 8.31419922 10.54647949 8.875 11.625 C10.04233156 13.82785166 11.21165454 16.02964902 12.3828125 18.23046875 C12.98125977 19.35759277 13.57970703 20.4847168 14.19628906 21.64599609 C16.96335291 26.79135656 19.85248116 31.86480212 22.75 36.9375 C27.09591368 44.55505656 31.31534861 52.21813828 35.28613281 60.03881836 C36.96233649 63.64926301 36.96233649 63.64926301 40 66 C40.05498657 64.95175049 40.05498657 64.95175049 40.11108398 63.88232422 C40.91104938 50.91082107 42.54518452 38.02786602 44.0625 25.125 C44.34728905 22.68362684 44.63179662 20.24222084 44.91601562 17.80078125 C45.60743085 11.86680467 46.30232543 5.93324373 47 0 C47.99 0 48.98 0 50 0 C49.38436549 9.96261448 48.40942538 19.84513595 47.1875 29.75 C47.05885559 30.80669388 47.05885559 30.80669388 46.9276123 31.88473511 C45.24944243 45.63709325 43.22918342 59.32564414 41 73 C40.34 73 39.68 73 39 73 C31.45061219 59.5687383 23.94032928 46.11696396 16.5 32.625 C16.16774414 32.02265533 15.83548828 31.42031067 15.49316406 30.79971313 C11.30820683 23.21097859 7.14252249 15.61198151 3 8 C1.42286884 12.31221833 0.56556199 16.33402789 0.03515625 20.890625 C-0.04277664 21.54501053 -0.12070953 22.19939606 -0.20100403 22.87361145 C-0.4525466 24.9984146 -0.69512348 27.12413358 -0.9375 29.25 C-1.10980747 30.72068559 -1.28266434 32.19130692 -1.45605469 33.66186523 C-1.89367619 37.38668869 -2.32378806 41.11233397 -2.75140381 44.83831787 C-3.13933947 48.21163417 -3.53286956 51.58429093 -3.92578125 54.95703125 C-4.62456565 60.97051954 -5.31579579 66.984836 -6 73 C-6.99 73 -7.98 73 -9 73 C-8.35265664 63.41931835 -7.35884592 53.90456784 -6.1875 44.375 C-6.10173706 43.66965118 -6.01597412 42.96430237 -5.9276123 42.23757935 C-4.20728055 28.11906984 -2.18357242 14.05455332 0 0 Z " fill="#171717" transform="translate(1150,535)"/>
<path d="M0 0 C3.72548963 1.24182988 3.9042787 2.14148532 5.6796875 5.5390625 C6.18983398 6.50062256 6.69998047 7.46218262 7.22558594 8.45288086 C7.76989258 9.49968018 8.31419922 10.54647949 8.875 11.625 C10.04233156 13.82785166 11.21165454 16.02964902 12.3828125 18.23046875 C12.98125977 19.35759277 13.57970703 20.4847168 14.19628906 21.64599609 C16.96335291 26.79135656 19.85248116 31.86480212 22.75 36.9375 C27.09591368 44.55505656 31.31534861 52.21813828 35.28613281 60.03881836 C36.96233649 63.64926301 36.96233649 63.64926301 40 66 C40.05498657 64.95175049 40.05498657 64.95175049 40.11108398 63.88232422 C40.91104938 50.91082107 42.54518452 38.02786602 44.0625 25.125 C44.34728905 22.68362684 44.63179662 20.24222084 44.91601562 17.80078125 C45.60743085 11.86680467 46.30232543 5.93324373 47 0 C47.99 0 48.98 0 50 0 C49.38436549 9.96261448 48.40942538 19.84513595 47.1875 29.75 C47.05885559 30.80669388 47.05885559 30.80669388 46.9276123 31.88473511 C45.24944243 45.63709325 43.22918342 59.32564414 41 73 C40.34 73 39.68 73 39 73 C31.45061219 59.5687383 23.94032928 46.11696396 16.5 32.625 C16.16774414 32.02265533 15.83548828 31.42031067 15.49316406 30.79971313 C11.30820683 23.21097859 7.14252249 15.61198151 3 8 C1.42286884 12.31221833 0.56556199 16.33402789 0.03515625 20.890625 C-0.04277664 21.54501053 -0.12070953 22.19939606 -0.20100403 22.87361145 C-0.4525466 24.9984146 -0.69512348 27.12413358 -0.9375 29.25 C-1.10980747 30.72068559 -1.28266434 32.19130692 -1.45605469 33.66186523 C-1.89367619 37.38668869 -2.32378806 41.11233397 -2.75140381 44.83831787 C-3.13933947 48.21163417 -3.53286956 51.58429093 -3.92578125 54.95703125 C-4.62456565 60.97051954 -5.31579579 66.984836 -6 73 C-6.99 73 -7.98 73 -9 73 C-8.35265664 63.41931835 -7.35884592 53.90456784 -6.1875 44.375 C-6.10173706 43.66965118 -6.01597412 42.96430237 -5.9276123 42.23757935 C-4.20728055 28.11906984 -2.18357242 14.05455332 0 0 Z " fill="#171717" transform="translate(679,535)"/>
<path d="M0 0 C3.2914911 -0.08857863 6.58266805 -0.1409104 9.875 -0.1875 C10.7928125 -0.21263672 11.710625 -0.23777344 12.65625 -0.26367188 C19.12356813 -0.33198862 25.0271047 0.37372157 31 3 C34.93224321 6.93224321 36.15956106 9.7234809 36.25 15.1875 C36.17436642 22.41996065 34.22577843 27.77422157 29 33 C24.57142854 35.73111045 19.92507057 37.37581034 15 39 C17.20506792 42.64781752 19.41465555 46.29287771 21.625 49.9375 C22.55119141 51.46987305 22.55119141 51.46987305 23.49609375 53.03320312 C26.84269482 58.54628804 30.25763803 63.96876806 33.94677734 69.26000977 C35 71 35 71 35 73 C33.25244141 72.87792969 33.25244141 72.87792969 31 72 C29.47585079 69.99807636 28.21970367 68.11211241 26.9609375 65.953125 C26.59400787 65.34490906 26.22707825 64.73669312 25.84902954 64.11004639 C25.07518617 62.82227902 24.30728222 61.53092655 23.54492188 60.23632812 C22.3835015 58.2644341 21.20534905 56.30341653 20.0234375 54.34375 C19.27243234 53.08914281 18.52240033 51.83395247 17.7734375 50.578125 C17.42445404 49.99460266 17.07547058 49.41108032 16.71591187 48.80987549 C14.8099826 45.56641187 13.4114975 42.52874376 12 39 C5.07 38.505 5.07 38.505 -2 38 C-1.95875 39.0725 -1.9175 40.145 -1.875 41.25 C-1.875 45.81523946 -2.61804674 50.12906791 -3.421875 54.61328125 C-4.46364517 60.7160835 -5.21153493 66.860038 -6 73 C-6.99 73 -7.98 73 -9 73 C-8.35418379 62.79983428 -7.20168828 52.68675914 -5.953125 42.54589844 C-5.62818555 39.90092998 -5.30988583 37.25522178 -4.9921875 34.609375 C-3.5853479 23.02776775 -1.89691334 11.5112256 0 0 Z M2 2 C1.49233064 6.16576916 0.99525277 10.33273792 0.5 14.5 C0.35691406 15.67304687 0.21382812 16.84609375 0.06640625 18.0546875 C-0.64467172 24.08191981 -1.18026954 29.93092562 -1 36 C14.00750586 37.13878123 14.00750586 37.13878123 27.0546875 31.125 C32.47351108 25.20564251 33.3694768 20.84837713 33.2734375 12.88671875 C33.16559816 9.86002359 33.16559816 9.86002359 31.4375 6.9375 C25.08825284 1.89066251 19.38992118 1.5927236 11.5625 1.8125 C10.17901367 1.83280273 10.17901367 1.83280273 8.76757812 1.85351562 C6.51109617 1.88859047 4.25586774 1.93773613 2 2 Z " fill="#171717" transform="translate(1570,535)"/>
<path d="M0 0 C0.99 0 1.98 0 3 0 C2.47058981 6.47577376 1.79455913 12.92771555 1.02734375 19.37890625 C0.93949615 20.12216156 0.85164856 20.86541687 0.76113892 21.63119507 C0.39553731 24.71996648 0.02906638 27.80859561 -0.34594727 30.89624023 C-3.18965327 48.54084424 -3.18965327 48.54084424 2 65 C6.0131989 68.91286893 9.97491054 71.2810643 15.625 71.4375 C22.37106243 71.26835094 27.99165103 68.91334847 32.85546875 64.203125 C38.5499828 57.17286074 40.31995327 48.75438979 41.3515625 39.94140625 C41.45592621 39.11221176 41.56028992 38.28301727 41.66781616 37.42869568 C41.99548437 34.80761206 42.31032778 32.18517193 42.625 29.5625 C42.8429332 27.80914307 43.0616771 26.05588672 43.28125 24.30273438 C44.28758848 16.21098077 45.24429791 8.11959913 46 0 C46.99 0 47.98 0 49 0 C49.09239663 6.10499356 48.80604823 11.96924024 48.046875 18.0234375 C47.94538147 18.85026031 47.84388794 19.67708313 47.73931885 20.52896118 C47.52371892 22.26545175 47.30507279 24.00156663 47.08349609 25.73730469 C46.75191258 28.35987295 46.44007884 30.98431717 46.12890625 33.609375 C44.52181545 46.62842448 42.60743539 59.38348832 32.26953125 68.53125 C25.41140986 73.73918324 18.49317988 74.94234428 10 74 C3.30293779 72.18501573 -0.61268267 67.89437786 -4 62 C-8.00790057 52.16242587 -5.6976908 41.04656222 -4.40087891 30.80566406 C-4.1264971 28.63683371 -3.86131563 26.46703228 -3.59765625 24.296875 C-2.59713189 16.16266059 -1.43489059 8.07053536 0 0 Z " fill="#212121" transform="translate(1500,535)"/>
<path d="M0 0 C0.99 0 1.98 0 3 0 C2.47058981 6.47577376 1.79455913 12.92771555 1.02734375 19.37890625 C0.93949615 20.12216156 0.85164856 20.86541687 0.76113892 21.63119507 C0.39553731 24.71996648 0.02906638 27.80859561 -0.34594727 30.89624023 C-3.18965327 48.54084424 -3.18965327 48.54084424 2 65 C6.0131989 68.91286893 9.97491054 71.2810643 15.625 71.4375 C22.37106243 71.26835094 27.99165103 68.91334847 32.85546875 64.203125 C38.5499828 57.17286074 40.31995327 48.75438979 41.3515625 39.94140625 C41.45592621 39.11221176 41.56028992 38.28301727 41.66781616 37.42869568 C41.99548437 34.80761206 42.31032778 32.18517193 42.625 29.5625 C42.8429332 27.80914307 43.0616771 26.05588672 43.28125 24.30273438 C44.28758848 16.21098077 45.24429791 8.11959913 46 0 C46.99 0 47.98 0 49 0 C49.09239663 6.10499356 48.80604823 11.96924024 48.046875 18.0234375 C47.94538147 18.85026031 47.84388794 19.67708313 47.73931885 20.52896118 C47.52371892 22.26545175 47.30507279 24.00156663 47.08349609 25.73730469 C46.75191258 28.35987295 46.44007884 30.98431717 46.12890625 33.609375 C44.52181545 46.62842448 42.60743539 59.38348832 32.26953125 68.53125 C25.41140986 73.73918324 18.49317988 74.94234428 10 74 C3.30293779 72.18501573 -0.61268267 67.89437786 -4 62 C-8.00790057 52.16242587 -5.6976908 41.04656222 -4.40087891 30.80566406 C-4.1264971 28.63683371 -3.86131563 26.46703228 -3.59765625 24.296875 C-2.59713189 16.16266059 -1.43489059 8.07053536 0 0 Z " fill="#212121" transform="translate(1377,535)"/>
<path d="M0 0 C12.87 0 25.74 0 39 0 C39 0.66 39 1.32 39 2 C26.79 2 14.58 2 2 2 C1.67 6.95 1.34 11.9 1 17 C0.67104599 20.32075476 0.33050087 23.62572848 -0.0625 26.9375 C-0.371875 29.598125 -0.68125 32.25875 -1 35 C8.9 35 18.8 35 29 35 C29 35.66 29 36.32 29 37 C18.77 37 8.54 37 -2 37 C-2.33 41.29 -2.66 45.58 -3 50 C-3.31733267 53.39893037 -3.64471169 56.79283121 -4 60.1875 C-4.0825 61.01830078 -4.165 61.84910156 -4.25 62.70507812 C-4.88078109 68.76156218 -4.88078109 68.76156218 -6 71 C6.21 71 18.42 71 31 71 C31 71.66 31 72.32 31 73 C17.8 73 4.6 73 -9 73 C-7.87235927 58.34067046 -7.87235927 58.34067046 -7.16796875 52.4609375 C-7.01102539 51.1505249 -6.85408203 49.8401123 -6.69238281 48.48999023 C-6.52439675 47.11828904 -6.3560962 45.74662633 -6.1875 44.375 C-6.10173706 43.66965118 -6.01597412 42.96430237 -5.9276123 42.23757935 C-4.2069061 28.11599682 -2.1517699 14.06335324 0 0 Z " fill="#0D0D0D" transform="translate(1627,535)"/>
<path d="M0 0 C12.87 0 25.74 0 39 0 C39 0.66 39 1.32 39 2 C26.79 2 14.58 2 2 2 C1.67 6.95 1.34 11.9 1 17 C0.67104599 20.32075476 0.33050087 23.62572848 -0.0625 26.9375 C-0.371875 29.598125 -0.68125 32.25875 -1 35 C8.9 35 18.8 35 29 35 C29 35.66 29 36.32 29 37 C18.77 37 8.54 37 -2 37 C-2.33 41.29 -2.66 45.58 -3 50 C-3.31733267 53.39893037 -3.64471169 56.79283121 -4 60.1875 C-4.0825 61.01830078 -4.165 61.84910156 -4.25 62.70507812 C-4.88078109 68.76156218 -4.88078109 68.76156218 -6 71 C6.21 71 18.42 71 31 71 C31 71.66 31 72.32 31 73 C17.8 73 4.6 73 -9 73 C-7.87235927 58.34067046 -7.87235927 58.34067046 -7.16796875 52.4609375 C-7.01102539 51.1505249 -6.85408203 49.8401123 -6.69238281 48.48999023 C-6.52439675 47.11828904 -6.3560962 45.74662633 -6.1875 44.375 C-6.10173706 43.66965118 -6.01597412 42.96430237 -5.9276123 42.23757935 C-4.2069061 28.11599682 -2.1517699 14.06335324 0 0 Z " fill="#0D0D0D" transform="translate(958,535)"/>
<path d="M0 0 C3.02008556 1.58224857 4.11535118 3.1189411 5.4375 6.25 C1.42655773 6.25 -0.30578725 4.48899001 -3.5625 2.25 C-8.70423399 0.53608867 -12.96964967 0.55876306 -17.875 2.6875 C-18.761875 3.203125 -19.64875 3.71875 -20.5625 4.25 C-21.5525 4.58 -22.5425 4.91 -23.5625 5.25 C-24.73203416 7.67383077 -24.73203416 7.67383077 -25.5625 10.25 C-25.8925 10.91 -26.2225 11.57 -26.5625 12.25 C-26.73591267 14.01539781 -26.8294075 15.78919159 -26.875 17.5625 C-26.91238281 18.50738281 -26.94976563 19.45226562 -26.98828125 20.42578125 C-26.41465617 24.2306522 -25.36987669 25.60699976 -22.5625 28.25 C-18.9492409 30.18414823 -15.11840547 31.58111587 -11.29296875 33.03515625 C-4.98922591 35.60490167 -0.6516947 39.0716106 2.4375 45.25 C3.5196871 53.64138525 0.79904418 59.67394738 -3.75 66.5625 C-9.05309971 71.62990639 -14.31569187 73.47313227 -21.625 73.75 C-28.13347283 73.51755454 -32.99717175 71.89549476 -37.5625 67.1875 C-38.5625 65.25 -38.5625 65.25 -38.5625 62.25 C-35.5625 63.25 -35.5625 63.25 -33.25 65.6875 C-29.31530978 69.43918137 -26.13042742 70.06707513 -20.8125 70.6875 C-15.40050016 70.50052112 -10.89184361 68.42089146 -6.5625 65.25 C-1.9060166 60.05182278 -1.00604947 54.63783609 -0.99609375 47.828125 C-1.77672025 44.27492852 -2.92477936 42.77713297 -5.5625 40.25 C-8.40730624 38.73505763 -11.37312572 37.60199402 -14.375 36.4375 C-27.75548471 30.80746727 -27.75548471 30.80746727 -30.5625 24.25 C-31.78556171 18.15254639 -31.07900385 12.4501196 -27.97265625 7.0390625 C-21.15308556 -1.61291361 -10.15942774 -4.74478768 0 0 Z " fill="#1A1A1A" transform="translate(878.5625,535.75)"/>
<path d="M0 0 C12.87 0 25.74 0 39 0 C39 0.66 39 1.32 39 2 C26.79 2 14.58 2 2 2 C1.67 6.95 1.34 11.9 1 17 C0.66817426 20.48538131 0.32506243 23.95926643 -0.0625 27.4375 C-0.371875 30.263125 -0.68125 33.08875 -1 36 C9.23 36 19.46 36 30 36 C30 36.66 30 37.32 30 38 C19.44 38 8.88 38 -2 38 C-2 40.64 -2 43.28 -2 46 C-2.23747226 47.86188356 -2.52601751 49.71826176 -2.875 51.5625 C-4.15115328 58.68161225 -5.07893803 65.82747486 -6 73 C-6.99 73 -7.98 73 -9 73 C-8.35418379 62.79983428 -7.20168828 52.68675914 -5.953125 42.54589844 C-5.62818555 39.90092998 -5.30988583 37.25522178 -4.9921875 34.609375 C-4.77904826 32.86193003 -4.5655185 31.11453265 -4.3515625 29.3671875 C-4.26081451 28.60920868 -4.17006653 27.85122986 -4.0765686 27.07028198 C-2.94926605 18.00217429 -1.42776272 9.04249721 0 0 Z " fill="#030303" transform="translate(1324,535)"/>
<path d="M0 0 C17.16 0 34.32 0 52 0 C52 0.66 52 1.32 52 2 C43.75 2 35.5 2 27 2 C26.86859619 4.02463379 26.73719238 6.04926758 26.60180664 8.13525391 C26.08137116 15.40264759 25.28153025 22.60840465 24.37109375 29.8359375 C24.21713638 31.0813028 24.06317902 32.32666809 23.90455627 33.60977173 C23.41890573 37.53194134 22.92829464 41.45347112 22.4375 45.375 C22.10408066 48.05720041 21.77175329 50.73953573 21.43945312 53.421875 C20.63008112 59.94839096 19.81665127 66.4743911 19 73 C18.01 73 17.02 73 16 73 C17.02561621 59.62650445 18.37107841 46.31190082 20 33 C20.08358765 32.31551788 20.16717529 31.63103577 20.2532959 30.92581177 C21.43608281 21.27482001 22.70282293 11.63617249 24 2 C16.08 2 8.16 2 0 2 C0 1.34 0 0.68 0 0 Z " fill="#131313" transform="translate(1437,535)"/>
<path d="M0 0 C17.16 0 34.32 0 52 0 C52 0.66 52 1.32 52 2 C43.75 2 35.5 2 27 2 C26.86859619 4.02463379 26.73719238 6.04926758 26.60180664 8.13525391 C26.08137116 15.40264759 25.28153025 22.60840465 24.37109375 29.8359375 C24.21713638 31.0813028 24.06317902 32.32666809 23.90455627 33.60977173 C23.41890573 37.53194134 22.92829464 41.45347112 22.4375 45.375 C22.10408066 48.05720041 21.77175329 50.73953573 21.43945312 53.421875 C20.63008112 59.94839096 19.81665127 66.4743911 19 73 C18.01 73 17.02 73 16 73 C17.02561621 59.62650445 18.37107841 46.31190082 20 33 C20.08358765 32.31551788 20.16717529 31.63103577 20.2532959 30.92581177 C21.43608281 21.27482001 22.70282293 11.63617249 24 2 C16.08 2 8.16 2 0 2 C0 1.34 0 0.68 0 0 Z " fill="#131313" transform="translate(894,535)"/>
<path d="M0 0 C0.99 0 1.98 0 3 0 C1.68852648 13.78252936 0.12517287 27.51670714 -1.625 41.25 C-1.85700674 43.0859077 -2.08877843 44.92184513 -2.3203125 46.7578125 C-2.87751764 51.17222 -3.43783749 55.58622119 -4 60 C-4.99 60 -5.98 60 -7 60 C-6.35170415 49.5583245 -5.13031503 39.21038555 -3.84326172 28.83178711 C-3.4976884 26.04385098 -3.15670966 23.2553807 -2.81640625 20.46679688 C-2.5966197 18.6770507 -2.37657687 16.88733598 -2.15625 15.09765625 C-2.05517944 14.27258072 -1.95410889 13.44750519 -1.84997559 12.59742737 C-1.32541931 8.37912062 -0.73674111 4.18790225 0 0 Z " fill="#0B0B0B" transform="translate(1012,548)"/>
<path d="M0 0 C6.48710687 -0.69011775 10.79888273 1.0967936 16 5 C23.30936099 12.29350554 25.23411409 20.22721848 25.25 30.3125 C25.21896958 38.17597447 25.21896958 38.17597447 24 42 C23.34 42 22.68 42 22 42 C21.98598145 41.16976318 21.98598145 41.16976318 21.97167969 40.32275391 C21.90429595 22.60961822 21.90429595 22.60961822 13.76953125 7.31640625 C9.70005823 4.28900579 4.73557878 2.70692313 0 1 C0 0.67 0 0.34 0 0 Z " fill="#131313" transform="translate(1251,535)"/>
<path d="M0 0 C6.48710687 -0.69011775 10.79888273 1.0967936 16 5 C23.30936099 12.29350554 25.23411409 20.22721848 25.25 30.3125 C25.21896958 38.17597447 25.21896958 38.17597447 24 42 C23.34 42 22.68 42 22 42 C21.98598145 41.16976318 21.98598145 41.16976318 21.97167969 40.32275391 C21.90429595 22.60961822 21.90429595 22.60961822 13.76953125 7.31640625 C9.70005823 4.28900579 4.73557878 2.70692313 0 1 C0 0.67 0 0.34 0 0 Z " fill="#131313" transform="translate(780,535)"/>
<path d="M0 0 C0.495 1.98 0.495 1.98 1 4 C1.66 4 2.32 4 3 4 C2.59865677 13.03022271 -2.61954175 21.76455217 -9 28 C-18.87533495 34.99362458 -27.05764728 36.32325165 -39 36 C-39 35.67 -39 35.34 -39 35 C-37.88882812 34.85304688 -36.77765625 34.70609375 -35.6328125 34.5546875 C-24.24368543 32.89967095 -14.64187796 30.43805466 -7.2421875 20.90625 C-3.00195292 14.39922335 -1.20708569 7.60781637 0 0 Z " fill="#1E1E1E" transform="translate(1272,573)"/>
<path d="M0 0 C0.495 1.98 0.495 1.98 1 4 C1.66 4 2.32 4 3 4 C2.59865677 13.03022271 -2.61954175 21.76455217 -9 28 C-18.87533495 34.99362458 -27.05764728 36.32325165 -39 36 C-39 35.67 -39 35.34 -39 35 C-37.88882813 34.85304688 -36.77765625 34.70609375 -35.6328125 34.5546875 C-24.24368543 32.89967095 -14.64187796 30.43805466 -7.2421875 20.90625 C-3.00195292 14.39922335 -1.20708569 7.60781637 0 0 Z " fill="#1E1E1E" transform="translate(801,573)"/>
<path d="M0 0 C0.99 0 1.98 0 3 0 C4.85594207 4.37634785 6.70723236 8.75462235 8.55419922 13.13476562 C9.18345026 14.62521672 9.81397934 16.1151289 10.44580078 17.60449219 C11.35263534 19.74274259 12.25488789 21.88287552 13.15625 24.0234375 C13.44060913 24.69120209 13.72496826 25.35896667 14.01794434 26.04696655 C16 30.77225659 16 30.77225659 16 33 C15.01 33 14.02 33 13 33 C9.37 24.42 5.74 15.84 2 7 C1.34 9.64 0.68 12.28 0 15 C-0.33 15 -0.66 15 -1 15 C-1.18451025 4.44191344 -1.18451025 4.44191344 0 0 Z " fill="#131313" transform="translate(1014,535)"/>
<path d="M0 0 C0.99 0 1.98 0 3 0 C3.10464246 6.05095048 2.78898954 11.77310198 1.90625 17.75390625 C1.73977966 18.93339088 1.73977966 18.93339088 1.56994629 20.13670349 C1.21912125 22.6128408 0.8597248 25.08764166 0.5 27.5625 C0.258543 29.25577797 0.01765254 30.94913682 -0.22265625 32.64257812 C-0.80856884 36.76268145 -1.40216415 40.88161059 -2 45 C-2.66 45 -3.32 45 -4 45 C-4.30681533 35.50790071 -3.13223689 26.27864533 -2 16.875 C-1.80676374 15.2344371 -1.61405114 13.59381242 -1.421875 11.953125 C-0.95395126 7.96801215 -0.47894794 3.98380231 0 0 Z " fill="#090909" transform="translate(1546,535)"/>
<path d="M0 0 C0.99 0 1.98 0 3 0 C3.10464246 6.05095048 2.78898954 11.77310198 1.90625 17.75390625 C1.73977966 18.93339088 1.73977966 18.93339088 1.56994629 20.13670349 C1.21912125 22.6128408 0.8597248 25.08764166 0.5 27.5625 C0.258543 29.25577797 0.01765254 30.94913682 -0.22265625 32.64257812 C-0.80856884 36.76268145 -1.40216415 40.88161059 -2 45 C-2.66 45 -3.32 45 -4 45 C-4.30681533 35.50790071 -3.13223689 26.27864533 -2 16.875 C-1.80676374 15.2344371 -1.61405114 13.59381242 -1.421875 11.953125 C-0.95395126 7.96801215 -0.47894794 3.98380231 0 0 Z " fill="#090909" transform="translate(1423,535)"/>
<path d="M0 0 C1.8866883 1.53204764 2.62159401 3.04666044 3.55859375 5.265625 C-0.45234852 5.265625 -2.1846935 3.50461501 -5.44140625 1.265625 C-10.58314024 -0.44828633 -14.84855592 -0.42561194 -19.75390625 1.703125 C-20.64078125 2.21875 -21.52765625 2.734375 -22.44140625 3.265625 C-23.43140625 3.595625 -24.42140625 3.925625 -25.44140625 4.265625 C-26.61094041 6.68945577 -26.61094041 6.68945577 -27.44140625 9.265625 C-27.77140625 9.925625 -28.10140625 10.585625 -28.44140625 11.265625 C-28.66608456 12.80231365 -28.8493743 14.34530554 -29.00390625 15.890625 C-29.08769531 16.70789063 -29.17148437 17.52515625 -29.2578125 18.3671875 C-29.31839844 18.99367188 -29.37898437 19.62015625 -29.44140625 20.265625 C-30.9375 18.99609375 -30.9375 18.99609375 -32.44140625 17.265625 C-32.54269297 11.28970827 -31.03998495 7.6171131 -27.23046875 3.03125 C-19.64867566 -4.45121829 -9.20306909 -4.82156634 0 0 Z " fill="#1D1D1D" transform="translate(880.44140625,536.734375)"/>
<path d="M0 0 C0.33 0 0.66 0 1 0 C1.09796875 1.05058594 1.1959375 2.10117187 1.296875 3.18359375 C2.39876283 13.92604025 3.97576293 23.15813196 12 31 C16.07985403 33.58722451 20.17087332 35.39635917 25 36 C25 36.33 25 36.66 25 37 C18.31406773 37.63675545 14.5083517 36.93145301 9.078125 32.90625 C3.80192469 28.06642716 0.16205053 22.08850825 -1 15 C-1.19238353 10.32560027 -1.26930712 5.67216544 -1 1 C-0.67 0.67 -0.34 0.34 0 0 Z " fill="#1A1A1A" transform="translate(1214,571)"/>
<path d="M0 0 C0.33 0 0.66 0 1 0 C1.09796875 1.05058594 1.1959375 2.10117187 1.296875 3.18359375 C2.39876283 13.92604025 3.97576293 23.15813196 12 31 C16.07985403 33.58722451 20.17087332 35.39635917 25 36 C25 36.33 25 36.66 25 37 C18.31406773 37.63675545 14.5083517 36.93145301 9.078125 32.90625 C3.80192469 28.06642716 0.16205053 22.08850825 -1 15 C-1.19238353 10.32560027 -1.26930712 5.67216544 -1 1 C-0.67 0.67 -0.34 0.34 0 0 Z " fill="#1A1A1A" transform="translate(743,571)"/>
<path d="M0 0 C0.99 0 1.98 0 3 0 C2.37246634 10.52035554 1.24694976 20.9223949 -0.0625 31.375 C-0.25097741 32.90100139 -0.43913015 34.42704292 -0.62695312 35.953125 C-1.08090984 39.63588493 -1.53920076 43.31808919 -2 47 C-2.99 47 -3.98 47 -5 47 C-4.37246634 36.47964446 -3.24694976 26.0776051 -1.9375 15.625 C-1.74902259 14.09899861 -1.56086985 12.57295708 -1.37304688 11.046875 C-0.91909016 7.36411507 -0.46079924 3.68191081 0 0 Z " fill="#191919" transform="translate(1197,535)"/>
<path d="M0 0 C0.99 0 1.98 0 3 0 C2.37246634 10.52035554 1.24694976 20.9223949 -0.0625 31.375 C-0.25097741 32.90100139 -0.43913015 34.42704292 -0.62695312 35.953125 C-1.08090984 39.63588493 -1.53920076 43.31808919 -2 47 C-2.99 47 -3.98 47 -5 47 C-4.37246634 36.47964446 -3.24694976 26.0776051 -1.9375 15.625 C-1.74902259 14.09899861 -1.56086985 12.57295708 -1.37304688 11.046875 C-0.91909016 7.36411507 -0.46079924 3.68191081 0 0 Z " fill="#191919" transform="translate(726,535)"/>
<path d="M0 0 C17.16 0 34.32 0 52 0 C52 0.66 52 1.32 52 2 C43.75 2 35.5 2 27 2 C27 3.65 27 5.3 27 7 C26.01 6.67 25.02 6.34 24 6 C24 4.68 24 3.36 24 2 C16.08 2 8.16 2 0 2 C0 1.34 0 0.68 0 0 Z " fill="#040404" transform="translate(1437,535)"/>
<path d="M0 0 C17.16 0 34.32 0 52 0 C52 0.66 52 1.32 52 2 C43.75 2 35.5 2 27 2 C27 3.65 27 5.3 27 7 C26.01 6.67 25.02 6.34 24 6 C24 4.68 24 3.36 24 2 C16.08 2 8.16 2 0 2 C0 1.34 0 0.68 0 0 Z " fill="#040404" transform="translate(894,535)"/>
<path d="M0 0 C0.99 0 1.98 0 3 0 C2.29520282 8.93880499 1.14796032 17.80618576 -0.0625 26.6875 C-0.25086757 28.08265307 -0.43901999 29.47783521 -0.62695312 30.87304688 C-1.08253003 34.24898857 -1.54025868 37.62462335 -2 41 C-2.66 41 -3.32 41 -4 41 C-4.23942288 32.94752598 -3.49637195 25.11720642 -2.5625 17.125 C-2.42779297 15.91585937 -2.29308594 14.70671875 -2.15429688 13.4609375 C-1.0520829 3.78296117 -1.0520829 3.78296117 0 0 Z " fill="#131313" transform="translate(1500,535)"/>
<path d="M0 0 C0.99 0 1.98 0 3 0 C2.29520282 8.93880499 1.14796032 17.80618576 -0.0625 26.6875 C-0.25086757 28.08265307 -0.43901999 29.47783521 -0.62695312 30.87304688 C-1.08253003 34.24898857 -1.54025868 37.62462335 -2 41 C-2.66 41 -3.32 41 -4 41 C-4.23942288 32.94752598 -3.49637195 25.11720642 -2.5625 17.125 C-2.42779297 15.91585937 -2.29308594 14.70671875 -2.15429688 13.4609375 C-1.0520829 3.78296117 -1.0520829 3.78296117 0 0 Z " fill="#131313" transform="translate(1377,535)"/>
<path d="M0 0 C0.33 0 0.66 0 1 0 C1 1.65 1 3.3 1 5 C1.66 5 2.32 5 3 5 C3.24415905 10.37149919 2.51729036 15.29196568 1.578125 20.578125 C0.54482825 26.69412468 -0.21004863 32.84846381 -1 39 C-1.99 39 -2.98 39 -4 39 C-3.37688115 30.03024599 -2.50068334 21.11518788 -1.4375 12.1875 C-1.29892578 11.00607422 -1.16035156 9.82464844 -1.01757812 8.60742188 C-0.6806827 5.73800226 -0.34146436 2.86887885 0 0 Z " fill="#080808" transform="translate(1319,569)"/>
<path d="M0 0 C12.87 0 25.74 0 39 0 C39 0.66 39 1.32 39 2 C26.79 2 14.58 2 2 2 C2 3.65 2 5.3 2 7 C1.34 7 0.68 7 0 7 C0 4.69 0 2.38 0 0 Z " fill="#000000" transform="translate(1627,535)"/>
<path d="M0 0 C12.87 0 25.74 0 39 0 C39 0.66 39 1.32 39 2 C26.79 2 14.58 2 2 2 C2 3.65 2 5.3 2 7 C1.34 7 0.68 7 0 7 C0 4.69 0 2.38 0 0 Z " fill="#000000" transform="translate(958,535)"/>
<path d="M0 0 C3.4585388 -0.05375967 6.91624908 -0.09355681 10.375 -0.125 C11.35984375 -0.14175781 12.3446875 -0.15851562 13.359375 -0.17578125 C14.77089844 -0.18544922 14.77089844 -0.18544922 16.2109375 -0.1953125 C17.51490479 -0.21102295 17.51490479 -0.21102295 18.84521484 -0.22705078 C21 0 21 0 23 2 C16.07 2 9.14 2 2 2 C1.67 7.28 1.34 12.56 1 18 C0.01 17.67 -0.98 17.34 -2 17 C-1.34 11.39 -0.68 5.78 0 0 Z " fill="#080808" transform="translate(1570,535)"/>
<path d="M0 0 C0.33 1.32 0.66 2.64 1 4 C11.56 4 22.12 4 33 4 C33 4.66 33 5.32 33 6 C21.78 6.33 10.56 6.66 -1 7 C-1 1 -1 1 0 0 Z " fill="#000000" transform="translate(1321,567)"/>
<path d="M0 0 C0.33 0.66 0.66 1.32 1 2 C1.66 2 2.32 2 3 2 C2.01 11.24 1.02 20.48 0 30 C-0.99 29.34 -1.98 28.68 -3 28 C-2.45462284 18.55636393 -1.46291615 9.34561968 0 0 Z " fill="#0E0E0E" transform="translate(1626,540)"/>
<path d="M0 0 C0.33 0.66 0.66 1.32 1 2 C1.66 2 2.32 2 3 2 C2.01 11.24 1.02 20.48 0 30 C-0.99 29.34 -1.98 28.68 -3 28 C-2.45462284 18.55636393 -1.46291615 9.34561968 0 0 Z " fill="#0E0E0E" transform="translate(957,540)"/>
<path d="M0 0 C0.33 0.99 0.66 1.98 1 3 C11.23 3 21.46 3 32 3 C32 3.66 32 4.32 32 5 C21.77 5 11.54 5 1 5 C1 5.66 1 6.32 1 7 C0.34 7 -0.32 7 -1 7 C-1.04254356 5.00045254 -1.04080783 2.99958364 -1 1 C-0.67 0.67 -0.34 0.34 0 0 Z " fill="#000000" transform="translate(1624,567)"/>
<path d="M0 0 C0.33 0.99 0.66 1.98 1 3 C11.23 3 21.46 3 32 3 C32 3.66 32 4.32 32 5 C21.77 5 11.54 5 1 5 C1 5.66 1 6.32 1 7 C0.34 7 -0.32 7 -1 7 C-1.04254356 5.00045254 -1.04080783 2.99958364 -1 1 C-0.67 0.67 -0.34 0.34 0 0 Z " fill="#000000" transform="translate(955,567)"/>
<path d="M0 0 C0.99 0 1.98 0 3 0 C2.69083423 3.20866368 2.37706711 6.41686171 2.0625 9.625 C1.97548828 10.52863281 1.88847656 11.43226563 1.79882812 12.36328125 C1.34748614 16.94356654 0.8352958 21.4698372 0 26 C-0.99 26.33 -1.98 26.66 -3 27 C-2.4262611 17.91076799 -1.38949558 8.99799566 0 0 Z " fill="#232323" transform="translate(1012,548)"/>
<path d="M0 0 C4.86831281 0.45286631 7.48559226 1.58321469 11 5 C13.10038512 8.29543183 13.21702307 10.88503097 13.125 14.75 C13.10695313 15.73484375 13.08890625 16.7196875 13.0703125 17.734375 C13.03550781 18.85585938 13.03550781 18.85585938 13 20 C12.01 20.33 11.02 20.66 10 21 C9.98582031 20.19175781 9.97164062 19.38351562 9.95703125 18.55078125 C9.74317302 11.77684863 9.74317302 11.77684863 6.75 5.875 C4.19597223 4.13361743 1.94297021 2.92493349 -1 2 C-0.67 1.34 -0.34 0.68 0 0 Z " fill="#1E1E1E" transform="translate(1593,536)"/>
<path d="M0 0 C1.32 0.33 2.64 0.66 4 1 C3.69320313 2.11375 3.38640625 3.2275 3.0703125 4.375 C1.86069916 9.21345338 1.33951546 14.0426301 0.875 19 C0.78863281 19.87011719 0.70226563 20.74023438 0.61328125 21.63671875 C0.40355393 23.75729499 0.20102158 25.87858079 0 28 C-0.99 28 -1.98 28 -3 28 C-2.45462284 18.55636393 -1.46291615 9.34561968 0 0 Z " fill="#272727" transform="translate(1149,540)"/>
<path d="M0 0 C1.32 0.33 2.64 0.66 4 1 C3.69320312 2.11375 3.38640625 3.2275 3.0703125 4.375 C1.86069916 9.21345338 1.33951546 14.0426301 0.875 19 C0.78863281 19.87011719 0.70226562 20.74023438 0.61328125 21.63671875 C0.40355393 23.75729499 0.20102158 25.87858079 0 28 C-0.99 28 -1.98 28 -3 28 C-2.45462284 18.55636393 -1.46291615 9.34561968 0 0 Z " fill="#272727" transform="translate(678,540)"/>
<path d="M0 0 C0.33 0 0.66 0 1 0 C1.15366997 6.39651259 0.64846374 12.27698902 -0.5 18.5625 C-0.64308594 19.38041016 -0.78617188 20.19832031 -0.93359375 21.04101562 C-1.28228312 23.02854504 -1.64016085 25.01445896 -2 27 C-2.66 27 -3.32 27 -4 27 C-4.66 25.35 -5.32 23.7 -6 22 C-5.01 22 -4.02 22 -3 22 C-2.95101563 20.91460938 -2.90203125 19.82921875 -2.8515625 18.7109375 C-2.77648014 17.26560216 -2.70093472 15.82029081 -2.625 14.375 C-2.5940625 13.66214844 -2.563125 12.94929687 -2.53125 12.21484375 C-2.28979845 7.82847392 -1.60657269 4.1405166 0 0 Z " fill="#111111" transform="translate(1193,581)"/>
<path d="M0 0 C0.33 0 0.66 0 1 0 C1.15366997 6.39651259 0.64846374 12.27698902 -0.5 18.5625 C-0.64308594 19.38041016 -0.78617188 20.19832031 -0.93359375 21.04101562 C-1.28228312 23.02854504 -1.64016085 25.01445896 -2 27 C-2.66 27 -3.32 27 -4 27 C-4.66 25.35 -5.32 23.7 -6 22 C-5.01 22 -4.02 22 -3 22 C-2.95101562 20.91460938 -2.90203125 19.82921875 -2.8515625 18.7109375 C-2.77648014 17.26560216 -2.70093472 15.82029081 -2.625 14.375 C-2.5940625 13.66214844 -2.563125 12.94929687 -2.53125 12.21484375 C-2.28979845 7.82847392 -1.60657269 4.1405166 0 0 Z " fill="#111111" transform="translate(722,581)"/>
<path d="M0 0 C0.33 1.32 0.66 2.64 1 4 C1.66 4 2.32 4 3 4 C2.03205137 11.84372163 -0.58842388 17.47974599 -5 24 C-5.66 23.67 -6.32 23.34 -7 23 C-6.01804792 20.52090125 -5.02298292 18.05316426 -3.96484375 15.60546875 C-1.71856558 10.31860111 -0.42455683 5.73151717 0 0 Z " fill="#232323" transform="translate(1541,576)"/>
<path d="M0 0 C0.33 1.32 0.66 2.64 1 4 C1.66 4 2.32 4 3 4 C2.03205137 11.84372163 -0.58842388 17.47974599 -5 24 C-5.66 23.67 -6.32 23.34 -7 23 C-6.01804792 20.52090125 -5.02298292 18.05316426 -3.96484375 15.60546875 C-1.71856558 10.31860111 -0.42455683 5.73151717 0 0 Z " fill="#232323" transform="translate(1418,576)"/>
<path d="M0 0 C0.65234375 1.75 0.65234375 1.75 1 4 C-1.53077262 9.42157147 -5.68742893 13.07902346 -11.09765625 15.45703125 C-13.6645867 16.18968696 -15.51923014 15.9302887 -18 15 C-15.70264569 13.85132285 -13.42846589 12.756794 -11.0625 11.75 C-6.54965288 9.17123022 -3.67561606 6.02684819 -2 1 C-1.34 0.67 -0.68 0.34 0 0 Z " fill="#272727" transform="translate(1604,556)"/>
<path d="M0 0 C-0.66 8.25 -1.32 16.5 -2 25 C-2.33 25 -2.66 25 -3 25 C-3.33 21.37 -3.66 17.74 -4 14 C-4.33 14 -4.66 14 -5 14 C-4.85851011 12.3954444 -4.71164314 10.79136233 -4.5625 9.1875 C-4.48128906 8.29417969 -4.40007812 7.40085937 -4.31640625 6.48046875 C-4 4 -4 4 -3 1 C-1 0 -1 0 0 0 Z " fill="#2E2E2E" transform="translate(1218,558)"/>
<path d="M0 0 C-0.66 8.25 -1.32 16.5 -2 25 C-2.33 25 -2.66 25 -3 25 C-3.33 21.37 -3.66 17.74 -4 14 C-4.33 14 -4.66 14 -5 14 C-4.85851011 12.3954444 -4.71164314 10.79136233 -4.5625 9.1875 C-4.48128906 8.29417969 -4.40007813 7.40085937 -4.31640625 6.48046875 C-4 4 -4 4 -3 1 C-1 0 -1 0 0 0 Z " fill="#2E2E2E" transform="translate(747,558)"/>
<path d="M0 0 C0.33 0 0.66 0 1 0 C1.10152799 6.7685324 1.03026944 13.30324864 0 20 C-1.51171875 18.9375 -1.51171875 18.9375 -3 17 C-3.14453125 13.75 -3.14453125 13.75 -2.8125 10 C-2.71582031 8.7625 -2.61914062 7.525 -2.51953125 6.25 C-2 3 -2 3 0 0 Z " fill="#232323" transform="translate(1323,551)"/>
<path d="M0 0 C0.99 0.33 1.98 0.66 3 1 C2.67 1.66 2.34 2.32 2 3 C1.34 3 0.68 3 0 3 C-0.4640625 4.175625 -0.4640625 4.175625 -0.9375 5.375 C-2 8 -2 8 -3 10 C-3.22467831 11.53668865 -3.40796805 13.07968054 -3.5625 14.625 C-3.64628906 15.44226563 -3.73007812 16.25953125 -3.81640625 17.1015625 C-3.87699219 17.72804688 -3.93757812 18.35453125 -4 19 C-5.49609375 17.73046875 -5.49609375 17.73046875 -7 16 C-7.11904194 8.9765255 -4.51832026 5.19537742 0 0 Z " fill="#292929" transform="translate(855,538)"/>
<path d="M0 0 C4.70588235 0.70588235 4.70588235 0.70588235 6 2 C6.04063832 3.66617115 6.042721 5.33388095 6 7 C4.0085944 7.38133299 2.00720923 7.71325582 0 8 C-1 7 -1 7 -1.125 4 C-1 1 -1 1 0 0 Z " fill="#0F0F0F" transform="translate(1673,601)"/>
<path d="M0 0 C4.70588235 0.70588235 4.70588235 0.70588235 6 2 C6.04063832 3.66617115 6.042721 5.33388095 6 7 C4.0085944 7.38133299 2.00720923 7.71325582 0 8 C-1 7 -1 7 -1.125 4 C-1 1 -1 1 0 0 Z " fill="#0F0F0F" transform="translate(1090,601)"/>
<path d="M0 0 C3 1 3 1 5.125 3.375 C8.77147459 6.70438985 12.30263108 7.74122794 17 9 C17 9.33 17 9.66 17 10 C11.05303437 10.60683323 7.04911918 10.27714599 2.30859375 6.4453125 C0.48569568 4.43196239 0.07662402 2.68184054 0 0 Z " fill="#1F1F1F" transform="translate(840,598)"/>
<path d="M0 0 C-1.50635465 4.21779303 -4.24012422 5.7747674 -8 8 C-10.75078884 8.91692961 -12.35948913 9.10886083 -15.1875 9.0625 C-17.0746875 9.0315625 -17.0746875 9.0315625 -19 9 C-19 8.67 -19 8.34 -19 8 C-18.03900391 7.76216797 -18.03900391 7.76216797 -17.05859375 7.51953125 C-11.9045264 6.12923886 -4.52124367 0 0 0 Z " fill="#141414" transform="translate(1535,599)"/>
<path d="M0 0 C-1.50635465 4.21779303 -4.24012422 5.7747674 -8 8 C-10.75078884 8.91692961 -12.35948913 9.10886083 -15.1875 9.0625 C-17.0746875 9.0315625 -17.0746875 9.0315625 -19 9 C-19 8.67 -19 8.34 -19 8 C-18.03900391 7.76216797 -18.03900391 7.76216797 -17.05859375 7.51953125 C-11.9045264 6.12923886 -4.52124367 0 0 0 Z " fill="#141414" transform="translate(1412,599)"/>
<path d="M0 0 C0.33 0 0.66 0 1 0 C1.33 5.94 1.66 11.88 2 18 C1.34 18 0.68 18 0 18 C-1.17794853 14.46615441 -1.13264317 11.59722447 -1.125 7.875 C-1.12886719 5.98394531 -1.12886719 5.98394531 -1.1328125 4.0546875 C-1 1 -1 1 0 0 Z " fill="#050505" transform="translate(1214,571)"/>
<path d="M0 0 C0.33 0 0.66 0 1 0 C1.33 5.94 1.66 11.88 2 18 C1.34 18 0.68 18 0 18 C-1.17794853 14.46615441 -1.13264317 11.59722447 -1.125 7.875 C-1.12886719 5.98394531 -1.12886719 5.98394531 -1.1328125 4.0546875 C-1 1 -1 1 0 0 Z " fill="#050505" transform="translate(743,571)"/>
<path d="M0 0 C0.33 0 0.66 0 1 0 C1 1.65 1 3.3 1 5 C1.66 5 2.32 5 3 5 C3.28571429 12.42857143 3.28571429 12.42857143 1 16 C0.34 16 -0.32 16 -1 16 C-0.67 10.72 -0.34 5.44 0 0 Z " fill="#303030" transform="translate(1319,569)"/>
<path d="M0 0 C0.33 1.32 0.66 2.64 1 4 C1.66 4 2.32 4 3 4 C2.67 7.96 2.34 11.92 2 16 C1.01 15.34 0.02 14.68 -1 14 C-0.67 9.38 -0.34 4.76 0 0 Z " fill="#333333" transform="translate(1624,554)"/>
<path d="M0 0 C0.33 1.32 0.66 2.64 1 4 C1.66 4 2.32 4 3 4 C2.67 7.96 2.34 11.92 2 16 C1.01 15.34 0.02 14.68 -1 14 C-0.67 9.38 -0.34 4.76 0 0 Z " fill="#333333" transform="translate(955,554)"/>
<path d="M0 0 C0.33 0.99 0.66 1.98 1 3 C-0.43359375 5.48046875 -0.43359375 5.48046875 -2.4375 8.1875 C-3.09621094 9.08855469 -3.75492188 9.98960937 -4.43359375 10.91796875 C-5.20896484 11.94857422 -5.20896484 11.94857422 -6 13 C-6.66 12.67 -7.32 12.34 -8 12 C-6.42527704 7.53828494 -4.40622971 2.20311486 0 0 Z " fill="#131313" transform="translate(1068,548)"/>
<path d="M0 0 C0.33 0 0.66 0 1 0 C1.18451025 10.55808656 1.18451025 10.55808656 0 15 C-0.66 15 -1.32 15 -2 15 C-2.3690205 4.44191344 -2.3690205 4.44191344 0 0 Z " fill="#0A0A0A" transform="translate(1544,565)"/>
<path d="M0 0 C0.33 0 0.66 0 1 0 C1.18451025 10.55808656 1.18451025 10.55808656 0 15 C-0.66 15 -1.32 15 -2 15 C-2.3690205 4.44191344 -2.3690205 4.44191344 0 0 Z " fill="#0A0A0A" transform="translate(1421,565)"/>
<path d="M0 0 C0.33 0 0.66 0 1 0 C1.10251672 5.12583611 1.03590199 9.94997778 0 15 C-0.66 15 -1.32 15 -2 15 C-2.3690205 4.44191344 -2.3690205 4.44191344 0 0 Z " fill="#070707" transform="translate(1498,561)"/>
<path d="M0 0 C0.33 0 0.66 0 1 0 C1.10251672 5.12583611 1.03590199 9.94997778 0 15 C-0.66 15 -1.32 15 -2 15 C-2.3690205 4.44191344 -2.3690205 4.44191344 0 0 Z " fill="#070707" transform="translate(1375,561)"/>
<path d="M0 0 C0.33 1.32 0.66 2.64 1 4 C1.66 4 2.32 4 3 4 C2.67 6.97 2.34 9.94 2 13 C1.01 13 0.02 13 -1 13 C-0.67 8.71 -0.34 4.42 0 0 Z " fill="#2B2B2B" transform="translate(1562,595)"/>
<path d="M0 0 C0.33 1.32 0.66 2.64 1 4 C1.66 4 2.32 4 3 4 C2.67 6.97 2.34 9.94 2 13 C1.01 13 0.02 13 -1 13 C-0.67 8.71 -0.34 4.42 0 0 Z " fill="#2B2B2B" transform="translate(1316,595)"/>
<path d="M0 0 C0.33 1.32 0.66 2.64 1 4 C1.66 4 2.32 4 3 4 C2.67 7.63 2.34 11.26 2 15 C1.01 15 0.02 15 -1 15 C-0.67 10.05 -0.34 5.1 0 0 Z " fill="#1C1C1C" transform="translate(1459,552)"/>
<path d="M0 0 C0.33 1.32 0.66 2.64 1 4 C1.66 4 2.32 4 3 4 C2.67 7.63 2.34 11.26 2 15 C1.01 15 0.02 15 -1 15 C-0.67 10.05 -0.34 5.1 0 0 Z " fill="#1C1C1C" transform="translate(916,552)"/>
<path d="M0 0 C0.33 1.32 0.66 2.64 1 4 C1.66 4 2.32 4 3 4 C2.67 7.63 2.34 11.26 2 15 C1.01 15 0.02 15 -1 15 C-0.67 10.05 -0.34 5.1 0 0 Z " fill="#1B1B1B" transform="translate(1544,551)"/>
<path d="M0 0 C0.33 1.32 0.66 2.64 1 4 C1.66 4 2.32 4 3 4 C2.67 7.63 2.34 11.26 2 15 C1.01 15 0.02 15 -1 15 C-0.67 10.05 -0.34 5.1 0 0 Z " fill="#1B1B1B" transform="translate(1421,551)"/>
<path d="M0 0 C0.33 0 0.66 0 1 0 C0.67 4.62 0.34 9.24 0 14 C-0.99 14.33 -1.98 14.66 -3 15 C-2.8858134 13.06183265 -2.75826577 11.12444901 -2.625 9.1875 C-2.55539062 8.10855469 -2.48578125 7.02960937 -2.4140625 5.91796875 C-2 3 -2 3 0 0 Z " fill="#222222" transform="translate(1075,549)"/>
<path d="M0 0 C2.8125 2.0625 2.8125 2.0625 5 4 C4.67 4.99 4.34 5.98 4 7 C2.72881136 6.20890398 1.45806377 5.41709922 0.1875 4.625 C-0.52019531 4.18414063 -1.22789062 3.74328125 -1.95703125 3.2890625 C-3.65432039 2.21811524 -5.33014358 1.11323761 -7 0 C-4.22339666 -1.38830167 -2.95033814 -0.89196269 0 0 Z " fill="#242424" transform="translate(879,536)"/>
<path d="M0 0 C1.485 0.99 1.485 0.99 3 2 C2.67 5.63 2.34 9.26 2 13 C1.01 13 0.02 13 -1 13 C-0.67 8.71 -0.34 4.42 0 0 Z " fill="#343434" transform="translate(1142,595)"/>
<path d="M0 0 C1.485 0.99 1.485 0.99 3 2 C2.67 5.63 2.34 9.26 2 13 C1.01 13 0.02 13 -1 13 C-0.67 8.71 -0.34 4.42 0 0 Z " fill="#343434" transform="translate(1006,595)"/>
<path d="M0 0 C1.485 0.99 1.485 0.99 3 2 C2.67 5.63 2.34 9.26 2 13 C1.01 13 0.02 13 -1 13 C-0.67 8.71 -0.34 4.42 0 0 Z " fill="#343434" transform="translate(671,595)"/>
<path d="M0 0 C0.66 0 1.32 0 2 0 C0.41037341 4.03520597 -1.28232318 8.01811282 -3 12 C-3.99 12 -4.98 12 -6 12 C-4.68448876 7.39571066 -2.90803514 3.81679612 0 0 Z " fill="#111111" transform="translate(1222,547)"/>
<path d="M0 0 C0.66 0 1.32 0 2 0 C0.41037341 4.03520597 -1.28232318 8.01811282 -3 12 C-3.99 12 -4.98 12 -6 12 C-4.68448876 7.39571066 -2.90803514 3.81679612 0 0 Z " fill="#111111" transform="translate(751,547)"/>
<path d="M0 0 C0.99 0 1.98 0 3 0 C2.67 3.63 2.34 7.26 2 11 C1.01 10.67 0.02 10.34 -1 10 C-0.67 6.7 -0.34 3.4 0 0 Z " fill="#242424" transform="translate(1500,535)"/>
<path d="M0 0 C0.99 0 1.98 0 3 0 C2.67 3.63 2.34 7.26 2 11 C1.01 10.67 0.02 10.34 -1 10 C-0.67 6.7 -0.34 3.4 0 0 Z " fill="#242424" transform="translate(1377,535)"/>
<path d="M0 0 C1.57984913 2.01071707 2.94266986 3.88196736 4.0625 6.1875 C4.86702161 8.17892157 4.86702161 8.17892157 7 9 C7 9.66 7 10.32 7 11 C5.68 11 4.36 11 3 11 C-1.06153846 4.6 -1.06153846 4.6 -0.75 1.5625 C-0.5025 1.046875 -0.255 0.53125 0 0 Z " fill="#282828" transform="translate(1183,592)"/>
<path d="M0 0 C1.57984913 2.01071707 2.94266986 3.88196736 4.0625 6.1875 C4.86702161 8.17892157 4.86702161 8.17892157 7 9 C7 9.66 7 10.32 7 11 C5.68 11 4.36 11 3 11 C-1.06153846 4.6 -1.06153846 4.6 -0.75 1.5625 C-0.5025 1.046875 -0.255 0.53125 0 0 Z " fill="#282828" transform="translate(712,592)"/>
<path d="M0 0 C0.8971875 0.5259375 0.8971875 0.5259375 1.8125 1.0625 C4.10813214 2.33304698 4.10813214 2.33304698 7 1 C6.49396008 3.16874252 6.00016187 4.99967627 5 7 C4.01 7 3.02 7 2 7 C0.5393715 4.35261084 0 3.10551666 0 0 Z " fill="#131313" transform="translate(1036,587)"/>
<path d="M0 0 C0.99 0 1.98 0 3 0 C3.67408308 1.26691507 4.33900497 2.53870749 5 3.8125 C5.556875 4.87404297 5.556875 4.87404297 6.125 5.95703125 C7 8 7 8 7 11 C6.34 11 5.68 11 5 11 C4.16151196 9.54462432 3.32936066 8.08559627 2.5 6.625 C1.80390625 5.40683594 1.80390625 5.40683594 1.09375 4.1640625 C0 2 0 2 0 0 Z " fill="#1B1B1B" transform="translate(1176,583)"/>
<path d="M0 0 C0.99 0 1.98 0 3 0 C3.67408308 1.26691507 4.33900497 2.53870749 5 3.8125 C5.556875 4.87404297 5.556875 4.87404297 6.125 5.95703125 C7 8 7 8 7 11 C6.34 11 5.68 11 5 11 C4.16151196 9.54462432 3.32936066 8.08559627 2.5 6.625 C1.80390625 5.40683594 1.80390625 5.40683594 1.09375 4.1640625 C0 2 0 2 0 0 Z " fill="#1B1B1B" transform="translate(705,583)"/>
<path d="M0 0 C1.485 0.99 1.485 0.99 3 2 C2.67 5.3 2.34 8.6 2 12 C1.01 12.33 0.02 12.66 -1 13 C-0.67 8.71 -0.34 4.42 0 0 Z " fill="#383838" transform="translate(1010,562)"/>
<path d="M0 0 C0.99 0.33 1.98 0.66 3 1 C2.67 4.63 2.34 8.26 2 12 C1.01 12 0.02 12 -1 12 C-0.67 8.04 -0.34 4.08 0 0 Z " fill="#121212" transform="translate(1622,573)"/>
<path d="M0 0 C0.99 0.33 1.98 0.66 3 1 C2.67 4.63 2.34 8.26 2 12 C1.01 12 0.02 12 -1 12 C-0.67 8.04 -0.34 4.08 0 0 Z " fill="#121212" transform="translate(953,573)"/>
<path d="M0 0 C0.33 0 0.66 0 1 0 C0.88623383 2.12563103 0.75864369 4.2505261 0.625 6.375 C0.52058594 8.15003906 0.52058594 8.15003906 0.4140625 9.9609375 C0 13 0 13 -2 15 C-2.3690205 4.44191344 -2.3690205 4.44191344 0 0 Z " fill="#0A0A0A" transform="translate(1145,584)"/>
<path d="M0 0 C0.33 0 0.66 0 1 0 C0.88623383 2.12563103 0.75864369 4.2505261 0.625 6.375 C0.52058594 8.15003906 0.52058594 8.15003906 0.4140625 9.9609375 C0 13 0 13 -2 15 C-2.3690205 4.44191344 -2.3690205 4.44191344 0 0 Z " fill="#0A0A0A" transform="translate(674,584)"/>
<path d="M0 0 C1.60294922 0.01353516 1.60294922 0.01353516 3.23828125 0.02734375 C4.04652344 0.03894531 4.85476563 0.05054688 5.6875 0.0625 C2.64718274 1.78370049 0.09364449 2.45674159 -3.375 2.8125 C-4.66083984 2.95945312 -4.66083984 2.95945312 -5.97265625 3.109375 C-8.3125 3.0625 -8.3125 3.0625 -11.3125 1.0625 C-7.47525828 0.15836327 -3.93747726 -0.04326898 0 0 Z " fill="#252525" transform="translate(1249.3125,533.9375)"/>
<path d="M0 0 C1.60294922 0.01353516 1.60294922 0.01353516 3.23828125 0.02734375 C4.04652344 0.03894531 4.85476563 0.05054688 5.6875 0.0625 C2.64718274 1.78370049 0.09364449 2.45674159 -3.375 2.8125 C-4.66083984 2.95945312 -4.66083984 2.95945312 -5.97265625 3.109375 C-8.3125 3.0625 -8.3125 3.0625 -11.3125 1.0625 C-7.47525828 0.15836327 -3.93747726 -0.04326898 0 0 Z " fill="#252525" transform="translate(778.3125,533.9375)"/>
<path d="M0 0 C1.2684375 0.433125 1.2684375 0.433125 2.5625 0.875 C6.02361041 2.00772704 9.49372557 3.01824316 13 4 C13 4.33 13 4.66 13 5 C7.49633208 5.32374517 3.56327794 5.53286034 -1 2 C-0.67 1.34 -0.34 0.68 0 0 Z " fill="#141414" transform="translate(1226,603)"/>
<path d="M0 0 C1.2684375 0.433125 1.2684375 0.433125 2.5625 0.875 C6.02361041 2.00772704 9.49372557 3.01824316 13 4 C13 4.33 13 4.66 13 5 C7.49633208 5.32374517 3.56327794 5.53286034 -1 2 C-0.67 1.34 -0.34 0.68 0 0 Z " fill="#141414" transform="translate(755,603)"/>
<path d="M0 0 C0.33 0 0.66 0 1 0 C1 3.96 1 7.92 1 12 C-2 9 -2 9 -2.3125 6 C-2 3 -2 3 0 0 Z " fill="#242424" transform="translate(1569,551)"/>
<path d="M0 0 C3 1 3 1 4.1875 2.875 C5 5 5 5 5 8 C4.34 8 3.68 8 3 8 C2.67 7.34 2.34 6.68 2 6 C1.01 6.495 1.01 6.495 0 7 C0 4.69 0 2.38 0 0 Z " fill="#070707" transform="translate(1150,535)"/>
<path d="M0 0 C3 1 3 1 4.1875 2.875 C5 5 5 5 5 8 C4.34 8 3.68 8 3 8 C2.67 7.34 2.34 6.68 2 6 C1.01 6.495 1.01 6.495 0 7 C0 4.69 0 2.38 0 0 Z " fill="#070707" transform="translate(679,535)"/>
<path d="M0 0 C0.33 1.32 0.66 2.64 1 4 C1.66 4 2.32 4 3 4 C2.67 6.31 2.34 8.62 2 11 C1.01 10.67 0.02 10.34 -1 10 C-0.67 6.7 -0.34 3.4 0 0 Z " fill="#343434" transform="translate(1272,573)"/>
<path d="M0 0 C0.33 1.32 0.66 2.64 1 4 C1.66 4 2.32 4 3 4 C2.67 6.31 2.34 8.62 2 11 C1.01 10.67 0.02 10.34 -1 10 C-0.67 6.7 -0.34 3.4 0 0 Z " fill="#343434" transform="translate(801,573)"/>
<path d="M0 0 C0.99 0 1.98 0 3 0 C3.66 2.31 4.32 4.62 5 7 C4.01 7.33 3.02 7.66 2 8 C0.74335022 5.09399739 0 3.20395416 0 0 Z " fill="#202020" transform="translate(1033,580)"/>
<path d="M0 0 C0.33 0 0.66 0 1 0 C1 2.97 1 5.94 1 9 C0.01 9 -0.98 9 -2 9 C-2.25 3.375 -2.25 3.375 0 0 Z " fill="#2A2A2A" transform="translate(1194,573)"/>
<path d="M0 0 C0.33 0 0.66 0 1 0 C1 2.97 1 5.94 1 9 C0.01 9 -0.98 9 -2 9 C-2.25 3.375 -2.25 3.375 0 0 Z " fill="#2A2A2A" transform="translate(723,573)"/>
<path d="M0 0 C0.33 0 0.66 0 1 0 C1 2.97 1 5.94 1 9 C0.01 9 -0.98 9 -2 9 C-1.125 1.125 -1.125 1.125 0 0 Z " fill="#0C0C0C" transform="translate(1455,599)"/>
<path d="M0 0 C0.33 0 0.66 0 1 0 C1 2.97 1 5.94 1 9 C0.01 9 -0.98 9 -2 9 C-1.125 1.125 -1.125 1.125 0 0 Z " fill="#0C0C0C" transform="translate(912,599)"/>
<path d="M0 0 C0.33 0 0.66 0 1 0 C1 3.3 1 6.6 1 10 C0.01 9.67 -0.98 9.34 -2 9 C-1.125 1.125 -1.125 1.125 0 0 Z " fill="#101010" transform="translate(1570,543)"/>
<path d="M0 0 C0.66 0.33 1.32 0.66 2 1 C-0.97 3.97 -3.94 6.94 -7 10 C-7 7 -7 7 -4.625 4.4375 C-3.75875 3.633125 -2.8925 2.82875 -2 2 C-1.34 1.34 -0.68 0.68 0 0 Z " fill="#FFDB4E" transform="translate(1897,300)"/>
<path d="M0 0 C0.33 0 0.66 0 1 0 C0.67 3.3 0.34 6.6 0 10 C-0.66 10 -1.32 10 -2 10 C-1.85950482 8.52031676 -1.71245174 7.04125484 -1.5625 5.5625 C-1.48128906 4.73878906 -1.40007812 3.91507813 -1.31640625 3.06640625 C-1 1 -1 1 0 0 Z " fill="#0C0C0C" transform="translate(1069,598)"/>
<path d="M0 0 C0.33 0.99 0.66 1.98 1 3 C-0.28965176 4.37562854 -1.62689293 5.70766393 -3 7 C-3.66 7 -4.32 7 -5 7 C-3.75023244 3.34683329 -3.32901247 2.21934164 0 0 Z " fill="#1E1E1E" transform="translate(1072,542)"/>
<path d="M0 0 C0.33 0 0.66 0 1 0 C1 2.97 1 5.94 1 9 C0.01 9 -0.98 9 -2 9 C-1.125 1.125 -1.125 1.125 0 0 Z " fill="#0D0D0D" transform="translate(1324,543)"/>
<path d="M0 0 C0.99 0 1.98 0 3 0 C3 2.97 3 5.94 3 9 C0 6 0 6 -0.1875 2.8125 C-0.125625 1.884375 -0.06375 0.95625 0 0 Z " fill="#2A2A2A" transform="translate(1546,535)"/>
<path d="M0 0 C0.99 0 1.98 0 3 0 C3 2.97 3 5.94 3 9 C0 6 0 6 -0.1875 2.8125 C-0.125625 1.884375 -0.06375 0.95625 0 0 Z " fill="#2A2A2A" transform="translate(1423,535)"/>
<path d="M0 0 C1.7074998 1.28062485 3.37373596 2.61767557 5 4 C5 4.66 5 5.32 5 6 C3.125 5.75 3.125 5.75 1 5 C-0.25 2.9375 -0.25 2.9375 -1 1 C-0.67 0.67 -0.34 0.34 0 0 Z " fill="#191919" transform="translate(1500,599)"/>
<path d="M0 0 C1.7074998 1.28062485 3.37373596 2.61767557 5 4 C5 4.66 5 5.32 5 6 C3.125 5.75 3.125 5.75 1 5 C-0.25 2.9375 -0.25 2.9375 -1 1 C-0.67 0.67 -0.34 0.34 0 0 Z " fill="#191919" transform="translate(1377,599)"/>
<path d="M0 0 C0.66 0 1.32 0 2 0 C2 2.64 2 5.28 2 8 C1.01 8.33 0.02 8.66 -1 9 C-0.67 6.03 -0.34 3.06 0 0 Z " fill="#060606" transform="translate(1604,548)"/>
<path d="M0 0 C4.455 0.99 4.455 0.99 9 2 C9 2.33 9 2.66 9 3 C6.03 3 3.06 3 0 3 C0 2.01 0 1.02 0 0 Z " fill="#161616" transform="translate(848,605)"/>
<path d="M0 0 C1.89213369 2.38573379 3.02391783 4.07175348 4 7 C3.01 7.33 2.02 7.66 1 8 C0.26919734 6.02253397 -0.39421747 4.01927511 -1 2 C-0.67 1.34 -0.34 0.68 0 0 Z " fill="#262626" transform="translate(1166,561)"/>
<path d="M0 0 C1.89213369 2.38573379 3.02391783 4.07175348 4 7 C3.01 7.33 2.02 7.66 1 8 C0.26919734 6.02253397 -0.39421747 4.01927511 -1 2 C-0.67 1.34 -0.34 0.68 0 0 Z " fill="#262626" transform="translate(695,561)"/>
<path d="M0 0 C0.99 0.33 1.98 0.66 3 1 C1.6875 3.5 1.6875 3.5 0 6 C-0.99 6 -1.98 6 -3 6 C-1.125 1.125 -1.125 1.125 0 0 Z " fill="#242424" transform="translate(1059,560)"/>
<path d="M0 0 C0.6875 1.8125 0.6875 1.8125 1 4 C-0.4375 5.75 -0.4375 5.75 -2 7 C-3 4 -3 4 -2 1 C-1.34 0.67 -0.68 0.34 0 0 Z " fill="#1D1D1D" transform="translate(1604,556)"/>
<path d="M0 0 C0.99 0.33 1.98 0.66 3 1 C2.67 1.66 2.34 2.32 2 3 C1.34 3 0.68 3 0 3 C-0.33 3.99 -0.66 4.98 -1 6 C-1.66 5.67 -2.32 5.34 -3 5 C-1.125 1.125 -1.125 1.125 0 0 Z " fill="#2F2F2F" transform="translate(855,538)"/>
<path d="M0 0 C0.99 0 1.98 0 3 0 C3 1.98 3 3.96 3 6 C2.01 6 1.02 6 0 6 C0 4.02 0 2.04 0 0 Z " fill="#343434" transform="translate(1197,535)"/>
<path d="M0 0 C0.99 0 1.98 0 3 0 C3 1.98 3 3.96 3 6 C2.01 6 1.02 6 0 6 C0 4.02 0 2.04 0 0 Z " fill="#343434" transform="translate(726,535)"/>
</svg>
