<?xml version="1.0" encoding="UTF-8"?>
<svg version="1.1" xmlns="http://www.w3.org/2000/svg" width="528" height="538">
<path d="M0 0 C32.34056085 21.64873609 44.59591124 64.57466346 54.859375 99.9140625 C57.92463178 99.9140625 60.34204201 99.41163931 63.3203125 98.70703125 C64.42173584 98.45139404 65.52315918 98.19575684 66.65795898 97.93237305 C67.83817627 97.65820557 69.01839355 97.38403809 70.234375 97.1015625 C82.05580219 94.41498191 93.81905959 92.30642332 105.859375 90.9140625 C106.96925781 90.78257813 108.07914062 90.65109375 109.22265625 90.515625 C122.86959674 89.14908427 136.36154176 89.53298405 149.859375 91.9140625 C150.86226563 92.08550781 151.86515625 92.25695312 152.8984375 92.43359375 C164.73065945 94.90528432 178.76119031 100.71248544 185.859375 110.9140625 C193.79671366 124.31178369 196.37596009 137.71305838 192.80078125 153.05078125 C188.62564908 168.54326918 181.66487193 182.31118089 172.13378906 195.19091797 C170.74459104 197.06926273 169.37674554 198.96231218 168.0078125 200.85546875 C160.00703451 211.81872516 151.26729486 221.63425655 141.5859375 231.15625 C139.17018944 233.615722 137.01213448 236.22311315 134.859375 238.9140625 C135.42785156 239.4709375 135.99632812 240.0278125 136.58203125 240.6015625 C140.44600191 244.42037824 144.2713455 248.26450334 147.921875 252.2890625 C148.49035156 252.91554688 149.05882812 253.54203125 149.64453125 254.1875 C150.859375 255.9140625 150.859375 255.9140625 150.859375 258.9140625 C150.17230469 259.22859375 149.48523438 259.543125 148.77734375 259.8671875 C147.42576172 260.50914062 147.42576172 260.50914062 146.046875 261.1640625 C144.70689453 261.79054688 144.70689453 261.79054688 143.33984375 262.4296875 C140.73205735 263.99025259 139.6462138 265.51795775 137.859375 267.9140625 C134.859375 267.9140625 134.859375 267.9140625 133.28125 266.41015625 C132.72953125 265.73082031 132.1778125 265.05148437 131.609375 264.3515625 C128.22902486 260.30811596 124.63539835 256.58679037 120.859375 252.9140625 C117.13948993 254.52337448 114.37228073 256.85980583 111.296875 259.4765625 C110.22424801 260.38185375 109.15132505 261.28679442 108.078125 262.19140625 C107.26988281 262.87565674 107.26988281 262.87565674 106.4453125 263.57373047 C100.60790967 268.50712664 94.72272988 273.34607773 88.546875 277.8515625 C87.65226562 278.5321875 86.75765625 279.2128125 85.8359375 279.9140625 C82.859375 281.9140625 82.859375 281.9140625 79.1953125 283.4765625 C74.76557606 285.5305105 71.40145782 287.63977199 68.859375 291.9140625 C66.37666587 300.49361611 65.97711603 309.56269803 65.3618927 318.4360199 C64.86236108 325.53159358 63.86299699 332.51697796 62.734375 339.5390625 C62.57501465 340.59158203 62.4156543 341.64410156 62.25146484 342.72851562 C61.44310854 347.92862821 60.44792424 352.89537152 58.859375 357.9140625 C59.68115234 358.07841797 59.68115234 358.07841797 60.51953125 358.24609375 C61.31230469 358.40464844 62.10507812 358.56320312 62.921875 358.7265625 C63.85128906 358.91089844 64.78070313 359.09523438 65.73828125 359.28515625 C67.81105217 359.70282348 69.88145405 360.13243337 71.94921875 360.57421875 C118.81787591 371.03770551 118.81787591 371.03770551 164.3515625 360.4140625 C169.94035661 355.99215947 173.15738898 350.45924473 174.24609375 343.41015625 C174.39748933 341.86393579 174.5147707 340.31370252 174.5859375 338.76171875 C174.859375 336.9140625 174.859375 336.9140625 176.859375 334.9140625 C178.27804075 334.38171445 179.71951718 333.90860844 181.171875 333.4765625 C184.75377287 332.34786156 187.67944352 330.93765526 190.859375 328.9140625 C191.519375 328.9140625 192.179375 328.9140625 192.859375 328.9140625 C196.42616853 336.04764956 194.21206157 348.17507898 191.859375 355.3515625 C187.31187593 366.44085492 179.14726363 375.76171251 168.04199219 380.7265625 C140.93054969 391.37318718 111.79008145 387.92848363 83.796875 383.5390625 C82.52545654 383.34231934 81.25403809 383.14557617 79.9440918 382.94287109 C71.34787859 381.53174489 63.17157843 379.47818491 54.859375 376.9140625 C54.67906738 377.58920898 54.49875977 378.26435547 54.31298828 378.95996094 C47.88068973 402.82532106 40.73535592 427.23569604 26.859375 447.9140625 C25.94913 449.30983796 25.03897731 450.70567362 24.12890625 452.1015625 C15.49878401 465.16627664 3.77312944 479.67227238 -12.140625 483.9140625 C-16.08648264 484.35573304 -19.98585732 484.37858414 -23.953125 484.3515625 C-24.98244141 484.37154297 -26.01175781 484.39152344 -27.07226562 484.41210938 C-39.27255685 484.40439256 -47.23674089 479.93435506 -56.140625 471.9140625 C-57.01589844 471.13289063 -57.89117187 470.35171875 -58.79296875 469.546875 C-82.28935488 447.36520775 -96.09445714 413.1910425 -102.484375 381.984375 C-102.98450522 379.0176497 -102.98450522 379.0176497 -104.140625 376.9140625 C-105.60435547 377.3471875 -105.60435547 377.3471875 -107.09765625 377.7890625 C-108.38275115 378.16427269 -109.66791081 378.53926112 -110.953125 378.9140625 C-112.21769531 379.2853125 -113.48226562 379.6565625 -114.78515625 380.0390625 C-118.140625 380.9140625 -118.140625 380.9140625 -121.140625 380.9140625 C-121.27339844 379.96144531 -121.40617187 379.00882812 -121.54296875 378.02734375 C-121.80787109 376.14595703 -121.80787109 376.14595703 -122.078125 374.2265625 C-122.25214844 372.98519531 -122.42617187 371.74382812 -122.60546875 370.46484375 C-123.03704016 367.60135171 -123.5727057 364.75365898 -124.140625 361.9140625 C-116.220625 359.9340625 -116.220625 359.9340625 -108.140625 357.9140625 C-108.58277344 355.77550781 -109.02492187 353.63695312 -109.48046875 351.43359375 C-111.00651442 343.88907609 -112.25084869 336.31735736 -113.38644409 328.70535278 C-113.71166112 326.54485494 -114.04956775 324.3865912 -114.38891602 322.22827148 C-115.32169141 316.20096148 -116.23421856 310.23303323 -116.4140625 304.125 C-116.38901705 296.78321299 -116.38901705 296.78321299 -119.44238281 290.33789062 C-122.7679656 287.30437901 -126.49077068 285.07104468 -130.41650391 282.90185547 C-132.7471044 281.56659497 -134.80190121 279.97279137 -136.890625 278.2890625 C-137.58800781 277.73863281 -138.28539062 277.18820312 -139.00390625 276.62109375 C-139.70902344 276.05777344 -140.41414063 275.49445313 -141.140625 274.9140625 C-142.33751953 273.96080078 -142.33751953 273.96080078 -143.55859375 272.98828125 C-145.23875735 271.64675527 -146.9171447 270.30300166 -148.59375 268.95703125 C-150.30943188 267.58080177 -152.02825308 266.2084779 -153.75 264.83984375 C-158.63249631 260.95603987 -163.43268373 257.00792448 -168.140625 252.9140625 C-176.91778311 256.53540746 -184.12641381 266.85348027 -189.88671875 274.09765625 C-192.28398121 277.09319565 -194.77163197 279.99876145 -197.265625 282.9140625 C-201.76402314 288.30378411 -205.53743928 293.89985621 -209.140625 299.9140625 C-209.65238281 300.72359375 -210.16414063 301.533125 -210.69140625 302.3671875 C-212.24124117 304.85012716 -213.70603606 307.362841 -215.140625 309.9140625 C-215.68074219 310.86539062 -216.22085938 311.81671875 -216.77734375 312.796875 C-222.43174564 323.7223295 -224.9848401 337.40844682 -222.1015625 349.578125 C-219.6856065 355.45105869 -214.92483698 360.31116711 -209.140625 362.9140625 C-206.830625 363.5740625 -204.520625 364.2340625 -202.140625 364.9140625 C-202.470625 371.1840625 -202.800625 377.4540625 -203.140625 383.9140625 C-210.90612902 382.83278979 -216.63008784 381.28159638 -223.140625 376.9140625 C-223.89214844 376.42035156 -224.64367187 375.92664063 -225.41796875 375.41796875 C-233.31789117 369.786742 -239.4557147 362.31267822 -242.140625 352.9140625 C-242.54453138 348.52422842 -242.46508017 344.13323729 -242.453125 339.7265625 C-242.46923828 338.55802734 -242.48535156 337.38949219 -242.50195312 336.18554688 C-242.50793536 325.45940838 -240.38538665 316.44411731 -235.390625 306.9765625 C-235.04209473 306.29907959 -234.69356445 305.62159668 -234.33447266 304.92358398 C-227.20307139 291.19927501 -219.13880809 278.71003756 -209.140625 266.9140625 C-208.40682617 266.04273682 -208.40682617 266.04273682 -207.65820312 265.15380859 C-200.20277697 256.32317742 -192.44622509 247.95029178 -184.140625 239.9140625 C-185.50214772 236.84571244 -187.02136 234.82177577 -189.44921875 232.515625 C-190.10857422 231.87834473 -190.76792969 231.24106445 -191.44726562 230.58447266 C-192.50204102 229.57199463 -192.50204102 229.57199463 -193.578125 228.5390625 C-199.85249203 222.39810301 -205.48505623 216.08551074 -210.7578125 209.07421875 C-212.85172315 206.29721266 -215.02924095 203.63829802 -217.265625 200.9765625 C-222.27008872 194.72608944 -226.19530579 187.86024158 -230.140625 180.9140625 C-230.50752441 180.27742676 -230.87442383 179.64079102 -231.25244141 178.98486328 C-232.33575553 177.09498002 -233.39775709 175.19467118 -234.453125 173.2890625 C-235.06800781 172.18304688 -235.68289062 171.07703125 -236.31640625 169.9375 C-241.25253139 159.73527314 -242.78733092 149.91151614 -242.640625 138.6640625 C-242.65609375 137.46265625 -242.6715625 136.26125 -242.6875 135.0234375 C-242.63625966 123.34064029 -239.0369784 115.45150598 -231.140625 106.9140625 C-215.43780856 92.13144892 -192.13448533 89.42152914 -171.4140625 89.6953125 C-148.6118092 90.39236266 -126.21369893 95.53875434 -104.140625 100.9140625 C-103.95886719 100.14320312 -103.77710938 99.37234375 -103.58984375 98.578125 C-103.33847656 97.57523437 -103.08710938 96.57234375 -102.828125 95.5390625 C-102.58449219 94.54132813 -102.34085938 93.54359375 -102.08984375 92.515625 C-101.140625 89.9140625 -101.140625 89.9140625 -98.140625 87.9140625 C-97.17125 88.5328125 -96.201875 89.1515625 -95.203125 89.7890625 C-91.04535458 92.19170852 -86.83670464 93.10476079 -82.140625 93.9140625 C-82.65467669 98.88322886 -83.37447382 103.20432601 -85.140625 107.9140625 C-84.4194751 108.04224365 -83.6983252 108.1704248 -82.95532227 108.30249023 C-80.20881595 108.89924609 -77.73346795 109.70940118 -75.10546875 110.69921875 C-74.1407666 111.06112305 -73.17606445 111.42302734 -72.18212891 111.79589844 C-70.64564697 112.38032715 -70.64564697 112.38032715 -69.078125 112.9765625 C-68.01770996 113.3777832 -66.95729492 113.77900391 -65.86474609 114.19238281 C-36.22776494 125.45186661 -36.22776494 125.45186661 -28.11328125 130.19921875 C-24.45650402 131.52434792 -21.70665704 130.16726698 -18.28515625 128.63671875 C-17.18558594 128.08886719 -16.08601562 127.54101562 -14.953125 126.9765625 C-3.67211705 121.52390609 8.14121087 117.31746621 19.859375 112.9140625 C21.60288054 112.25655274 23.34637167 111.59900474 25.08984375 110.94140625 C28.67678652 109.59108635 32.26671708 108.24909852 35.859375 106.9140625 C32.24049262 93.12507336 28.39713061 79.77313449 22.63085938 66.72509766 C21.46056981 63.97787993 20.48693508 61.16353753 19.484375 58.3515625 C12.93582643 41.26561005 2.17620488 22.27559562 -15.078125 14.5390625 C-21.68344349 12.13529216 -27.14968263 11.8683103 -33.703125 14.5390625 C-36.93608829 16.10194353 -39.59780317 17.97868152 -42.390625 20.2265625 C-45.81338466 22.89847963 -45.81338466 22.89847963 -48.765625 23.0390625 C-51.78132566 21.61057271 -54.40006626 19.81567469 -57.140625 17.9140625 C-59.12570448 16.88476203 -61.12176751 15.87542321 -63.140625 14.9140625 C-58.92385972 5.42634061 -49.44160016 -0.30279072 -40.29296875 -4.34375 C-26.05919048 -9.70720268 -12.93835404 -7.41945161 0 0 Z M-219.328125 122.0390625 C-225.13417428 129.07412952 -223.59022602 139.29094555 -223.140625 147.9140625 C-221.69475682 162.4432745 -211.77255401 176.53979356 -203.140625 187.9140625 C-202.00173828 189.44933594 -202.00173828 189.44933594 -200.83984375 191.015625 C-196.01806544 197.45353039 -190.93666687 203.51925499 -185.453125 209.4140625 C-183.39302706 211.64119541 -181.41552792 213.91373048 -179.453125 216.2265625 C-176.3060154 219.86072478 -172.86245212 222.87583628 -169.140625 225.9140625 C-163.54787151 222.61910695 -158.7653173 218.76277587 -154.078125 214.2890625 C-146.91763737 207.48761137 -139.12640187 201.70255088 -131.140625 195.9140625 C-130.02162281 195.09444939 -128.90309904 194.27418253 -127.78515625 193.453125 C-124.27119185 190.88147866 -120.76397206 188.3296272 -117.140625 185.9140625 C-116.42874688 183.11985146 -116.42874688 183.11985146 -116.1484375 179.7734375 C-115.9304248 177.84612793 -115.9304248 177.84612793 -115.70800781 175.87988281 C-115.63602173 175.19269165 -115.56403564 174.50550049 -115.48986816 173.79748535 C-115.10927852 170.17660063 -114.68446317 166.56101804 -114.2578125 162.9453125 C-114.17063965 162.20154358 -114.0834668 161.45777466 -113.99365234 160.69146729 C-112.89168562 151.51146129 -111.31125449 142.41624374 -109.71533203 133.31152344 C-109.51020996 132.13364258 -109.30508789 130.95576172 -109.09375 129.7421875 C-108.90973633 128.7099707 -108.72572266 127.67775391 -108.53613281 126.61425781 C-108.04400676 123.70926886 -108.04400676 123.70926886 -108.140625 119.9140625 C-112.41453447 118.74449193 -116.69471249 117.60243035 -120.98193359 116.48291016 C-122.9822481 115.9557972 -124.97769852 115.41031859 -126.97265625 114.86328125 C-152.48201556 108.13213728 -198.83350397 99.89497499 -219.328125 122.0390625 Z M74.921875 115.4765625 C74.23145111 115.63013214 73.54102722 115.78370178 72.8296814 115.94192505 C65.2142256 117.17290126 65.2142256 117.17290126 58.859375 120.9140625 C59.07665532 123.50048592 59.41392377 125.92610451 59.87109375 128.47265625 C59.9985347 129.24072098 60.12597565 130.00878571 60.25727844 130.80012512 C60.67638733 133.31921741 61.11051149 135.83540544 61.546875 138.3515625 C63.40598654 149.16816512 65.03154032 159.7696186 65.64550781 170.73510742 C65.93136797 180.92041724 65.93136797 180.92041724 70.73046875 189.46875 C73.60292179 191.76646856 76.69701813 193.41457199 80.01367188 194.98095703 C82.95337509 196.46714033 85.45149426 198.46208504 88.046875 200.4765625 C89.02398437 201.21390625 90.00109375 201.95125 91.0078125 202.7109375 C94.67756355 205.54619722 98.26244033 208.47447869 101.8359375 211.4296875 C105.54654515 214.47871394 109.29417168 217.47960887 113.046875 220.4765625 C113.71952393 221.01385986 114.39217285 221.55115723 115.08520508 222.10473633 C116.67619782 223.3750094 118.26772705 224.64461049 119.859375 225.9140625 C125.06109977 221.60387045 129.76527186 217.05023421 134.359375 212.1015625 C135.35481323 211.03228516 135.35481323 211.03228516 136.37036133 209.94140625 C140.12504457 205.8765757 143.78743973 201.80508992 147.0703125 197.34375 C148.53732136 195.35143666 150.04311246 193.4173397 151.5859375 191.484375 C165.45928386 173.88679003 177.2603659 154.02359992 174.859375 130.9140625 C173.21139811 124.19855667 168.47336653 119.68740107 162.859375 115.9140625 C137.16527489 101.83816418 101.97233489 109.41141412 74.921875 115.4765625 Z M-90.140625 125.9140625 C-92.35229391 135.60367962 -94.05231962 145.25183771 -95.390625 155.1015625 C-95.57625 156.39642578 -95.761875 157.69128906 -95.953125 159.02539062 C-96.12328125 160.26095703 -96.2934375 161.49652344 -96.46875 162.76953125 C-96.6224707 163.87965576 -96.77619141 164.98978027 -96.93457031 166.13354492 C-97.32652379 168.99882352 -97.32652379 168.99882352 -96.140625 171.9140625 C-95.05007812 171.23601562 -93.95953125 170.55796875 -92.8359375 169.859375 C-84.19685384 164.51809446 -75.49165012 159.37570479 -66.58300781 154.49707031 C-59.95959985 150.85522305 -53.52836022 146.95436145 -47.140625 142.9140625 C-49.92073675 141.06065466 -52.35597588 139.93327074 -55.4453125 138.70703125 C-56.498396 138.28728027 -57.55147949 137.8675293 -58.63647461 137.43505859 C-59.75159424 136.99500488 -60.86671387 136.55495117 -62.015625 136.1015625 C-63.14427979 135.65377441 -64.27293457 135.20598633 -65.43579102 134.74462891 C-68.66916973 133.46376456 -71.90460034 132.18822426 -75.140625 130.9140625 C-75.93742676 130.59872559 -76.73422852 130.28338867 -77.55517578 129.95849609 C-83.67216251 127.1481176 -83.67216251 127.1481176 -90.140625 125.9140625 Z M33.50390625 127.890625 C32.41255371 128.31166504 31.32120117 128.73270508 30.19677734 129.16650391 C29.03355957 129.61944824 27.8703418 130.07239258 26.671875 130.5390625 C25.49834473 130.9932959 24.32481445 131.4475293 23.11572266 131.91552734 C14.67328564 135.18983802 6.24960983 138.50812559 -2.140625 141.9140625 C0.26516948 144.5895448 2.8340855 146.17311537 5.97265625 147.91015625 C6.97361328 148.46896484 7.97457031 149.02777344 9.00585938 149.60351562 C10.57303711 150.46879883 10.57303711 150.46879883 12.171875 151.3515625 C18.20852056 154.6993965 24.15398004 158.02790276 29.859375 161.9140625 C31.65857896 162.93779164 33.47093701 163.9388155 35.296875 164.9140625 C39.52650732 167.17971708 43.70001271 169.52255803 47.859375 171.9140625 C46.76566014 161.58133532 45.36958947 151.310054 43.796875 141.0390625 C43.53535645 139.31840576 43.53535645 139.31840576 43.26855469 137.56298828 C43.10129883 136.4851709 42.93404297 135.40735352 42.76171875 134.296875 C42.53730103 132.84885498 42.53730103 132.84885498 42.30834961 131.37158203 C41.89632093 128.79059703 41.89632093 128.79059703 40.859375 125.9140625 C38.10266385 125.9140625 36.07695499 126.8942933 33.50390625 127.890625 Z M-38.90771484 159.45068359 C-42.29004728 161.66735762 -45.858852 163.4977929 -49.43310547 165.38354492 C-57.60100824 169.70169153 -65.59222343 174.26209156 -73.40625 179.19140625 C-75.95674978 180.79822111 -78.53826223 182.33075496 -81.140625 183.8515625 C-82.81191926 184.86480185 -84.47813947 185.886434 -86.140625 186.9140625 C-86.69379395 187.25050781 -87.24696289 187.58695313 -87.81689453 187.93359375 C-89.62889379 189.04867022 -91.4167185 190.1960113 -93.203125 191.3515625 C-94.30785156 192.05152344 -95.41257813 192.75148437 -96.55078125 193.47265625 C-100.49011325 197.18620451 -100.07911758 201.20515838 -100.26760864 206.44213867 C-100.26840424 207.68455322 -100.26919983 208.92696777 -100.27001953 210.20703125 C-100.27177185 210.89906647 -100.27352417 211.59110168 -100.27532959 212.30410767 C-100.27969647 214.56995218 -100.27682844 216.83571732 -100.2734375 219.1015625 C-100.27411202 220.68904637 -100.27508329 222.27653015 -100.27633667 223.86401367 C-100.27780665 227.18246448 -100.27568163 230.50088828 -100.27099609 233.81933594 C-100.26529924 238.05922089 -100.26858199 242.29904253 -100.27456856 246.53892517 C-100.27819308 249.81441723 -100.2770269 253.08989444 -100.27444077 256.36538696 C-100.27377673 257.92819222 -100.27458151 259.49099885 -100.27692032 261.05380249 C-100.27947799 263.24293559 -100.27556267 265.43196809 -100.27001953 267.62109375 C-100.26922394 268.8635083 -100.26842834 270.10592285 -100.26760864 271.38598633 C-100.13781168 274.99222694 -99.86967498 278.37773637 -99.140625 281.9140625 C-97.00255501 283.87109883 -95.27627021 285.15624175 -92.828125 286.6015625 C-91.84344238 287.2188623 -91.84344238 287.2188623 -90.83886719 287.84863281 C-88.62042118 289.22861104 -86.38190423 290.57152555 -84.140625 291.9140625 C-82.45386078 292.94568922 -80.76767933 293.9782693 -79.08203125 295.01171875 C-71.45970461 299.6568323 -63.79979924 304.21724016 -55.921875 308.41796875 C-52.21763465 310.41055872 -48.55486805 312.47405835 -44.890625 314.5390625 C-44.22836914 314.91184326 -43.56611328 315.28462402 -42.88378906 315.66870117 C-42.24151367 316.03068604 -41.59923828 316.3926709 -40.9375 316.765625 C-40.30134766 317.12043945 -39.66519531 317.47525391 -39.00976562 317.84082031 C-37.78286515 318.54529452 -36.5719616 319.27854986 -35.38085938 320.04199219 C-31.06495974 322.75225985 -27.2306701 324.23945916 -22.140625 323.9140625 C-19.38727866 323.11399898 -17.01157504 321.87256519 -14.515625 320.4765625 C-13.8254126 320.11111328 -13.1352002 319.74566406 -12.42407227 319.36914062 C-10.31486694 318.24216919 -8.22561361 317.08515191 -6.140625 315.9140625 C-5.52848145 315.57101074 -4.91633789 315.22795898 -4.28564453 314.87451172 C-1.96592846 313.5668255 0.34759874 312.24896222 2.64794922 310.9074707 C6.13817454 308.87290071 9.66711329 306.96141 13.26098633 305.11669922 C22.16955749 300.52533154 30.49577176 295.14243893 38.67480469 289.35449219 C40.859375 287.9140625 40.859375 287.9140625 43.36425781 286.66894531 C45.99159393 285.27690354 47.80925816 284.07444132 49.859375 281.9140625 C50.56235042 279.16980189 50.56235042 279.16980189 50.60253906 276.06982422 C50.65757599 274.90836884 50.71261292 273.74691345 50.76931763 272.55026245 C50.91444837 266.69039357 51.00203823 260.83838588 50.9921875 254.9765625 C50.99314423 253.69402588 50.99410095 252.41148926 50.99508667 251.09008789 C50.99654638 248.39761119 50.9944655 245.70516805 50.98974609 243.01269531 C50.98404988 239.600869 50.98733827 236.18912142 50.99331856 232.77729797 C50.99784772 229.46871356 50.99465559 226.16014913 50.9921875 222.8515625 C50.99522385 221.04473999 50.99522385 221.04473999 50.99832153 219.20141602 C50.98898438 215.77035541 50.9397932 212.34416768 50.859375 208.9140625 C50.83300964 207.71837646 50.80664429 206.52269043 50.77947998 205.29077148 C50.72705139 204.13262939 50.6746228 202.9744873 50.62060547 201.78125 C50.57902313 200.74468262 50.5374408 199.70811523 50.49459839 198.64013672 C49.68822661 195.17957565 48.39173205 194.14559052 45.546875 192.1015625 C43.66294333 191.01809965 41.76612034 189.95685322 39.859375 188.9140625 C37.80803052 187.53249119 35.76643129 186.13634997 33.734375 184.7265625 C30.64518945 182.62574518 27.58704557 180.74344253 24.2265625 179.125 C19.73027556 176.93004185 15.5335102 174.31497262 11.28295898 171.68188477 C5.85878079 168.33991668 0.36117656 165.12603388 -5.140625 161.9140625 C-6.08244629 161.35138672 -7.02426758 160.78871094 -7.99462891 160.20898438 C-20.27741434 153.01796363 -26.96847529 151.24406652 -38.90771484 159.45068359 Z M69.859375 209.9140625 C69.859375 228.7240625 69.859375 247.5340625 69.859375 266.9140625 C80.09083051 261.79833475 88.32826938 254.40889656 96.859375 246.9140625 C97.74238281 246.14449219 98.62539063 245.37492187 99.53515625 244.58203125 C101.31403515 243.03064663 103.08918745 241.47534593 104.859375 239.9140625 C101.25277717 231.0596622 90.2068493 224.50365579 82.73828125 219.03125 C79.26298562 216.4754695 75.88102695 213.81234811 72.50390625 211.12890625 C71.06608337 209.81503314 71.06608337 209.81503314 69.859375 209.9140625 Z M-127.140625 215.4140625 C-127.72295898 215.86894043 -128.30529297 216.32381836 -128.90527344 216.79248047 C-130.65426743 218.16148755 -132.39768402 219.53736232 -134.140625 220.9140625 C-135.05328125 221.62820312 -135.9659375 222.34234375 -136.90625 223.078125 C-143.22558924 228.06603113 -149.44329064 233.21672814 -155.140625 238.9140625 C-148.4964659 245.30218464 -141.64332813 251.24364049 -134.328125 256.8515625 C-133.62373291 257.39449951 -132.91934082 257.93743652 -132.19360352 258.49682617 C-127.92937353 261.72626834 -123.87287582 264.20991917 -119.140625 266.9140625 C-119.140625 248.4340625 -119.140625 229.9540625 -119.140625 210.9140625 C-122.45189097 210.9140625 -124.63423171 213.4337112 -127.140625 215.4140625 Z M-97.140625 304.9140625 C-96.09047834 315.60897714 -94.70829431 326.22893117 -93.078125 336.8515625 C-92.9037793 337.9947998 -92.72943359 339.13803711 -92.54980469 340.31591797 C-91.67214474 346.19153681 -91.67214474 346.19153681 -90.140625 351.9140625 C-87.13462226 350.93027978 -84.13657132 349.92795782 -81.140625 348.9140625 C-80.23135254 348.60807129 -80.23135254 348.60807129 -79.30371094 348.29589844 C-71.12829881 345.53050792 -63.06632816 342.58662747 -55.140625 339.1640625 C-54.45218506 338.87047852 -53.76374512 338.57689453 -53.05444336 338.27441406 C-49.43602456 336.85563926 -49.43602456 336.85563926 -47.140625 333.9140625 C-47.76291992 333.5830957 -48.38521484 333.25212891 -49.02636719 332.91113281 C-65.40083659 324.18008546 -81.77115816 315.34860468 -97.140625 304.9140625 Z M42.046875 308.4140625 C31.92421108 315.29166191 21.47002155 321.30443452 10.64306641 326.97363281 C6.35393122 329.23502739 2.10989235 331.58113821 -2.140625 333.9140625 C6.41858385 340.93966008 18.78917271 344.05902886 29.14453125 347.6171875 C31.33959805 348.38349894 33.52227122 349.19065341 35.66796875 350.0859375 C37.93664946 351.09081142 37.93664946 351.09081142 40.859375 350.9140625 C42.53031062 343.02734089 43.86641576 335.09215122 45.14648438 327.13476562 C45.4872034 325.02151989 45.83332439 322.90920213 46.1796875 320.796875 C46.39876386 319.44276109 46.61752541 318.08859621 46.8359375 316.734375 C47.03268066 315.52023926 47.22942383 314.30610352 47.43212891 313.05517578 C47.94922593 309.7818179 47.94922593 309.7818179 47.859375 305.9140625 C45.19517612 305.9140625 44.22895244 306.89187118 42.046875 308.4140625 Z M-32.02734375 348.30078125 C-33.6834668 349.0906543 -33.6834668 349.0906543 -35.37304688 349.89648438 C-36.51322266 350.45916016 -37.65339844 351.02183594 -38.828125 351.6015625 C-46.82469151 355.47798893 -54.72501364 359.04932223 -63.140625 361.9140625 C-64.93379524 362.54239402 -66.72676549 363.1712966 -68.51953125 363.80078125 C-71.14323557 364.71345976 -73.76769212 365.62392889 -76.39257812 366.53320312 C-77.23884766 366.82775391 -78.08511719 367.12230469 -78.95703125 367.42578125 C-79.71443604 367.68834717 -80.47184082 367.95091309 -81.25219727 368.22143555 C-83.19066357 368.89246796 -83.19066357 368.89246796 -85.140625 369.9140625 C-78.62451392 398.99994381 -69.83622288 430.50651259 -49.140625 452.9140625 C-48.521875 453.60113281 -47.903125 454.28820312 -47.265625 454.99609375 C-41.79504734 460.7963714 -36.04977975 464.60312943 -27.93359375 465.1171875 C-17.31520859 465.25523801 -11.01303632 463.32946763 -2.8203125 456.53125 C7.90571854 446.05538878 17.03946186 431.39581328 21.7421875 417.18359375 C22.65271336 414.51887296 23.62861672 411.91777848 24.6640625 409.30078125 C33.07748111 390.14064537 33.07748111 390.14064537 36.859375 369.9140625 C34.13254095 368.82455305 31.40310055 367.74246743 28.671875 366.6640625 C27.92228516 366.36371094 27.17269531 366.06335938 26.40039062 365.75390625 C21.84366435 363.96172102 17.28921767 362.43187469 12.5859375 361.06640625 C5.53031999 358.93861182 -0.955893 355.93136713 -7.578125 352.7265625 C-9.82352718 351.64288407 -12.07212841 350.56580352 -14.32421875 349.49609375 C-15.78686157 348.78803589 -15.78686157 348.78803589 -17.27905273 348.06567383 C-23.062065 345.738358 -26.39355189 345.54890298 -32.02734375 348.30078125 Z " fill="#FFFFFF" transform="translate(291.140625,23.0859375)"/>
<path d="M0 0 C8.96858807 4.90930449 16.65746339 12.84869669 20.20703125 22.46875 C22.58691619 32.14100964 21.90807296 42.71580131 16.9375 51.4375 C10.21778586 60.43962179 3.04657611 66.22530303 -8.0625 68.4375 C-17.09030244 69.39050625 -25.65798021 68.09637354 -33.1875 62.8125 C-41.8952331 55.69441391 -47.67500459 48.5249564 -48.875 37.125 C-49.49110038 25.4324862 -46.76837912 18.07471063 -39.171875 9.23828125 C-29.40923409 -1.15854696 -13.64988916 -5.61348693 0 0 Z " fill="#808080" transform="translate(280.0625,228.5625)"/>
<path d="M0 0 C6.68419628 6.52814501 10.52608796 12.8391435 11.25 22.25 C10.69246657 30.61300144 7.52685629 36.79210929 2 43 C1.49726563 43.56976563 0.99453125 44.13953125 0.4765625 44.7265625 C-5.00168781 50.15136647 -12.13319891 51.89496113 -19.71484375 52.05859375 C-28.53714922 51.41969027 -36.04383352 48.72423661 -42 42 C-47.75572599 33.43333806 -48.66453302 26.25103721 -48 16 C-46.6080355 8.91041809 -42.39614003 2.61063826 -36.703125 -1.765625 C-24.2180593 -9.75296517 -11.56318579 -9.90506859 0 0 Z " fill="#FFD736" transform="translate(478,296)"/>
<path d="M0 0 C7.57231906 4.25007631 13.52543623 10.87815466 16.1484375 19.32421875 C17.76531552 27.57639809 16.73813757 35.1448372 12.5625 42.4375 C7.28569761 50.01322533 1.69874444 53.6842873 -7.0625 56.1875 C-15.37896279 57.06291714 -22.3350752 55.64649797 -29.6875 51.6875 C-37.15753798 45.57565074 -41.22929895 38.76067782 -42.8203125 29.1171875 C-43.24814622 21.15948032 -40.30053413 13.35539091 -35.4375 7.125 C-25.68835457 -2.93528837 -12.75004141 -5.84705237 0 0 Z " fill="#46926E" transform="translate(141.4375,373.5625)"/>
<path d="M0 0 C8.53931002 5.04982453 13.3931429 11.6169287 16.5 20.9375 C17.59950146 30.61032928 16.03759594 37.89031271 10.5 45.9375 C6.17231281 50.95084956 1.10000197 54.75701184 -5.5 55.9375 C-16.2406812 56.70913642 -24.82684757 56.189592 -33.34765625 49.18359375 C-38.95656916 43.33037248 -42.32693935 35.47501562 -42.6640625 27.37109375 C-42.06075115 18.42197539 -38.13208119 10.17903317 -31.5078125 4.11328125 C-22.4662493 -2.93231422 -10.6672457 -4.98132518 0 0 Z " fill="#FF5255" transform="translate(226.5,49.0625)"/>
<path d="" fill="#000000" transform="translate(0,0)"/>
<path d="" fill="#000000" transform="translate(0,0)"/>
<path d="" fill="#000000" transform="translate(0,0)"/>
<path d="" fill="#000000" transform="translate(0,0)"/>
<path d="" fill="#808080" transform="translate(0,0)"/>
<path d="" fill="#000000" transform="translate(0,0)"/>
<path d="" fill="#000000" transform="translate(0,0)"/>
<path d="" fill="#000000" transform="translate(0,0)"/>
<path d="" fill="#000000" transform="translate(0,0)"/>
<path d="" fill="#808080" transform="translate(0,0)"/>
<path d="" fill="#000000" transform="translate(0,0)"/>
<path d="" fill="#000000" transform="translate(0,0)"/>
<path d="" fill="#000000" transform="translate(0,0)"/>
<path d="" fill="#000000" transform="translate(0,0)"/>
<path d="" fill="#000000" transform="translate(0,0)"/>
<path d="" fill="#000000" transform="translate(0,0)"/>
<path d="" fill="#000000" transform="translate(0,0)"/>
<path d="" fill="#000000" transform="translate(0,0)"/>
<path d="" fill="#000000" transform="translate(0,0)"/>
</svg>
