<?xml version="1.0" encoding="UTF-8"?>
<svg version="1.1" xmlns="http://www.w3.org/2000/svg" width="528" height="538">
<path d="M0 0 C174.24 0 348.48 0 528 0 C528 177.54 528 355.08 528 538 C353.76 538 179.52 538 0 538 C0 360.46 0 182.92 0 0 Z " fill="#FEFEFE" transform="translate(0,0)"/>
<path d="M0 0 C1.74719645 1.20340044 3.47806423 2.43103775 5.1875 3.6875 C5.86039063 4.16445313 6.53328125 4.64140625 7.2265625 5.1328125 C28.3249967 21.71635543 39.9580422 52.37859676 48.1875 76.875 C48.56124756 77.98447998 48.93499512 79.09395996 49.32006836 80.23706055 C51.51740967 86.99282989 53.12130933 93.66344291 54.1875 100.6875 C54.90292969 100.49833008 55.61835938 100.30916016 56.35546875 100.11425781 C66.20840695 97.53177439 76.19036069 95.61732134 86.1875 93.6875 C86.96367676 93.53748535 87.73985352 93.3874707 88.53955078 93.23291016 C100.81083652 90.87150814 112.5611984 89.41863306 125.0625 89.375 C125.80160614 89.37204926 126.54071228 89.36909851 127.30221558 89.36605835 C147.83452418 89.34736954 167.61280346 93.33701289 183.296875 107.5546875 C191.37417157 116.66667908 193.38383215 125.08607581 193.4375 136.8125 C193.4684375 138.46765625 193.4684375 138.46765625 193.5 140.15625 C193.53234911 146.96573843 192.82889686 152.41777912 190.1875 158.6875 C189.89681641 159.42838867 189.60613281 160.16927734 189.30664062 160.93261719 C182.31748006 178.37596613 172.49217052 194.47076916 160.1875 208.6875 C159.21423163 209.8432348 158.24163247 210.99953333 157.26953125 212.15625 C149.97834828 220.76314348 142.28020398 228.83320628 134.1875 236.6875 C135.54190214 239.72929954 137.04834538 241.76989455 139.4453125 244.0703125 C140.07050781 244.68003906 140.69570313 245.28976562 141.33984375 245.91796875 C141.99082031 246.54316406 142.64179688 247.16835938 143.3125 247.8125 C144.61127053 249.06043802 145.90578638 250.3128243 147.1953125 251.5703125 C147.76910645 252.12090332 148.34290039 252.67149414 148.93408203 253.23876953 C150.1875 254.6875 150.1875 254.6875 150.1875 256.6875 C149.3625 257.05875 148.5375 257.43 147.6875 257.8125 C143.24777939 260.07747618 143.24777939 260.07747618 136.1875 265.6875 C131.2375 260.7375 126.2875 255.7875 121.1875 250.6875 C116.31506552 252.63647379 114.36231801 254.13382984 110.6875 257.6875 C105.07735354 262.98858346 99.18367665 267.72275166 92.99707031 272.33691406 C91.01099091 273.81923884 89.03257029 275.31144543 87.0546875 276.8046875 C84.3434019 278.84806952 81.63144545 280.89051264 78.9140625 282.92578125 C77.99065063 283.63190552 77.99065063 283.63190552 77.04858398 284.35229492 C75.1875 285.6875 75.1875 285.6875 73.21899414 286.7824707 C70.29998825 288.47760787 68.55394625 289.66461649 67.390625 292.91186523 C66.88301168 295.69561041 66.59672888 298.42911587 66.375 301.25 C66.26720215 302.27359619 66.1594043 303.29719238 66.04833984 304.35180664 C65.72742414 307.46160972 65.45004172 310.57227362 65.1875 313.6875 C64.90293624 317.00067896 64.61368766 320.3132879 64.3125 323.625 C64.24264893 324.41237549 64.17279785 325.19975098 64.10083008 326.01098633 C63.04041166 336.71917518 60.56193442 347.20742487 58.1875 357.6875 C59.486875 357.80351562 60.78625 357.91953125 62.125 358.0390625 C66.97948429 358.57950313 71.50067325 359.72453597 76.1875 361.0625 C82.52478595 362.80008226 88.83690844 364.31302228 95.3125 365.4375 C95.97378906 365.55270996 96.63507813 365.66791992 97.31640625 365.78662109 C106.73536171 367.35249875 115.89069078 367.86966659 125.4375 367.875 C126.57574219 367.88724609 127.71398437 367.89949219 128.88671875 367.91210938 C143.16870841 367.93642604 157.01439531 366.53560068 168.296875 356.8828125 C169.78950762 355.22022667 171.00967708 353.58264364 172.1875 351.6875 C172.785625 350.759375 173.38375 349.83125 174 348.875 C175.61767924 344.53280836 175.92374005 340.28965639 176.1875 335.6875 C182.6875 332.6875 182.6875 332.6875 187.1875 332.6875 C187.1875 332.0275 187.1875 331.3675 187.1875 330.6875 C189.1675 330.0275 191.1475 329.3675 193.1875 328.6875 C193.65600929 344.616816 192.7854957 355.95818908 181.8125 368.375 C180.94625 369.138125 180.08 369.90125 179.1875 370.6875 C178.68347656 371.15671875 178.17945313 371.6259375 177.66015625 372.109375 C173.39788008 375.72811275 168.75465875 377.89172371 163.5625 379.875 C162.94850342 380.11275146 162.33450684 380.35050293 161.7019043 380.59545898 C150.15503144 384.77186305 138.60127241 386.22317796 126.375 386.125 C125.37395737 386.12043793 125.37395737 386.12043793 124.35269165 386.11578369 C101.56059813 385.96387466 75.30520907 382.59192798 54.1875 373.6875 C53.97996094 374.65945313 53.77242188 375.63140625 53.55859375 376.6328125 C49.84348008 393.48269083 45.14713423 410.23310458 37.23876953 425.63232422 C36.01966894 428.01560076 34.83806893 430.4163577 33.65234375 432.81640625 C28.38146905 443.32996916 22.81646781 452.7176044 15.1875 461.6875 C14.38183594 462.698125 13.57617188 463.70875 12.74609375 464.75 C4.40284448 474.32881443 -7.98861929 481.79092679 -20.80859375 482.9609375 C-35.76134386 483.40222184 -47.40719208 477.79389499 -58.20141602 467.74780273 C-65.3282411 460.85468088 -70.73412229 453.16613061 -75.8125 444.6875 C-76.24868652 443.96191895 -76.68487305 443.23633789 -77.13427734 442.48876953 C-82.88110511 432.81483857 -87.35543888 423.41091223 -90.8125 412.6875 C-91.27491047 411.43644061 -91.74411937 410.1878808 -92.21875 408.94140625 C-94.05963701 404.08494338 -95.72425948 399.17382173 -97.375 394.25 C-97.67857422 393.35990234 -97.98214844 392.46980469 -98.29492188 391.55273438 C-100.16521866 385.97444178 -101.63371168 380.45241998 -102.8125 374.6875 C-108.4225 375.6775 -114.0325 376.6675 -119.8125 377.6875 C-122.8125 364.0625 -122.8125 364.0625 -122.8125 360.6875 C-115.3875 358.7075 -115.3875 358.7075 -107.8125 356.6875 C-108.53002964 349.89065671 -109.42700422 343.13480156 -110.40625 336.37109375 C-110.63362854 334.78724632 -110.63362854 334.78724632 -110.86560059 333.17140198 C-111.34655535 329.82240626 -111.82939348 326.47368594 -112.3125 323.125 C-112.7953611 319.77270908 -113.27779851 316.42035856 -113.75939941 313.06788635 C-114.05800769 310.98975965 -114.35736414 308.91174027 -114.65759277 306.83384705 C-114.86285583 305.40680199 -114.86285583 305.40680199 -115.07226562 303.95092773 C-115.20242569 303.05427399 -115.33258575 302.15762024 -115.46669006 301.23379517 C-115.78775476 298.86970611 -116.03628255 296.50731587 -116.27709961 294.1340332 C-116.49836265 290.59058844 -116.49836265 290.59058844 -118.97265625 288.359375 C-119.93042969 287.72515625 -120.88820313 287.0909375 -121.875 286.4375 C-122.9578125 285.68984375 -124.040625 284.9421875 -125.15625 284.171875 C-125.74535156 283.77548828 -126.33445312 283.37910156 -126.94140625 282.97070312 C-130.32929758 280.64727452 -133.59473272 278.15938787 -136.875 275.6875 C-137.55852539 275.17566162 -138.24205078 274.66382324 -138.94628906 274.13647461 C-143.79518891 270.49399127 -148.53455596 266.74097771 -153.1953125 262.859375 C-155.09010048 261.28698378 -157.00417789 259.73774168 -158.9296875 258.203125 C-159.94289063 257.39359375 -160.95609375 256.5840625 -162 255.75 C-162.92167969 255.01910156 -163.84335938 254.28820312 -164.79296875 253.53515625 C-165.45941406 252.92542969 -166.12585938 252.31570313 -166.8125 251.6875 C-166.8125 251.0275 -166.8125 250.3675 -166.8125 249.6875 C-171.00871578 251.95406911 -174.24578478 254.8093142 -177.5625 258.1875 C-178.3512854 258.98426147 -178.3512854 258.98426147 -179.15600586 259.79711914 C-183.20869791 263.94716947 -186.9290138 268.29918047 -190.53125 272.84765625 C-192.16429779 274.88057704 -193.81167711 276.85239897 -195.53125 278.80859375 C-205.83771205 290.55746311 -213.22268777 303.57190913 -219.8125 317.6875 C-220.27140625 318.64398438 -220.7303125 319.60046875 -221.203125 320.5859375 C-224.79900741 329.01853498 -225.50011845 338.88537815 -222.9296875 347.72265625 C-218.91398555 356.53858471 -212.37296395 360.78272697 -203.8125 364.6875 C-204.1425 370.2975 -204.4725 375.9075 -204.8125 381.6875 C-217.71661503 379.10667699 -228.1920283 372.54951563 -235.8125 361.6875 C-239.02815846 355.91431007 -241.46799176 350.3479926 -241.8125 343.6875 C-241.88597656 342.81351562 -241.95945313 341.93953125 -242.03515625 341.0390625 C-243.01465639 321.0974442 -233.90209326 301.73059367 -222.8125 285.6875 C-222.43722168 285.1423877 -222.06194336 284.59727539 -221.67529297 284.03564453 C-210.25548395 267.52091467 -197.06124514 252.8049203 -182.8125 238.6875 C-184.35377351 234.97481906 -186.62093234 232.70634302 -189.5 229.9375 C-193.8378731 225.6801874 -197.87813848 221.31424398 -201.8125 216.6875 C-202.61042969 215.7903125 -203.40835938 214.893125 -204.23046875 213.96875 C-214.57663316 202.22913714 -223.5631746 189.36961576 -230.9375 175.5625 C-231.29150879 174.90088867 -231.64551758 174.23927734 -232.01025391 173.55761719 C-234.48020452 168.75312197 -236.24378476 163.8509971 -237.8125 158.6875 C-238.01294922 158.03201172 -238.21339844 157.37652344 -238.41992188 156.70117188 C-242.82133532 141.77930677 -243.95158232 128.16491477 -236.375 114 C-232.07632667 107.22132282 -226.55620972 102.92077763 -219.8125 98.6875 C-219.16667969 98.27757813 -218.52085937 97.86765625 -217.85546875 97.4453125 C-195.53982976 84.90188144 -162.02978779 87.7493737 -137.8125 92.6875 C-136.14405029 93.02539551 -136.14405029 93.02539551 -134.44189453 93.37011719 C-111.66999269 98.06250908 -111.66999269 98.06250908 -102.8125 101.6875 C-101.8225 97.3975 -100.8325 93.1075 -99.8125 88.6875 C-95.3894382 89.42467697 -92.42351389 90.08018337 -88.4375 91.75 C-86.91125 92.389375 -85.385 93.02875 -83.8125 93.6875 C-84.4725 98.3075 -85.1325 102.9275 -85.8125 107.6875 C-84.4925 107.89375 -83.1725 108.1 -81.8125 108.3125 C-67.93258692 111.16163611 -54.96065074 117.73960988 -42.12915039 123.54833984 C-41.01145264 124.05316895 -39.89375488 124.55799805 -38.7421875 125.078125 C-37.24534424 125.7592334 -37.24534424 125.7592334 -35.71826172 126.45410156 C-31.08035617 128.42273699 -27.01023661 129.96621929 -21.9375 129.8125 C-21.15632812 129.79445312 -20.37515625 129.77640625 -19.5703125 129.7578125 C-18.99023438 129.73460937 -18.41015625 129.71140625 -17.8125 129.6875 C-17.8125 129.0275 -17.8125 128.3675 -17.8125 127.6875 C-17.00167969 127.38457031 -16.19085938 127.08164063 -15.35546875 126.76953125 C-9.9946914 124.74129768 -4.68972231 122.68663792 0.5 120.25 C5.68194945 117.84084806 10.97005945 115.82928702 16.33056641 113.86108398 C20.97242884 112.1566936 25.54169249 110.33202691 30.07421875 108.3515625 C32.5315732 107.57938088 34.6267989 107.57090065 37.1875 107.6875 C31.02418932 79.86652219 22.3503035 48.55809096 3.1875 26.6875 C2.56875 25.82125 1.95 24.955 1.3125 24.0625 C-4.44936773 17.62276548 -12.11597318 11.53938633 -20.81640625 10.23828125 C-30.61735834 9.71756951 -37.30779561 12.9495538 -44.75 19.125 C-46.8125 20.6875 -46.8125 20.6875 -48.58203125 20.5078125 C-51.52962195 19.42375988 -53.93713124 17.84399145 -56.5625 16.125 C-57.54734375 15.48433594 -58.5321875 14.84367187 -59.546875 14.18359375 C-60.66835938 13.44302734 -60.66835938 13.44302734 -61.8125 12.6875 C-55.57239376 4.59222705 -47.54524738 -1.94347206 -37.8125 -5.3125 C-36.760625 -5.704375 -35.70875 -6.09625 -34.625 -6.5 C-22.23513786 -9.14046242 -10.74195584 -6.58760828 0 0 Z " fill="#050505" transform="translate(290.8125,24.3125)"/>
<path d="M0 0 C1.91821677 0.87545215 3.80463962 1.82216353 5.6640625 2.81640625 C6.77289795 3.40776367 7.8817334 3.99912109 9.02416992 4.60839844 C10.22480955 5.2590964 11.42507686 5.91048174 12.625 6.5625 C13.23759674 6.89302368 13.85019348 7.22354736 14.48135376 7.56408691 C27.20266205 14.43299677 39.66009595 21.69319644 52.00048828 29.22509766 C54.77176262 30.864945 57.5741273 32.3765444 60.43359375 33.85546875 C61.23708252 34.29793945 62.04057129 34.74041016 62.8684082 35.19628906 C65.07514775 36.4456787 65.07514775 36.4456787 67.24291992 37.40917969 C69.55276368 38.73761586 70.62354919 39.7002275 72 42 C73.11945401 47.64588585 73.01303128 53.26230181 73 59 C73.02154217 61.01996498 73.04559439 63.0399043 73.07177734 65.05981445 C73.13228211 70.68609412 73.1406263 76.31118557 73.13037109 81.93774414 C73.12501467 85.42794142 73.13034576 88.91800975 73.13671875 92.40820312 C73.14245777 97.94030419 73.08811815 103.4698387 73.01385498 109.00137329 C73.00091352 111.80228766 73.06475596 114.59008118 73.15087891 117.3894043 C73.31781191 128.30183626 73.31781191 128.30183626 69.97412109 132.6105957 C67.13532897 134.79466364 64.3386858 136.35938986 61.125 137.9375 C60.02945801 138.54408447 58.93391602 139.15066895 57.80517578 139.77563477 C55.58705003 140.99940043 53.35435527 142.19715563 51.10742188 143.3671875 C47.67107107 145.17283758 44.35965405 147.13242754 41.03881836 149.1394043 C31.90054897 154.62154109 22.45069429 159.58796658 13.0625 164.625 C12.05905548 165.16542435 12.05905548 165.16542435 11.03533936 165.71676636 C9.121235 166.7458677 7.20382531 167.76850196 5.28515625 168.7890625 C4.17019775 169.38412598 3.05523926 169.97918945 1.90649414 170.59228516 C-2.68324112 172.81525143 -2.68324112 172.81525143 -5 173 C-7.31494141 172.09130859 -7.31494141 172.09130859 -9.8515625 170.6484375 C-11.25341797 169.86533203 -11.25341797 169.86533203 -12.68359375 169.06640625 C-13.65425781 168.50824219 -14.62492187 167.95007813 -15.625 167.375 C-17.53288411 166.29775931 -19.44173354 165.22222642 -21.3515625 164.1484375 C-22.28387695 163.62217773 -23.21619141 163.09591797 -24.17675781 162.55371094 C-28.38629773 160.2370807 -32.67989606 158.1016403 -37 156 C-37 155.34 -37 154.68 -37 154 C-37.70560059 153.90412598 -38.41120117 153.80825195 -39.13818359 153.70947266 C-42.50777273 152.87411811 -44.84583494 151.48753686 -47.7890625 149.6484375 C-48.89636719 148.96136719 -50.00367188 148.27429688 -51.14453125 147.56640625 C-52.30477465 146.83607593 -53.46493056 146.1056066 -54.625 145.375 C-55.76129485 144.66728769 -56.89801053 143.96025058 -58.03515625 143.25390625 C-60.2838877 141.85267359 -62.51885688 140.42910442 -64.73925781 138.98339844 C-67.9177939 136.94258916 -67.9177939 136.94258916 -71.25292969 135.61816406 C-74.62724479 134.0635572 -76.63121078 132.87897258 -79 130 C-80.67543084 124.5491722 -80.23365204 118.66299166 -80.07263184 113.02966309 C-79.99671072 109.86279573 -80.01483113 106.70747446 -80.05566406 103.54003906 C-80.12735598 97.75580942 -80.14073923 91.9735883 -80.13037109 86.18896484 C-80.1249759 82.60900705 -80.13037045 79.02917294 -80.13671875 75.44921875 C-80.14087565 69.90271178 -80.10382436 64.35802425 -80.03060913 58.81201172 C-80.01158946 57.06470481 -80.00258082 55.31722216 -80.00918579 53.56982422 C-80.04504116 43.44232634 -80.04504116 43.44232634 -77.67578125 40.17236328 C-75.83639366 38.69360904 -74.07723503 37.74097754 -71.9375 36.75 C-70.46924797 35.9572166 -69.00182231 35.16290115 -67.53515625 34.3671875 C-66.78121582 33.98014648 -66.02727539 33.59310547 -65.25048828 33.19433594 C-61.66260654 31.29024422 -58.28783632 29.07246021 -54.875 26.875 C-8.39353066 -2.27146451 -8.39353066 -2.27146451 0 0 Z " fill="#FDFDFD" transform="translate(270,176)"/>
<path d="M0 0 C1.17986984 -0.01164688 1.17986984 -0.01164688 2.38357544 -0.02352905 C18.65580575 -0.15025949 18.65580575 -0.15025949 26.25 3.375 C27.18070312 3.76300781 28.11140625 4.15101563 29.0703125 4.55078125 C36.1920022 8.06334346 42.73637365 11.95734437 46.25 19.375 C50.2629537 31.81515648 46.78839143 46.08074339 41.24121094 57.44091797 C32.68384802 73.77943975 21.40996882 88.71490467 8.61816406 101.94189453 C6.48020262 104.18133666 4.43133108 106.49826786 2.375 108.8125 C-0.89058168 112.4587688 -4.24448358 115.95936862 -7.75 119.375 C-11.63184707 117.7366185 -14.5532151 115.11702839 -17.6875 112.375 C-23.66749868 107.22979422 -29.82442217 102.38347142 -36.11181641 97.62207031 C-37.78416549 96.34899145 -39.4460909 95.06336896 -41.10546875 93.7734375 C-46.93960784 89.24219944 -52.82645329 84.83065702 -58.921875 80.65234375 C-60.75 79.375 -60.75 79.375 -61.75 78.375 C-62.06464579 75.86242703 -62.32248431 73.36484739 -62.546875 70.84375 C-62.69946593 69.2426061 -62.85281751 67.64153456 -63.00683594 66.04052734 C-63.08703979 65.1965741 -63.16724365 64.35262085 -63.24987793 63.48309326 C-64.74246817 47.91943448 -66.77886063 32.76596112 -70.35449219 17.52099609 C-70.75 15.375 -70.75 15.375 -70.75 11.375 C-48.94377652 5.18310938 -48.94377652 5.18310938 -39.75 3.375 C-39.08419922 3.23819824 -38.41839844 3.10139648 -37.73242188 2.96044922 C-25.19728474 0.47638607 -12.73607359 0.05817315 0 0 Z " fill="#FCFCFC" transform="translate(419.75,130.625)"/>
<path d="M0 0 C25.97309016 -1.02038999 50.86902765 3.98122496 75.70556641 11.10742188 C75.55967462 12.83159751 75.41060785 14.55550463 75.26025391 16.27929688 C75.17759277 17.23932617 75.09493164 18.19935547 75.00976562 19.18847656 C74.72296053 21.94051644 74.31508791 24.63405814 73.83056641 27.35742188 C72.9752279 32.25502678 72.28111984 37.15892064 71.64990234 42.08935547 C71.39349492 44.07405382 71.12707081 46.05748162 70.85107422 48.03955078 C70.17421742 52.97264237 69.63491396 57.82940673 69.44384766 62.80664062 C68.67869558 76.70175298 68.67869558 76.70175298 63.33056641 81.84960938 C59.7785908 84.75346063 55.97167474 87.203348 52.06933594 89.60693359 C48.20598558 92.05933509 44.62894602 94.86463866 41.01806641 97.66992188 C40.31963623 98.20214355 39.62120605 98.73436523 38.90161133 99.28271484 C32.92806231 103.8518288 27.21870705 108.69462615 21.56103516 113.64648438 C19.32806324 115.57093349 17.09386761 117.38414401 14.70556641 119.10742188 C11.63351651 117.74509655 9.60867279 116.22924884 7.30712891 113.79101562 C6.66984863 113.11796387 6.03256836 112.44491211 5.37597656 111.75146484 C4.70099121 111.02330566 4.02600586 110.29514648 3.33056641 109.54492188 C2.27361572 108.41014404 2.27361572 108.41014404 1.1953125 107.25244141 C-17.6233309 86.85537849 -43.31983863 58.37863907 -42.95678711 28.80932617 C-42.48938599 20.75085648 -38.79456583 15.249004 -33.10693359 9.79492188 C-23.20070327 1.99404251 -12.12438566 0.56764521 0 0 Z " fill="#FDFDFD" transform="translate(108.29443359375,130.892578125)"/>
<path d="M0 0 C10.52243822 4.9936995 21.41771913 9.17305091 32.25 13.4375 C33.47267578 13.92283203 34.69535156 14.40816406 35.95507812 14.90820312 C37.73495117 15.60913086 37.73495117 15.60913086 39.55078125 16.32421875 C40.61079346 16.74276123 41.67080566 17.16130371 42.76293945 17.5925293 C46.1279653 18.8194452 49.48408852 19.80514488 52.9375 20.75 C52.31534889 27.34480182 50.81330718 33.40535807 48.9375 39.75 C48.61007812 40.90113281 48.28265625 42.05226563 47.9453125 43.23828125 C39.92374739 70.31797864 27.98257108 102.6666525 1.8125 116.90625 C-4.10299641 119.48235328 -10.41553276 119.92589131 -16.5703125 117.94140625 C-31.94758688 110.97583839 -40.75755067 96.68787149 -49.0625 82.75 C-49.60519531 81.87214844 -50.14789063 80.99429688 -50.70703125 80.08984375 C-52.22111321 77.47619794 -53.24078267 74.78404652 -54.26025391 71.94628906 C-55.06420308 69.74533753 -55.94204508 67.58771849 -56.8359375 65.421875 C-59.31182564 59.25059755 -61.46846124 52.97516725 -63.58178711 46.67260742 C-64.2510681 44.68432693 -64.93306589 42.70068666 -65.61523438 40.71679688 C-67.87430781 34.04698795 -69.66831643 27.80665885 -70.0625 20.75 C-69.1653125 20.45867187 -68.268125 20.16734375 -67.34375 19.8671875 C-53.95760467 15.46967281 -40.82263777 10.75357359 -28.0625 4.75 C-25.79928676 3.73286768 -23.53122563 2.72848397 -21.2578125 1.734375 C-19.7186324 1.04420883 -18.19336681 0.32255745 -16.6796875 -0.421875 C-15.89851563 -0.79828125 -15.11734375 -1.1746875 -14.3125 -1.5625 C-13.61640625 -1.90925781 -12.9203125 -2.25601562 -12.203125 -2.61328125 C-7.76480253 -3.93343921 -3.99389438 -1.9035756 0 0 Z " fill="#FDFDFD" transform="translate(275.0625,371.25)"/>
<path d="M0 0 C8.41611305 6.09138252 14.21340107 13.15104244 16.4375 23.4375 C17.69120177 33.51935172 15.4086353 41.51925689 9.5625 49.75 C4.5077396 56.0652674 -1.84263823 60.86773779 -9.5625 63.4375 C-20.31323612 64.59134578 -29.58173048 64.11043594 -38.5625 57.4375 C-45.54350991 51.02700353 -51.20877594 44.0430911 -51.73046875 34.30078125 C-51.79255924 23.01272954 -51.46809901 14.94856064 -43.5625 6.4375 C-31.51728629 -5.12954833 -15.08123368 -9.29065761 0 0 Z " fill="#818181" transform="translate(284.5625,232.5625)"/>
<path d="M0 0 C6.81517127 5.12628043 11.03316222 9.64525532 12.4296875 18.265625 C13.2580173 27.98831573 11.67199362 34.40216581 6.3046875 42.453125 C1.3033779 48.03090954 -5.83443018 51.77953737 -13.234375 52.5390625 C-20.95710293 52.80395818 -26.06010473 51.39316893 -32.5703125 47.265625 C-33.4778125 46.70875 -34.3853125 46.151875 -35.3203125 45.578125 C-41.94661782 38.76775565 -44.92532454 31.55254065 -44.95092773 22.21850586 C-44.74187609 13.39526579 -41.53879391 7.82657092 -35.2578125 1.828125 C-24.82490598 -6.66577093 -11.28257522 -7.61316626 0 0 Z " fill="#499371" transform="translate(144.5703125,376.734375)"/>
<path d="M0 0 C7.0050615 3.55656699 13.63307924 8.77832944 16.78125 16.16796875 C17.37783005 18.4678877 17.67342899 20.60707178 17.84765625 22.9765625 C17.91597656 23.88921875 17.98429687 24.801875 18.0546875 25.7421875 C18.38843741 34.79051851 15.55891865 40.88637111 9.953125 47.890625 C4.64174797 53.15273137 -2.86706291 56.08849934 -10.27734375 56.2890625 C-18.72809154 56.17772195 -25.16909854 52.8965615 -31.2890625 47.14453125 C-37.12774384 40.35109699 -40.1691307 32.84144898 -39.67578125 23.8671875 C-38.25425605 16.01697369 -33.66606755 8.23992273 -27.1640625 3.5390625 C-18.92838438 -1.76067918 -9.44106812 -3.06512992 0 0 Z " fill="#FF5457" transform="translate(224.15234375,49.0234375)"/>
<path d="M0 0 C6.51673345 3.69281562 12.48275575 9.03093714 15.12109375 16.265625 C16.82727944 24.90224639 16.71748684 33.66488181 12.171875 41.3515625 C7.4479798 47.65773328 1.25529763 52.49420921 -6.4375 54.5 C-16.38510658 55.82468128 -23.43202811 53.91889908 -31.43359375 48.03125 C-37.37686615 42.81650776 -40.59811853 35.55101479 -41.8828125 27.8203125 C-42.29271754 19.0483446 -38.25824287 10.93007683 -32.4375 4.5 C-23.05913524 -3.62791613 -11.41317171 -5.28973198 0 0 Z " fill="#FFD738" transform="translate(471.4375,292.5)"/>
<path d="M0 0 C2.24790584 9.07308981 3.9044043 18.11873762 5.1875 27.375 C5.36474609 28.59316406 5.54199219 29.81132812 5.72460938 31.06640625 C6.52794341 36.75487971 7.24581584 42.25299525 7 48 C1.05956183 46.4494778 -3.58561389 43.28162697 -8.6875 40 C-18.52721967 33.77604421 -28.61704217 28.25674322 -39 23 C-39 22.34 -39 21.68 -39 21 C-40.175625 20.7834375 -40.175625 20.7834375 -41.375 20.5625 C-44 20 -44 20 -46 19 C-46 18.34 -46 17.68 -46 17 C-36.39609529 12.54495675 -26.71368526 8.57850877 -16.74609375 5.015625 C-13.18127006 3.69719803 -9.68484186 2.23073951 -6.19140625 0.734375 C-4 0 -4 0 0 0 Z " fill="#F5F5F5" transform="translate(333,148)"/>
<path d="M0 0 C-2.31536926 42.31536926 -2.31536926 42.31536926 -7 47 C-12.47943169 46.57349289 -17.03088938 45.48968899 -22.1875 43.5 C-23.17943359 43.11884033 -23.17943359 43.11884033 -24.19140625 42.72998047 C-33.56442008 39.07562091 -42.78194769 35.02550301 -52 31 C-52 30.01 -52 29.02 -52 28 C-51.43418213 27.71503662 -50.86836426 27.43007324 -50.28540039 27.13647461 C-35.15674829 19.47745244 -20.6004984 11.16896613 -6.15698242 2.30004883 C-2.34084507 0 -2.34084507 0 0 0 Z " fill="#F6F6F6" transform="translate(340,328)"/>
<path d="M0 0 C11.83809029 5.91904514 21.89706303 15.56411215 32 24 C33.17049158 24.97535803 34.34105577 25.95062894 35.51171875 26.92578125 C36.33285156 27.61027344 37.15398437 28.29476563 38 29 C36.6576514 32.06958372 35.27575559 33.88738927 32.68359375 35.99609375 C31.67244507 36.82536377 31.67244507 36.82536377 30.64086914 37.67138672 C29.91375732 38.2542041 29.18664551 38.83702148 28.4375 39.4375 C27.69040771 40.04352051 26.94331543 40.64954102 26.17358398 41.27392578 C20.6851714 45.70248721 15.14238105 50.06237114 9.5625 54.375 C8.83538818 54.94017334 8.10827637 55.50534668 7.35913086 56.08764648 C6.68503174 56.60270752 6.01093262 57.11776855 5.31640625 57.6484375 C4.72287354 58.10395996 4.12934082 58.55948242 3.51782227 59.02880859 C2 60 2 60 0 60 C0 40.2 0 20.4 0 0 Z " fill="#F7F7F7" transform="translate(360,232)"/>
<path d="M0 0 C0 19.47 0 38.94 0 59 C-11.49043715 53.25478142 -21.34905055 43.67434385 -31.18701172 35.49755859 C-33.43729152 33.6387899 -35.71263803 31.81287984 -38 30 C-36.50024443 26.2878978 -34.43055631 24.46088749 -31.3125 22 C-30.33410156 21.22140625 -29.35570312 20.4428125 -28.34765625 19.640625 C-27.81285645 19.21974609 -27.27805664 18.79886719 -26.72705078 18.36523438 C-24.86903195 16.8964697 -23.02542711 15.41087912 -21.18359375 13.921875 C-19.87256721 12.86437083 -18.56137089 11.80707712 -17.25 10.75 C-16.63680908 10.255 -16.02361816 9.76 -15.3918457 9.25 C-3.8464408 0 -3.8464408 0 0 0 Z " fill="#F9F9F9" transform="translate(173,233)"/>
<path d="M0 0 C2.38474026 0.71542208 4.76917525 1.43169505 7.15234375 2.15234375 C8.93135933 2.68189983 10.71470615 3.19735256 12.50390625 3.69140625 C18.01968637 5.24078269 23.0752467 7.29724774 28.2578125 9.734375 C32.43715602 11.66330278 36.7141806 13.32516614 41 15 C42.66714932 15.66545876 44.33394304 16.33181108 46 17 C46 17.66 46 18.32 46 19 C45.04222656 19.46148437 44.08445313 19.92296875 43.09765625 20.3984375 C28.84602807 27.34683041 15.32690063 35.37407545 2 43.95263672 C-2.78537982 47 -2.78537982 47 -5 47 C-5 47.66 -5 48.32 -5 49 C-5.66 49 -6.32 49 -7 49 C-6.5954063 37.32747174 -4.56908272 26.06421197 -2.47119141 14.60009766 C-1.86571497 11.25899712 -1.30241676 7.91276857 -0.75 4.5625 C-0.60046875 3.65628906 -0.4509375 2.75007812 -0.296875 1.81640625 C-0.19890625 1.21699219 -0.1009375 0.61757812 0 0 Z " fill="#F8F8F8" transform="translate(200,148)"/>
<path d="M0 0 C6.07197308 3.24171689 12.07079225 6.59101358 17.99609375 10.09375 C18.60168121 10.45154541 19.20726868 10.80934082 19.83120728 11.17797852 C22.3255022 12.65363962 24.81843465 14.1315491 27.30883789 15.61376953 C35.39445326 20.4213183 43.5119765 24.92810242 52 29 C52 29.66 52 30.32 52 31 C50.91203125 31.44730469 49.8240625 31.89460938 48.703125 32.35546875 C47.99776611 32.64566895 47.29240723 32.93586914 46.56567383 33.23486328 C45.00836576 33.87551864 43.45090873 34.51581202 41.89331055 35.15576172 C37.52197499 36.9537334 33.16311086 38.77731859 28.8125 40.625 C11.12230066 48 11.12230066 48 6 48 C5.80664062 46.90042969 5.61328125 45.80085938 5.4140625 44.66796875 C5.2888623 43.95793701 5.16366211 43.24790527 5.03466797 42.51635742 C4.75873961 40.94777539 4.4843559 39.37892095 4.21142578 37.80981445 C3.64537303 34.57051259 3.07253541 31.34221835 2.390625 28.125 C0.4338164 18.87463209 0.35060335 9.42015849 0 0 Z " fill="#F9F9F9" transform="translate(194,328)"/>
<path d="M0 0 C0.66 0.33 1.32 0.66 2 1 C-0.97 3.97 -3.94 6.94 -7 10 C-7 7 -7 7 -4.625 4.4375 C-3.75875 3.633125 -2.8925 2.82875 -2 2 C-1.34 1.34 -0.68 0.68 0 0 Z " fill="#FFDB4E" transform="translate(443,294)"/>
</svg>
