<?xml version="1.0" encoding="UTF-8"?>
<svg version="1.1" xmlns="http://www.w3.org/2000/svg" width="2358" height="765">
<path d="M0 0 C778.14 0 1556.28 0 2358 0 C2358 252.45 2358 504.9 2358 765 C1579.86 765 801.72 765 0 765 C0 512.55 0 260.1 0 0 Z " fill="#121212" transform="translate(0,0)"/>
<path d="M0 0 C32.34056085 21.64873609 44.59591124 64.57466346 54.859375 99.9140625 C57.92463178 99.9140625 60.34204201 99.41163931 63.3203125 98.70703125 C64.42173584 98.45139404 65.52315918 98.19575684 66.65795898 97.93237305 C67.83817627 97.65820557 69.01839355 97.38403809 70.234375 97.1015625 C82.05580219 94.41498191 93.81905959 92.30642332 105.859375 90.9140625 C106.96925781 90.78257813 108.07914063 90.65109375 109.22265625 90.515625 C122.86959674 89.14908427 136.36154176 89.53298405 149.859375 91.9140625 C150.86226562 92.08550781 151.86515625 92.25695312 152.8984375 92.43359375 C164.73065945 94.90528432 178.76119031 100.71248544 185.859375 110.9140625 C193.79671366 124.31178369 196.37596009 137.71305838 192.80078125 153.05078125 C188.62564908 168.54326918 181.66487193 182.31118089 172.13378906 195.19091797 C170.74459104 197.06926273 169.37674554 198.96231218 168.0078125 200.85546875 C160.00703451 211.81872516 151.26729486 221.63425655 141.5859375 231.15625 C139.17018944 233.615722 137.01213448 236.22311315 134.859375 238.9140625 C135.42785156 239.4709375 135.99632812 240.0278125 136.58203125 240.6015625 C140.44600191 244.42037824 144.2713455 248.26450334 147.921875 252.2890625 C148.49035156 252.91554688 149.05882812 253.54203125 149.64453125 254.1875 C150.859375 255.9140625 150.859375 255.9140625 150.859375 258.9140625 C150.17230469 259.22859375 149.48523437 259.543125 148.77734375 259.8671875 C147.42576172 260.50914062 147.42576172 260.50914062 146.046875 261.1640625 C144.70689453 261.79054688 144.70689453 261.79054688 143.33984375 262.4296875 C140.73205735 263.99025259 139.6462138 265.51795775 137.859375 267.9140625 C134.859375 267.9140625 134.859375 267.9140625 133.28125 266.41015625 C132.72953125 265.73082031 132.1778125 265.05148437 131.609375 264.3515625 C128.22902486 260.30811596 124.63539835 256.58679037 120.859375 252.9140625 C117.13948993 254.52337448 114.37228073 256.85980583 111.296875 259.4765625 C110.22424801 260.38185375 109.15132505 261.28679442 108.078125 262.19140625 C107.26988281 262.87565674 107.26988281 262.87565674 106.4453125 263.57373047 C100.60790967 268.50712664 94.72272988 273.34607773 88.546875 277.8515625 C87.65226562 278.5321875 86.75765625 279.2128125 85.8359375 279.9140625 C82.859375 281.9140625 82.859375 281.9140625 79.1953125 283.4765625 C74.76557606 285.5305105 71.40145782 287.63977199 68.859375 291.9140625 C66.37666587 300.49361611 65.97711603 309.56269803 65.3618927 318.4360199 C64.86236108 325.53159358 63.86299699 332.51697796 62.734375 339.5390625 C62.57501465 340.59158203 62.4156543 341.64410156 62.25146484 342.72851562 C61.44310854 347.92862821 60.44792424 352.89537152 58.859375 357.9140625 C59.68115234 358.07841797 59.68115234 358.07841797 60.51953125 358.24609375 C61.31230469 358.40464844 62.10507813 358.56320312 62.921875 358.7265625 C63.85128906 358.91089844 64.78070312 359.09523438 65.73828125 359.28515625 C67.81105217 359.70282348 69.88145405 360.13243337 71.94921875 360.57421875 C118.81787591 371.03770551 118.81787591 371.03770551 164.3515625 360.4140625 C169.94035661 355.99215947 173.15738898 350.45924473 174.24609375 343.41015625 C174.39748933 341.86393579 174.5147707 340.31370252 174.5859375 338.76171875 C174.859375 336.9140625 174.859375 336.9140625 176.859375 334.9140625 C178.27804075 334.38171445 179.71951718 333.90860844 181.171875 333.4765625 C184.75377287 332.34786156 187.67944352 330.93765526 190.859375 328.9140625 C191.519375 328.9140625 192.179375 328.9140625 192.859375 328.9140625 C196.42616853 336.04764956 194.21206157 348.17507898 191.859375 355.3515625 C187.31187593 366.44085492 179.14726363 375.76171251 168.04199219 380.7265625 C140.93054969 391.37318718 111.79008145 387.92848363 83.796875 383.5390625 C82.52545654 383.34231934 81.25403809 383.14557617 79.9440918 382.94287109 C71.34787859 381.53174489 63.17157843 379.47818491 54.859375 376.9140625 C54.67906738 377.58920898 54.49875977 378.26435547 54.31298828 378.95996094 C47.88068973 402.82532106 40.73535592 427.23569604 26.859375 447.9140625 C25.94913 449.30983796 25.03897731 450.70567362 24.12890625 452.1015625 C15.49878401 465.16627664 3.77312944 479.67227238 -12.140625 483.9140625 C-16.08648264 484.35573304 -19.98585732 484.37858414 -23.953125 484.3515625 C-24.98244141 484.37154297 -26.01175781 484.39152344 -27.07226562 484.41210938 C-39.27255685 484.40439256 -47.23674089 479.93435506 -56.140625 471.9140625 C-57.01589844 471.13289063 -57.89117188 470.35171875 -58.79296875 469.546875 C-82.28935488 447.36520775 -96.09445714 413.1910425 -102.484375 381.984375 C-102.98450522 379.0176497 -102.98450522 379.0176497 -104.140625 376.9140625 C-105.60435547 377.3471875 -105.60435547 377.3471875 -107.09765625 377.7890625 C-108.38275115 378.16427269 -109.66791081 378.53926112 -110.953125 378.9140625 C-112.21769531 379.2853125 -113.48226563 379.6565625 -114.78515625 380.0390625 C-118.140625 380.9140625 -118.140625 380.9140625 -121.140625 380.9140625 C-121.27339844 379.96144531 -121.40617187 379.00882812 -121.54296875 378.02734375 C-121.80787109 376.14595703 -121.80787109 376.14595703 -122.078125 374.2265625 C-122.25214844 372.98519531 -122.42617187 371.74382812 -122.60546875 370.46484375 C-123.03704016 367.60135171 -123.5727057 364.75365898 -124.140625 361.9140625 C-116.220625 359.9340625 -116.220625 359.9340625 -108.140625 357.9140625 C-108.58277344 355.77550781 -109.02492188 353.63695312 -109.48046875 351.43359375 C-111.00651442 343.88907609 -112.25084869 336.31735736 -113.38644409 328.70535278 C-113.71166112 326.54485494 -114.04956775 324.3865912 -114.38891602 322.22827148 C-115.32169141 316.20096148 -116.23421856 310.23303323 -116.4140625 304.125 C-116.38901705 296.78321299 -116.38901705 296.78321299 -119.44238281 290.33789062 C-122.7679656 287.30437901 -126.49077068 285.07104468 -130.41650391 282.90185547 C-132.7471044 281.56659497 -134.80190121 279.97279137 -136.890625 278.2890625 C-137.58800781 277.73863281 -138.28539062 277.18820312 -139.00390625 276.62109375 C-139.70902344 276.05777344 -140.41414063 275.49445313 -141.140625 274.9140625 C-142.33751953 273.96080078 -142.33751953 273.96080078 -143.55859375 272.98828125 C-145.23875735 271.64675527 -146.9171447 270.30300166 -148.59375 268.95703125 C-150.30943188 267.58080177 -152.02825308 266.2084779 -153.75 264.83984375 C-158.63249631 260.95603987 -163.43268373 257.00792448 -168.140625 252.9140625 C-176.91778311 256.53540746 -184.12641381 266.85348027 -189.88671875 274.09765625 C-192.28398121 277.09319565 -194.77163197 279.99876145 -197.265625 282.9140625 C-201.76402314 288.30378411 -205.53743928 293.89985621 -209.140625 299.9140625 C-209.65238281 300.72359375 -210.16414063 301.533125 -210.69140625 302.3671875 C-212.24124117 304.85012716 -213.70603606 307.362841 -215.140625 309.9140625 C-215.68074219 310.86539062 -216.22085937 311.81671875 -216.77734375 312.796875 C-222.43174564 323.7223295 -224.9848401 337.40844682 -222.1015625 349.578125 C-219.6856065 355.45105869 -214.92483698 360.31116711 -209.140625 362.9140625 C-206.830625 363.5740625 -204.520625 364.2340625 -202.140625 364.9140625 C-202.470625 371.1840625 -202.800625 377.4540625 -203.140625 383.9140625 C-210.90612902 382.83278979 -216.63008784 381.28159638 -223.140625 376.9140625 C-223.89214844 376.42035156 -224.64367188 375.92664063 -225.41796875 375.41796875 C-233.31789117 369.786742 -239.4557147 362.31267822 -242.140625 352.9140625 C-242.54453138 348.52422842 -242.46508017 344.13323729 -242.453125 339.7265625 C-242.46923828 338.55802734 -242.48535156 337.38949219 -242.50195312 336.18554688 C-242.50793536 325.45940838 -240.38538665 316.44411731 -235.390625 306.9765625 C-235.04209473 306.29907959 -234.69356445 305.62159668 -234.33447266 304.92358398 C-227.20307139 291.19927501 -219.13880809 278.71003756 -209.140625 266.9140625 C-208.40682617 266.04273682 -208.40682617 266.04273682 -207.65820312 265.15380859 C-200.20277697 256.32317742 -192.44622509 247.95029178 -184.140625 239.9140625 C-185.50214772 236.84571244 -187.02136 234.82177577 -189.44921875 232.515625 C-190.10857422 231.87834473 -190.76792969 231.24106445 -191.44726562 230.58447266 C-192.50204102 229.57199463 -192.50204102 229.57199463 -193.578125 228.5390625 C-199.85249203 222.39810301 -205.48505623 216.08551074 -210.7578125 209.07421875 C-212.85172315 206.29721266 -215.02924095 203.63829802 -217.265625 200.9765625 C-222.27008872 194.72608944 -226.19530579 187.86024158 -230.140625 180.9140625 C-230.50752441 180.27742676 -230.87442383 179.64079102 -231.25244141 178.98486328 C-232.33575553 177.09498002 -233.39775709 175.19467118 -234.453125 173.2890625 C-235.06800781 172.18304688 -235.68289063 171.07703125 -236.31640625 169.9375 C-241.25253139 159.73527314 -242.78733092 149.91151614 -242.640625 138.6640625 C-242.65609375 137.46265625 -242.6715625 136.26125 -242.6875 135.0234375 C-242.63625966 123.34064029 -239.0369784 115.45150598 -231.140625 106.9140625 C-215.43780856 92.13144892 -192.13448533 89.42152914 -171.4140625 89.6953125 C-148.6118092 90.39236266 -126.21369893 95.53875434 -104.140625 100.9140625 C-103.95886719 100.14320313 -103.77710938 99.37234375 -103.58984375 98.578125 C-103.33847656 97.57523437 -103.08710937 96.57234375 -102.828125 95.5390625 C-102.58449219 94.54132813 -102.34085938 93.54359375 -102.08984375 92.515625 C-101.140625 89.9140625 -101.140625 89.9140625 -98.140625 87.9140625 C-97.17125 88.5328125 -96.201875 89.1515625 -95.203125 89.7890625 C-91.04535458 92.19170852 -86.83670464 93.10476079 -82.140625 93.9140625 C-82.65467669 98.88322886 -83.37447382 103.20432601 -85.140625 107.9140625 C-84.4194751 108.04224365 -83.6983252 108.1704248 -82.95532227 108.30249023 C-80.20881595 108.89924609 -77.73346795 109.70940118 -75.10546875 110.69921875 C-74.1407666 111.06112305 -73.17606445 111.42302734 -72.18212891 111.79589844 C-70.64564697 112.38032715 -70.64564697 112.38032715 -69.078125 112.9765625 C-68.01770996 113.3777832 -66.95729492 113.77900391 -65.86474609 114.19238281 C-36.22776494 125.45186661 -36.22776494 125.45186661 -28.11328125 130.19921875 C-24.45650402 131.52434792 -21.70665704 130.16726698 -18.28515625 128.63671875 C-17.18558594 128.08886719 -16.08601563 127.54101562 -14.953125 126.9765625 C-3.67211705 121.52390609 8.14121087 117.31746621 19.859375 112.9140625 C21.60288054 112.25655274 23.34637167 111.59900474 25.08984375 110.94140625 C28.67678652 109.59108635 32.26671708 108.24909852 35.859375 106.9140625 C32.24049262 93.12507336 28.39713061 79.77313449 22.63085938 66.72509766 C21.46056981 63.97787993 20.48693508 61.16353753 19.484375 58.3515625 C12.93582643 41.26561005 2.17620488 22.27559562 -15.078125 14.5390625 C-21.68344349 12.13529216 -27.14968263 11.8683103 -33.703125 14.5390625 C-36.93608829 16.10194353 -39.59780317 17.97868152 -42.390625 20.2265625 C-45.81338466 22.89847963 -45.81338466 22.89847963 -48.765625 23.0390625 C-51.78132566 21.61057271 -54.40006626 19.81567469 -57.140625 17.9140625 C-59.12570448 16.88476203 -61.12176751 15.87542321 -63.140625 14.9140625 C-58.92385972 5.42634061 -49.44160016 -0.30279072 -40.29296875 -4.34375 C-26.05919048 -9.70720268 -12.93835404 -7.41945161 0 0 Z " fill="#FEFEFE" transform="translate(1745.140625,29.0859375)"/>
<path d="M0 0 C1.91029964 -0.01542371 3.82056174 -0.03699331 5.73071289 -0.06536865 C31.11001479 -0.40448622 55.35128578 3.99235829 74.46887207 21.9413147 C87.49013193 35.46676476 92.3755696 53.58401422 92.1361084 72.01211548 C91.51131429 90.27436987 85.07973882 105.87961599 72.78918457 119.35147095 C72.27227051 119.95990845 71.75535645 120.56834595 71.22277832 121.19522095 C65.46930858 127.53989936 56.23167781 134.53950184 47.78918457 136.35147095 C54.99298017 149.85104808 62.26162348 163.29887955 69.82556152 176.60073853 C73.98138814 183.91076944 78.08496427 191.24842434 82.16418457 198.60147095 C82.78623779 199.72263306 83.40829102 200.84379517 84.04919434 201.99893188 C85.31824267 204.28704222 86.5870396 206.575292 87.85559082 208.86367798 C90.47768248 213.59337513 93.1016109 218.32205018 95.72692871 223.04995728 C97.00271619 225.34766097 98.27795809 227.64566768 99.5526123 229.94400024 C102.25824518 234.8181901 104.97117879 239.68717505 107.73059082 244.53115845 C108.15936523 245.28501831 108.58813965 246.03887817 109.02990723 246.81558228 C109.80043598 248.16660118 110.57457155 249.51557264 111.35314941 250.86196899 C113.78918457 255.13190691 113.78918457 255.13190691 113.78918457 257.35147095 C101.90918457 257.35147095 90.02918457 257.35147095 77.78918457 257.35147095 C71.06446737 245.61378274 64.69295347 233.70340979 58.36364746 221.74990845 C57.61621292 220.33842751 56.8687358 218.92696913 56.12121582 217.51553345 C55.56767174 216.47033539 55.56767174 216.47033539 55.00294495 215.40402222 C51.62810818 209.03708284 48.21416381 202.69157003 44.78918457 196.35147095 C40.91600053 189.18119927 37.06465642 182.00023437 33.24621582 174.8006897 C32.85988983 174.07237946 32.47356384 173.34406921 32.07553101 172.59368896 C30.17640585 169.01217935 28.2793914 165.42956781 26.3848877 161.84561157 C25.69285308 160.53895894 25.00079684 159.23231776 24.30871582 157.9256897 C23.39763062 156.20225342 23.39763062 156.20225342 22.46813965 154.44400024 C20.98144582 151.70560404 19.39232167 149.02336611 17.78918457 146.35147095 C3.26918457 146.02147095 -11.25081543 145.69147095 -26.21081543 145.35147095 C-26.21081543 182.31147095 -26.21081543 219.27147095 -26.21081543 257.35147095 C-36.44081543 257.35147095 -46.67081543 257.35147095 -57.21081543 257.35147095 C-57.21081543 174.19147095 -57.21081543 91.03147095 -57.21081543 5.35147095 C-37.84641574 1.72064601 -19.62218135 0.14775125 0 0 Z " fill="#FFFFFF" transform="translate(1381.2108154296875,140.64852905273438)"/>
<path d="M0 0 C9.9 0 19.8 0 30 0 C39.42151498 11.72455198 39.42151498 11.72455198 41.76953125 17.14453125 C44.8661036 23.88121816 48.60045495 29.97288209 52.625 36.1875 C53.88144387 38.189001 55.1340921 40.19289006 56.3828125 42.19921875 C56.98899414 43.17036621 57.59517578 44.14151367 58.21972656 45.14208984 C61.51278769 50.42850969 64.78679429 55.72669799 68.06005859 61.02539062 C73.0873269 69.15723395 78.15893109 77.26120372 83.24023438 85.359375 C83.84673828 86.32746094 84.45324219 87.29554688 85.078125 88.29296875 C85.61856445 89.1543042 86.15900391 90.01563965 86.71582031 90.90307617 C88 93 88 93 89 95 C95.67022713 84.57455502 102.01423918 73.96490024 108.3125 63.3125 C114.19801817 53.35962011 120.1342762 43.44929777 126.26196289 33.64282227 C131.36416787 25.46273243 136.30837833 17.18937086 141.24121094 8.90649414 C141.84739258 7.89063232 142.45357422 6.87477051 143.078125 5.828125 C143.88878418 4.4654248 143.88878418 4.4654248 144.71582031 3.07519531 C146 1 146 1 147 0 C156.57 0 166.14 0 176 0 C176 83.82 176 167.64 176 254 C165.44 254 154.88 254 144 254 C143.93184905 232.38741277 143.87676861 210.77491474 143.84456348 189.1622467 C143.82920178 179.12342436 143.80832147 169.08467431 143.77368164 159.04589844 C143.74344682 150.27940979 143.72434771 141.51297357 143.71773452 132.74643421 C143.71387887 128.1197795 143.70505194 123.49327458 143.68280983 118.8666687 C143.5788216 96.38648008 144.36783853 74.33908125 147 52 C146.62512388 52.70331546 146.25024776 53.40663092 145.86401176 54.13125896 C145.37077478 55.0564071 144.8775378 55.98155523 144.36935425 56.93473816 C143.63688382 58.30875432 143.63688382 58.30875432 142.88961601 59.71052837 C136.04962537 72.51799562 128.76800897 85.02879148 121.3008728 97.4813385 C118.5050717 102.14600707 115.73388178 106.82491006 112.96875 111.5078125 C111.68855133 113.67358292 110.4081636 115.83924148 109.12774658 118.00488281 C108.30378331 119.39933777 107.48048148 120.79418382 106.65789795 122.18945312 C104.78256015 125.36901757 102.89660101 128.54017837 100.97558594 131.69238281 C99.75593103 133.73438537 98.58583023 135.80810323 97.50097656 137.92480469 C95.56251377 141.47381045 94.3333368 143.52637148 90.44189453 144.90869141 C87.18757572 145.26103453 85.08687035 145.10293407 82 144 C78.7372059 140.97670556 76.84173533 137.39296016 74.75 133.5 C73.46861498 131.28578254 72.18602871 129.07225988 70.90234375 126.859375 C70.25894043 125.71919922 69.61553711 124.57902344 68.95263672 123.40429688 C65.90079143 118.08360036 62.59952283 112.92732485 59.3125 107.75 C48.28463063 90.13103866 37.8106681 72.32796838 28 54 C28.11834651 56.0212339 28.24522053 58.04196798 28.375 60.0625 C28.44460938 61.18785156 28.51421875 62.31320313 28.5859375 63.47265625 C28.87382609 67.24738265 29.44598651 70.95309763 30.01168823 74.69544983 C31.21006366 83.27521848 31.26831686 91.75158491 31.22705078 100.40014648 C31.22648506 102.08706658 31.22680636 103.77398717 31.22793579 105.46090698 C31.22850402 109.99091036 31.21683666 114.52080542 31.20278788 119.05078387 C31.19019107 123.80330512 31.18910302 128.5558295 31.18673706 133.30836487 C31.18054838 142.28583669 31.16417331 151.26325916 31.14403808 160.24070936 C31.12159727 170.4706017 31.11066518 180.70049654 31.10064721 190.9304074 C31.07980445 211.95363851 31.04316129 232.97680205 31 254 C20.77 254 10.54 254 0 254 C0 170.18 0 86.36 0 0 Z " fill="#FEFEFE" transform="translate(873,144)"/>
<path d="M0 0 C2.8939114 1.04580401 5.63778192 2.17372331 8.4375 3.4375 C9.74170898 4.024104 9.74170898 4.024104 11.07226562 4.62255859 C22.46624721 9.92795581 33.11541387 16.55470268 43.83276367 23.08837891 C46.96866213 24.98108568 50.12915064 26.82417306 53.30078125 28.65625 C58.04240026 31.40977534 62.64984617 34.29878695 67.1875 37.375 C67.84041016 37.81199219 68.49332031 38.24898437 69.16601562 38.69921875 C73.84350198 41.84350198 73.84350198 41.84350198 75 43 C76.13577333 51.93141456 76.14791717 60.94924599 76.1328125 69.9375 C76.13376923 71.22003662 76.13472595 72.50257324 76.13571167 73.82397461 C76.13717138 76.51645131 76.1350905 79.20889445 76.13037109 81.90136719 C76.12467488 85.3131935 76.12796327 88.72494108 76.13394356 92.13676453 C76.13847272 95.44534894 76.13528059 98.75391337 76.1328125 102.0625 C76.13483673 103.26704834 76.13686096 104.47159668 76.13894653 105.71264648 C76.12311983 111.52838005 76.01611843 117.33924368 75.73388672 123.1484375 C75.6872287 124.18790527 75.64057068 125.22737305 75.59249878 126.29833984 C74.86767035 129.60339322 73.81635958 130.58710252 71.125 132.5625 C69.09547097 133.72969695 67.05136918 134.87162892 65 136 C63.53873007 136.92416371 62.08482941 137.86003737 60.63671875 138.8046875 C52.14310527 144.33746525 43.54705138 149.47743219 34.546875 154.13671875 C30.94631269 156.0051774 27.44381434 158.02419518 23.9375 160.0625 C21.6279753 161.3807338 19.31653294 162.69425938 17 164 C16.3920459 164.34546875 15.7840918 164.6909375 15.15771484 165.046875 C2.32602192 172.25063243 2.32602192 172.25063243 -2.95703125 170.91015625 C-7.89026572 168.71236728 -12.41380859 165.83178186 -17 163 C-18.65859735 162.06881238 -20.32523945 161.15179414 -22 160.25 C-22.886875 159.76917969 -23.77375 159.28835938 -24.6875 158.79296875 C-26.3271875 157.90544922 -26.3271875 157.90544922 -28 157 C-49.05733536 145.60002577 -49.05733536 145.60002577 -56.26171875 140.80859375 C-58.46966647 139.35027735 -60.69384223 137.96625769 -62.95703125 136.59765625 C-64.34670708 135.73233735 -65.73603163 134.86645403 -67.125 134 C-67.78991455 133.60868896 -68.4548291 133.21737793 -69.13989258 132.81420898 C-71.0078125 131.625 -71.0078125 131.625 -74 129 C-75.00867787 124.23350172 -75.12628257 119.56672704 -75.12939453 114.70703125 C-75.13114685 114.01499603 -75.13289917 113.32296082 -75.13470459 112.60995483 C-75.13907147 110.34411032 -75.13620344 108.07834518 -75.1328125 105.8125 C-75.13348702 104.22501613 -75.13445829 102.63753235 -75.13571167 101.05004883 C-75.13718165 97.73159802 -75.13505663 94.41317422 -75.13037109 91.09472656 C-75.12467424 86.85484161 -75.12795699 82.61501997 -75.13394356 78.37513733 C-75.13756808 75.09964527 -75.1364019 71.82416806 -75.13381577 68.54867554 C-75.13315173 66.98587028 -75.13395651 65.42306365 -75.13629532 63.86026001 C-75.13885299 61.67112691 -75.13493767 59.48209441 -75.12939453 57.29296875 C-75.12859894 56.0505542 -75.12780334 54.80813965 -75.12698364 53.52807617 C-74.99700893 49.91689701 -74.7434446 46.53884874 -74 43 C-71.69234748 40.87080594 -69.74851086 39.38004333 -67.125 37.75 C-66.41174561 37.28456787 -65.69849121 36.81913574 -64.96362305 36.33959961 C-57.32393717 31.4208751 -49.44298914 26.89841871 -41.53125 22.43554688 C-38.90698112 20.94724624 -36.29620202 19.43727989 -33.6875 17.921875 C-23.29457197 11.89955785 -12.81989433 6.21699 -2 1 C-1.34 0.67 -0.68 0.34 0 0 Z " fill="#121212" transform="translate(1720,182)"/>
<path d="M0 0 C0.86914032 0.0064856 1.73828064 0.01297119 2.63375854 0.01965332 C25.40920809 0.19413981 45.94757075 2.9415283 67.1875 11.4375 C66.8575 31.2375 66.5275 51.0375 66.1875 71.4375 C57.2775 71.4375 48.3675 71.4375 39.1875 71.4375 C38.8575 58.8975 38.5275 46.3575 38.1875 33.4375 C25.28849928 30.85769986 14.49953363 29.23292975 1.57128906 29.19726562 C-0.54402379 29.18758456 -2.65835249 29.15649498 -4.7734375 29.125 C-19.78329245 29.0066391 -35.00201806 32.14395833 -46.3515625 42.74609375 C-52.17280573 49.48566145 -55.23511639 57.50361448 -54.6875 66.375 C-53.29313193 76.72184487 -48.14018757 84.20111686 -40.06640625 90.62109375 C-26.39864984 100.46665611 -11.30275607 107.17656938 4.0625 113.875 C61.82985017 139.06007495 61.82985017 139.06007495 74.96875 167.19921875 C81.42696526 184.35902789 80.69618098 203.50369767 73.65234375 220.34765625 C64.55849836 239.52960745 49.21044174 250.72320701 29.79296875 258.11328125 C17.30588696 262.01798833 4.75106179 263.01689713 -8.25 262.9375 C-9.02908722 262.93573761 -9.80817444 262.93397522 -10.61087036 262.93215942 C-24.77992512 262.86121215 -38.13026199 261.28667411 -51.8125 257.4375 C-52.74610352 257.17517578 -53.67970703 256.91285156 -54.64160156 256.64257812 C-66.88699934 253.08539883 -77.1766444 248.2554278 -88.8125 242.4375 C-88.8125 222.6375 -88.8125 202.8375 -88.8125 182.4375 C-79.5725 182.4375 -70.3325 182.4375 -60.8125 182.4375 C-60.8125 195.6375 -60.8125 208.8375 -60.8125 222.4375 C-57.8425 223.4275 -54.8725 224.4175 -51.8125 225.4375 C-50.35070312 225.94410156 -48.88890625 226.45070313 -47.3828125 226.97265625 C-46.64933594 227.22466797 -45.91585937 227.47667969 -45.16015625 227.73632812 C-43.68416083 228.24345836 -42.21016274 228.75644129 -40.73828125 229.27539062 C-19.55184403 236.49213675 6.19112169 236.41915353 26.6875 227.125 C35.5461802 222.24155949 41.27836456 215.83759797 45.4375 206.6875 C47.89284695 196.04766323 47.95826476 186.14425962 42.75 176.375 C30.59295486 157.65607989 2.78376031 148.50014001 -17 140.375 C-42.28869566 129.96564333 -71.52613821 116.40538562 -82.78125 89.484375 C-88.52782677 72.50585273 -88.63615136 54.77607293 -81.2890625 38.3203125 C-73.07435167 22.28206754 -59.57099973 11.51377356 -42.6015625 5.61474609 C-28.45475331 1.21939082 -14.756629 -0.21352748 0 0 Z " fill="#FFFFFF" transform="translate(313.8125,139.5625)"/>
<path d="M0 0 C49.83 0 99.66 0 151 0 C151 8.91 151 17.82 151 27 C111.4 27 71.8 27 31 27 C31 54.39 31 81.78 31 110 C67.3 110 103.6 110 141 110 C141 118.91 141 127.82 141 137 C104.7 137 68.4 137 31 137 C31 166.7 31 196.4 31 227 C70.93 227 110.86 227 152 227 C152 235.91 152 244.82 152 254 C101.84 254 51.68 254 0 254 C0 170.18 0 86.36 0 0 Z " fill="#FFFFFF" transform="translate(1108,144)"/>
<path d="M0 0 C49.83 0 99.66 0 151 0 C151 8.91 151 17.82 151 27 C111.4 27 71.8 27 31 27 C31 54.39 31 81.78 31 110 C67.3 110 103.6 110 141 110 C141 118.91 141 127.82 141 137 C104.7 137 68.4 137 31 137 C31 166.7 31 196.4 31 227 C70.93 227 110.86 227 152 227 C152 235.91 152 244.82 152 254 C101.84 254 51.68 254 0 254 C0 170.18 0 86.36 0 0 Z " fill="#FFFFFF" transform="translate(672,144)"/>
<path d="M0 0 C62.7 0 125.4 0 190 0 C190 21.78 190 43.56 190 66 C180.76 66 171.52 66 162 66 C162 53.13 162 40.26 162 27 C144.84 27 127.68 27 110 27 C110 93 110 159 110 227 C123.2 227 136.4 227 150 227 C150 235.91 150 244.82 150 254 C113.37 254 76.74 254 39 254 C39 245.09 39 236.18 39 227 C52.2 227 65.4 227 79 227 C79 161 79 95 79 27 C62.17 27 45.34 27 28 27 C28 39.87 28 52.74 28 66 C18.76 66 9.52 66 0 66 C0 44.22 0 22.44 0 0 Z " fill="#FFFFFF" transform="translate(1956,144)"/>
<path d="M0 0 C62.7 0 125.4 0 190 0 C190 21.78 190 43.56 190 66 C180.76 66 171.52 66 162 66 C162 53.13 162 40.26 162 27 C144.84 27 127.68 27 110 27 C110 93 110 159 110 227 C123.2 227 136.4 227 150 227 C150 235.91 150 244.82 150 254 C113.37 254 76.74 254 39 254 C39 245.09 39 236.18 39 227 C52.2 227 65.4 227 79 227 C79 161 79 95 79 27 C62.17 27 45.34 27 28 27 C28 39.87 28 52.74 28 66 C18.76 66 9.52 66 0 66 C0 44.22 0 22.44 0 0 Z " fill="#FFFFFF" transform="translate(430,144)"/>
<path d="M0 0 C10.56675303 5.13076038 21.16121253 9.8439802 32.5 13.0234375 C37.79178256 14.65291933 42.91802396 16.77244916 48.0625 18.8125 C45.97360542 27.98547185 43.47963006 36.94870535 40.5 45.875 C40.06095337 47.19407349 40.06095337 47.19407349 39.61303711 48.53979492 C38.34783873 52.27268241 37.04625598 55.95537954 35.47265625 59.5703125 C34.17333762 62.55766557 33.11782391 65.54559782 32.0625 68.625 C25.52837046 85.68852503 14.00111757 103.42503076 -1.9375 112.8125 C-8.84812193 115.3383536 -19.3095253 115.11117177 -26.01953125 112.03515625 C-30.50294197 109.17709605 -34.22304424 105.59089788 -37.9375 101.8125 C-38.66839844 101.07773437 -39.39929687 100.34296875 -40.15234375 99.5859375 C-56.72080149 81.18985603 -73.9375 43.93472698 -73.9375 18.8125 C-56.77885833 11.95674643 -56.77885833 11.95674643 -49.375 9.875 C-40.00486836 7.12674394 -31.32424737 2.51539091 -22.62109375 -1.8515625 C-21.67363281 -2.31304687 -20.72617188 -2.77453125 -19.75 -3.25 C-18.55310547 -3.85521484 -18.55310547 -3.85521484 -17.33203125 -4.47265625 C-11.07096584 -6.34178344 -5.47671352 -2.72867081 0 0 Z " fill="#121212" transform="translate(1733.9375,380.1875)"/>
<path d="M0 0 C5.26568821 4.7279947 8.60319009 9.29922551 9.37109375 16.4609375 C9.74817538 38.68657235 -1.46240916 58.779953 -15.61328125 75.37353516 C-16.99947642 76.9993859 -18.36104916 78.64328398 -19.71875 80.29296875 C-24.43786485 85.99219441 -29.32032874 91.53876567 -34.3125 97 C-34.79195068 97.52795166 -35.27140137 98.05590332 -35.76538086 98.59985352 C-38.95830375 102.05254337 -42.33351898 105.05381732 -46 108 C-47.60416667 106.6875 -49.20833333 105.375 -50.8125 104.0625 C-51.82054687 103.23878906 -52.82859375 102.41507812 -53.8671875 101.56640625 C-55.83637153 99.95575203 -57.79887718 98.33804086 -59.7578125 96.71484375 C-66.35446053 91.26251222 -73.12810226 86.09907099 -80 81 C-81.0724303 80.19248844 -82.14403832 79.38388374 -83.21484375 78.57421875 C-84.25769531 77.78660156 -85.30054688 76.99898438 -86.375 76.1875 C-87.31085938 75.47980469 -88.24671875 74.77210938 -89.2109375 74.04296875 C-91.97296223 71.93168323 -91.97296223 71.93168323 -95.09399414 70.27539062 C-98 68 -98 68 -98.96899414 65.0402832 C-99.07332764 63.88874756 -99.17766113 62.73721191 -99.28515625 61.55078125 C-99.42083008 60.24230225 -99.55650391 58.93382324 -99.69628906 57.58569336 C-99.7857782 56.54105423 -99.7857782 56.54105423 -99.8770752 55.47531128 C-100.19408975 51.77762552 -100.59902292 48.08908717 -100.98828125 44.3984375 C-101.06617889 43.63363571 -101.14407654 42.86883392 -101.22433472 42.08085632 C-102.1149136 33.4901429 -103.41754985 24.96892635 -104.75 16.4375 C-104.97550378 14.97894756 -105.20084976 13.52037071 -105.42602539 12.06176758 C-105.94537481 8.70700321 -106.47070045 5.35321068 -107 2 C-28.29890547 -19.47733308 -28.29890547 -19.47733308 0 0 Z " fill="#121212" transform="translate(1911,147)"/>
<path d="M0 0 C3.47735304 0.95423122 6.97337361 1.81919884 10.47509766 2.67919922 C9.12363015 14.05153401 7.50531718 25.35374428 5.62615967 36.65219116 C3.95937803 46.45525357 3.95937803 46.45525357 3.23291016 56.36279297 C2.98920491 66.83470151 2.98920491 66.83470151 0.12353516 70.32568359 C-3.42265264 73.61209251 -7.41510588 76.08858783 -11.578125 78.51611328 C-14.39239477 80.19747536 -16.97711764 82.13696912 -19.58740234 84.11669922 C-20.54517578 84.83599609 -21.50294922 85.55529297 -22.48974609 86.29638672 C-26.57512916 89.50370161 -30.50210722 92.87763649 -34.42407227 96.28149414 C-39.35044188 100.55589503 -44.38994331 104.65642025 -49.52490234 108.67919922 C-57.74697389 103.74595629 -63.61827759 96.73912259 -69.45849609 89.24169922 C-71.54712443 86.65164215 -73.75386968 84.2349443 -76.02490234 81.80419922 C-80.85923633 76.49639954 -84.68439222 70.72780551 -88.52490234 64.67919922 C-89.12173828 63.78330078 -89.71857422 62.88740234 -90.33349609 61.96435547 C-98.98857819 48.83715969 -104.57205951 37.34765894 -104.83740234 21.55419922 C-104.85536865 20.78946289 -104.87333496 20.02472656 -104.8918457 19.23681641 C-104.88219934 13.30237423 -103.89093432 8.60379047 -100.05224609 3.85888672 C-73.69040848 -17.77466061 -29.77524739 -8.25943836 0 0 Z " fill="#111111" transform="translate(1626.52490234375,146.32080078125)"/>
<path d="M0 0 C16.85939522 -0.40141417 32.3068482 2.8160638 45.234375 14.1328125 C54.99203441 24.57877153 57.70855071 36.29828987 57.484375 50.28125 C56.86756454 59.78398619 54.65078985 68.24874733 49.234375 76.1328125 C48.81542969 76.74640625 48.39648438 77.36 47.96484375 77.9921875 C39.91204902 88.48170686 25.98974343 94.11912504 13.234375 96.1328125 C3.96257107 97.1194171 -5.26246119 97.25895077 -14.578125 97.1953125 C-15.85494141 97.19080078 -17.13175781 97.18628906 -18.44726562 97.18164062 C-21.55343711 97.17000702 -24.65950408 97.15366325 -27.765625 97.1328125 C-27.78874666 84.89400921 -27.80653918 72.65521107 -27.81743717 60.41639042 C-27.82266639 54.73404738 -27.82976473 49.05171923 -27.84106445 43.36938477 C-27.85189196 37.89052114 -27.85790154 32.41167188 -27.86050224 26.93279839 C-27.86235674 24.83751639 -27.86597782 22.74223522 -27.87135506 20.6469593 C-27.87856368 17.72303666 -27.87961602 14.79917417 -27.87915039 11.87524414 C-27.88274567 10.99987 -27.88634094 10.12449585 -27.89004517 9.22259521 C-27.87967716 3.24686466 -27.87967716 3.24686466 -26.765625 2.1328125 C-17.93242423 0.60202674 -8.93841526 0.42924593 0 0 Z " fill="#121212" transform="translate(1382.765625,165.8671875)"/>
<path d="M0 0 C7.51747513 5.40523517 13.74896972 12.63079389 15.95703125 21.7890625 C17.67420556 32.41307553 15.73800864 40.92145628 9.5 49.6875 C3.3593818 57.35940586 -4.37449722 62.6819805 -14.2890625 63.78125 C-25.05962466 64.03617455 -32.99783219 62.53462864 -41.2578125 54.9609375 C-50.36927952 45.26352405 -52.2158119 36.81402762 -51.95703125 23.87109375 C-51.48681769 14.51906857 -46.59916419 8.54375322 -39.96875 2.2890625 C-28.89574402 -6.75389239 -12.12258096 -7.52295074 0 0 Z " fill="#7E7E7E" transform="translate(1738.625,238.625)"/>
<path d="M0 0 C5.87787904 3.88031859 10.83102815 9.45068918 12.61328125 16.38671875 C14.17264717 26.92425211 12.73938112 34.39092832 6.875 43.1875 C1.87322631 48.76580212 -5.22097142 52.43141076 -12.59375 53.30859375 C-20.9542043 53.67942035 -27.13909828 51.84823835 -34 47 C-39.12309764 41.90415288 -43.55290394 35.69760526 -44.43359375 28.4140625 C-44.44571453 16.65690679 -42.14210704 10.34232279 -34 2 C-24.68266681 -6.69617764 -10.50781792 -5.8741621 0 0 Z " fill="#458F6D" transform="translate(1598,382)"/>
<path d="M0 0 C6.57247891 3.72440472 12.453091 9.04717297 15.125 16.328125 C16.90348429 25.15702913 16.43936285 33.83197665 11.5625 41.5 C11.17320313 42.12390625 10.78390625 42.7478125 10.3828125 43.390625 C5.58848107 49.91545475 -1.8582888 53.74488861 -9.75390625 55.046875 C-19.18009946 55.44751603 -26.20578456 52.61823096 -33.25 46.4375 C-38.50895636 40.70498833 -41.63724096 33.07554348 -42 25.3125 C-41.55212201 17.54928157 -37.60997283 10.21394382 -32.4375 4.5 C-23.05913524 -3.62791613 -11.41317171 -5.28973198 0 0 Z " fill="#FBD435" transform="translate(1925.4375,298.5)"/>
<path d="M0 0 C5.5863515 3.2698269 11.70590479 8.06447133 14.01953125 14.3125 C16.21029897 24.33011307 16.45417861 32.67565797 10.8828125 41.58984375 C6.00583417 48.58324664 0.25585037 51.68424779 -7.7109375 54.33984375 C-17.36612633 55.30536263 -24.26625017 53.25189795 -31.8984375 47.33984375 C-38.18482674 41.43139374 -41.98682484 33.85870957 -42.3984375 25.21484375 C-41.92599856 16.62095454 -37.71074462 9.33965087 -31.7109375 3.33984375 C-21.99842303 -3.68217064 -11.14055677 -5.09852842 0 0 Z " fill="#FB5053" transform="translate(1680.7109375,56.66015625)"/>
<path d="M0 0 C106.59 0 213.18 0 323 0 C323 1.65 323 3.3 323 5 C216.41 5 109.82 5 0 5 C0 3.35 0 1.7 0 0 Z " fill="#FFFFFF" transform="translate(1749,569)"/>
<path d="M0 0 C106.59 0 213.18 0 323 0 C323 1.65 323 3.3 323 5 C216.41 5 109.82 5 0 5 C0 3.35 0 1.7 0 0 Z " fill="#FFFFFF" transform="translate(271,562)"/>
<path d="M0 0 C10.10769231 6.73846154 10.10769231 6.73846154 14.375 10.3125 C15.29152344 11.075625 16.20804688 11.83875 17.15234375 12.625 C18.56193359 13.800625 18.56193359 13.800625 20 15 C22.86114854 17.32166019 25.7246324 19.64038761 28.58984375 21.95703125 C30.85037361 23.8731692 32.9393349 25.87239914 35 28 C30.17488793 39.64320522 12.27294298 50.29405111 2 57 C1.34 57 0.68 57 0 57 C0 38.19 0 19.38 0 0 Z " fill="#121212" transform="translate(1815,239)"/>
<path d="M0 0 C0.93005859 0.60134766 0.93005859 0.60134766 1.87890625 1.21484375 C13.53186747 8.6951289 25.32962629 15.76581451 37.58984375 22.203125 C41.76432404 24.40273661 45.88973971 26.68310531 50 29 C41.47771246 39.10159258 19.24727896 42.99179961 7 47 C4.78614078 37.32917629 3.11819812 27.71092048 1.8125 17.875 C1.63525391 16.58851563 1.45800781 15.30203125 1.27539062 13.9765625 C0 4.5613236 0 4.5613236 0 0 Z " fill="#121212" transform="translate(1648,334)"/>
<path d="M0 0 C7.15574522 1.91942343 13.96290427 4.51092519 20.81640625 7.3046875 C25.50283412 9.21460227 30.21893325 11.04622848 34.9375 12.875 C35.73736328 13.1853418 36.53722656 13.49568359 37.36132812 13.81542969 C39.24063758 14.54425917 41.12028083 15.27222786 43 16 C40.80099591 18.38659686 38.6063356 19.94596779 35.78125 21.53125 C34.94029785 22.00691406 34.0993457 22.48257813 33.23291016 22.97265625 C32.3310498 23.47667969 31.42918945 23.98070312 30.5 24.5 C28.60126145 25.57238382 26.70283074 26.64531283 24.8046875 27.71875 C23.84014648 28.26273438 22.87560547 28.80671875 21.88183594 29.3671875 C17.44516367 31.88095098 13.0343543 34.43870973 8.625 37 C3.42646508 40.01751521 -1.77772615 43.02371728 -7 46 C-5.60742189 34.37428627 -4.19665046 22.75503746 -2.375 11.1875 C-2.25213623 10.40076904 -2.12927246 9.61403809 -2.00268555 8.8034668 C-1.51319749 5.76634688 -0.97468907 2.92406722 0 0 Z " fill="#121212" transform="translate(1655,155)"/>
<path d="M0 0 C1.88790009 10.26903231 3.61388256 20.56289159 5.25 30.875 C5.43723633 32.02210449 5.62447266 33.16920898 5.81738281 34.35107422 C5.98592773 35.4288916 6.15447266 36.50670898 6.328125 37.6171875 C6.4818457 38.58253418 6.63556641 39.54788086 6.79394531 40.54248047 C7 43 7 43 6 46 C5.0821875 45.39671875 4.164375 44.7934375 3.21875 44.171875 C1.97931102 43.36436172 0.73971943 42.55708265 -0.5 41.75 C-1.10070313 41.35425781 -1.70140625 40.95851562 -2.3203125 40.55078125 C-6.09456733 38.10153077 -9.91605814 35.99538951 -13.95996094 34.02734375 C-17.5295992 32.22970878 -20.94320796 30.17032448 -24.375 28.125 C-25.11161865 27.68881348 -25.8482373 27.25262695 -26.60717773 26.80322266 C-32.08405312 23.55664296 -37.55114584 20.29341062 -43 17 C-36.53015494 12.68676996 -28.77895231 10.31232804 -21.5625 7.5 C-20.56412109 7.10941406 -19.56574219 6.71882812 -18.53710938 6.31640625 C-15.69335818 5.20582886 -12.84725319 4.10156363 -10 3 C-8.79512939 2.53013672 -8.79512939 2.53013672 -7.56591797 2.05078125 C-2.23316461 0 -2.23316461 0 0 0 Z " fill="#121212" transform="translate(1786,155)"/>
<path d="M0 0 C0.66 0 1.32 0 2 0 C0.97543853 10.55567935 -0.39410556 21.02577141 -2.0625 31.5 C-2.2368457 32.60400146 -2.41119141 33.70800293 -2.59082031 34.84545898 C-2.75807617 35.87614502 -2.92533203 36.90683105 -3.09765625 37.96875 C-3.24726807 38.89107422 -3.39687988 39.81339844 -3.55102539 40.76367188 C-4 43 -4 43 -5 45 C-9.70424798 44.39762678 -13.63117637 43.07662023 -18 41.25 C-23.10403603 39.14179739 -28.21924211 37.18369649 -33.4375 35.375 C-38.53366417 33.5875826 -43.25064238 31.56465312 -48 29 C-45.60889205 26.29323424 -43.19021822 24.97007469 -39.9375 23.4375 C-18.64912538 13.69712769 -18.64912538 13.69712769 0 0 Z " fill="#121212" transform="translate(1791,335)"/>
<path d="M0 0 C0 18.48 0 36.96 0 56 C-6.79110303 51.67838898 -13.02162024 47.65200615 -19.125 42.5625 C-19.80369141 42.00409424 -20.48238281 41.44568848 -21.18164062 40.87036133 C-26.2268621 36.69913894 -31.18057458 32.43119393 -36 28 C-28.03778182 19.78896251 -19.09280774 12.89603974 -10 6 C-9.16082031 5.34902344 -8.32164063 4.69804687 -7.45703125 4.02734375 C-6.74933594 3.48207031 -6.04164062 2.93679687 -5.3125 2.375 C-4.71050781 1.90835938 -4.10851563 1.44171875 -3.48828125 0.9609375 C-2 0 -2 0 0 0 Z " fill="#111111" transform="translate(1626,240)"/>
<path d="M0 0 C2.36521912 0.25512695 2.36521912 0.25512695 5 1 C6.25770569 2.69213867 6.25770569 2.69213867 7.15649414 4.91796875 C7.50357925 5.74973633 7.85066437 6.58150391 8.20826721 7.43847656 C8.74132729 8.79924316 8.74132729 8.79924316 9.28515625 10.1875 C9.66812363 11.11916992 10.051091 12.05083984 10.44566345 13.01074219 C11.66977585 16.00001027 12.86652955 18.99937625 14.0625 22 C14.87122404 23.99162657 15.6817508 25.98252215 16.49414062 27.97265625 C17.64612197 30.79591082 18.79547259 33.61990736 19.93067932 36.44995117 C22.16750664 42.02350013 24.52065031 47.52993507 27 53 C27.66644531 51.97003906 28.33289062 50.94007813 29.01953125 49.87890625 C40.79296875 31.68359375 40.79296875 31.68359375 42.15161133 29.58398438 C43.0513231 28.19344668 43.9508997 26.80282152 44.8503418 25.41210938 C47.26421241 21.68020391 49.68096159 17.95020045 52.1015625 14.22265625 C52.60751953 13.44277344 53.11347656 12.66289063 53.63476562 11.859375 C54.60918076 10.35752415 55.58440775 8.85619965 56.56054688 7.35546875 C58.91900902 3.75885107 58.91900902 3.75885107 61 0 C62.65 0 64.3 0 66 0 C63.03 24.09 60.06 48.18 57 73 C55.68 73 54.36 73 53 73 C53.08769653 72.26750534 53.17539307 71.53501068 53.26574707 70.78031921 C54.09160749 63.8795893 54.91578206 56.97865991 55.73806 50.07750225 C56.1608672 46.52950199 56.58432752 42.98158222 57.00927734 39.43383789 C57.49770954 35.35586154 57.98330644 31.27755195 58.46875 27.19921875 C58.62186646 25.92414963 58.77498291 24.64908051 58.93273926 23.33537292 C59.07288452 22.15437515 59.21302979 20.97337738 59.35742188 19.7565918 C59.48177612 18.71512497 59.60613037 17.67365814 59.73425293 16.60063171 C60.05082811 13.93828591 60.05082811 13.93828591 60 11 C54.77039027 18.79336634 49.58536346 26.61160887 44.5 34.5 C43.12532979 36.62418001 41.7499742 38.74791497 40.37451172 40.87158203 C39.44853814 42.30544307 38.52574664 43.74136348 37.60595703 45.17919922 C36.26673457 47.27099569 34.91583842 49.35481752 33.5625 51.4375 C33.16160156 52.07042969 32.76070312 52.70335937 32.34765625 53.35546875 C30.19063403 56.64929997 28.58121508 58.42362712 25 60 C22.23047293 54.58551744 19.71606373 49.14055175 17.3984375 43.51953125 C17.07589996 42.74365158 16.75336243 41.96777191 16.42105103 41.16838074 C15.40300791 38.71752763 14.38897664 36.26503787 13.375 33.8125 C12.6877566 32.15679451 12.00025873 30.50119462 11.3125 28.84570312 C6.05335917 16.1751998 6.05335917 16.1751998 4 11 C2.30376629 12.69623371 2.53727998 14.9566456 2.25976562 17.2824707 C2.12292358 18.41066727 1.98608154 19.53886383 1.84509277 20.70124817 C1.70027466 21.93034409 1.55545654 23.15944 1.40625 24.42578125 C1.25466431 25.68005417 1.10307861 26.93432709 0.94689941 28.22660828 C0.54317692 31.57024368 0.1429101 34.9142524 -0.25531006 38.25854492 C-0.81558414 42.96154898 -1.37958027 47.66409732 -1.94689941 52.36625671 C-2.24893918 54.87115806 -2.54841171 57.37637054 -2.84509277 59.88191223 C-2.98193481 61.01956528 -3.11877686 62.15721832 -3.25976562 63.3293457 C-3.37888306 64.33004593 -3.49800049 65.33074615 -3.62072754 66.36177063 C-3.94771769 68.63632287 -4.38988626 70.78727078 -5 73 C-5.99 73 -6.98 73 -8 73 C-7.42053075 57.73711292 -5.34496778 42.6415224 -3.4375 27.5 C-3.10382494 24.82694618 -2.77162133 22.15371018 -2.43945312 19.48046875 C-1.63138772 12.98633605 -0.81787656 6.49290398 0 0 Z " fill="#FFFFFF" transform="translate(1013,535)"/>
<path d="M0 0 C1.32 0 2.64 0 4 0 C6.39755489 4.33238308 8.79311724 8.66586328 11.1875 13 C11.54737 13.65126862 11.90723999 14.30253723 12.27801514 14.97354126 C17.79926178 24.96912372 23.27159905 34.98909466 28.66088867 45.05664062 C33.55142193 54.19273148 33.55142193 54.19273148 39 63 C39.33 63 39.66 63 40 63 C40.08547592 62.28447464 40.17095184 61.56894928 40.25901794 60.83174133 C41.06612637 54.07835027 41.8751305 47.32518869 42.68624783 40.57227802 C43.10315273 37.10079928 43.51933223 33.62923681 43.93383789 30.1574707 C44.41074642 26.16331114 44.8908387 22.16953982 45.37109375 18.17578125 C45.51904892 16.93290848 45.66700409 15.69003571 45.81944275 14.40950012 C45.95951248 13.24867416 46.09958221 12.08784821 46.24389648 10.8918457 C46.36603012 9.87258499 46.48816376 8.85332428 46.61399841 7.80317688 C46.97615418 5.17317041 47.44861132 2.59623397 48 0 C49.32 0.33 50.64 0.66 52 1 C49.03 24.76 46.06 48.52 43 73 C41.68 73 40.36 73 39 73 C38.64397705 72.33282959 38.2879541 71.66565918 37.92114258 70.97827148 C29.48874338 55.19634797 20.87715765 39.53730053 12 24 C11.13663378 22.48572553 10.27334651 20.97140604 9.41015625 19.45703125 C7.61068438 16.30243912 5.80713853 13.15020825 4 10 C2.45097484 17.15337232 1.37678671 24.28755788 0.52734375 31.5546875 C0.39936905 32.61865753 0.27139435 33.68262756 0.13954163 34.77883911 C-0.26484098 38.14379561 -0.6641115 41.50932899 -1.0625 44.875 C-1.46495041 48.26203039 -1.86856563 51.64890657 -2.2752533 55.03543091 C-2.52715887 57.13414136 -2.776576 59.23315237 -3.02320862 61.33248901 C-3.13680222 62.28092682 -3.25039581 63.22936462 -3.36743164 64.20654297 C-3.46576797 65.03797821 -3.56410431 65.86941345 -3.66542053 66.7260437 C-3.98073724 68.86908142 -4.43420353 70.91061978 -5 73 C-5.99 73 -6.98 73 -8 73 C-7.42053075 57.73711292 -5.34496778 42.6415224 -3.4375 27.5 C-3.10382494 24.82694618 -2.77162133 22.15371018 -2.43945312 19.48046875 C-1.63138772 12.98633605 -0.81787656 6.49290398 0 0 Z " fill="#FFFFFF" transform="translate(1149,535)"/>
<path d="M0 0 C1.32 0 2.64 0 4 0 C6.39755489 4.33238308 8.79311724 8.66586328 11.1875 13 C11.54737 13.65126862 11.90723999 14.30253723 12.27801514 14.97354126 C17.79926178 24.96912372 23.27159905 34.98909466 28.66088867 45.05664062 C33.55142193 54.19273148 33.55142193 54.19273148 39 63 C39.33 63 39.66 63 40 63 C40.08547592 62.28447464 40.17095184 61.56894928 40.25901794 60.83174133 C41.06612637 54.07835027 41.8751305 47.32518869 42.68624783 40.57227802 C43.10315273 37.10079928 43.51933223 33.62923681 43.93383789 30.1574707 C44.41074642 26.16331114 44.8908387 22.16953982 45.37109375 18.17578125 C45.51904892 16.93290848 45.66700409 15.69003571 45.81944275 14.40950012 C45.95951248 13.24867416 46.09958221 12.08784821 46.24389648 10.8918457 C46.36603012 9.87258499 46.48816376 8.85332428 46.61399841 7.80317688 C46.97615418 5.17317041 47.44861132 2.59623397 48 0 C49.32 0.33 50.64 0.66 52 1 C49.03 24.76 46.06 48.52 43 73 C41.68 73 40.36 73 39 73 C38.64397705 72.33282959 38.2879541 71.66565918 37.92114258 70.97827148 C29.48874338 55.19634797 20.87715765 39.53730053 12 24 C11.13663378 22.48572553 10.27334651 20.97140604 9.41015625 19.45703125 C7.61068438 16.30243912 5.80713853 13.15020825 4 10 C2.45097484 17.15337232 1.37678671 24.28755788 0.52734375 31.5546875 C0.39936905 32.61865753 0.27139435 33.68262756 0.13954163 34.77883911 C-0.26484098 38.14379561 -0.6641115 41.50932899 -1.0625 44.875 C-1.46495041 48.26203039 -1.86856563 51.64890657 -2.2752533 55.03543091 C-2.52715887 57.13414136 -2.776576 59.23315237 -3.02320862 61.33248901 C-3.13680222 62.28092682 -3.25039581 63.22936462 -3.36743164 64.20654297 C-3.46576797 65.03797821 -3.56410431 65.86941345 -3.66542053 66.7260437 C-3.98073724 68.86908142 -4.43420353 70.91061978 -5 73 C-5.99 73 -6.98 73 -8 73 C-7.42053075 57.73711292 -5.34496778 42.6415224 -3.4375 27.5 C-3.10382494 24.82694618 -2.77162133 22.15371018 -2.43945312 19.48046875 C-1.63138772 12.98633605 -0.81787656 6.49290398 0 0 Z " fill="#FFFFFF" transform="translate(678,535)"/>
<path d="M0 0 C7.15391391 5.0902849 11.76792034 10.84850449 14.25 19.3125 C16.70926045 34.22672464 14.31724642 47.56973748 6.25 60.3125 C1.10042469 66.93191417 -5.40689998 71.7281831 -13.75 73.3125 C-23.1698785 74.04030518 -31.9524727 74.46140725 -39.75 68.3125 C-47.06212923 60.86005272 -49.64746363 52.18889828 -50.0625 41.9375 C-49.91444504 28.72770713 -46.09285341 17.46853974 -37.3125 7.5625 C-27.39846953 -1.14250236 -12.82313695 -6.06765292 0 0 Z M-36.7734375 11.75390625 C-44.94407276 22.33051909 -46.89820923 35.28977252 -45.75 48.3125 C-44.10595912 56.03063204 -40.71956151 62.11936334 -34.75 67.3125 C-28.58817807 71.25606604 -21.90039609 71.0770624 -14.75 70.3125 C-6.47006948 68.18879263 0.3222929 62.5041866 5.0625 55.5 C11.79517312 43.80283054 12.74423457 30.05162574 9.29296875 17.21875 C6.836081 10.37259087 2.53354748 5.80335971 -3.75 2.3125 C-16.30515753 -1.87255251 -28.10608887 2.42808413 -36.7734375 11.75390625 Z " fill="#FFFFFF" transform="translate(1261.75,535.6875)"/>
<path d="M0 0 C7.15391391 5.0902849 11.76792034 10.84850449 14.25 19.3125 C16.70926045 34.22672464 14.31724642 47.56973748 6.25 60.3125 C1.10042469 66.93191417 -5.40689998 71.7281831 -13.75 73.3125 C-23.1698785 74.04030518 -31.9524727 74.46140725 -39.75 68.3125 C-47.06212923 60.86005272 -49.64746363 52.18889828 -50.0625 41.9375 C-49.91444504 28.72770713 -46.09285341 17.46853974 -37.3125 7.5625 C-27.39846953 -1.14250236 -12.82313695 -6.06765292 0 0 Z M-36.7734375 11.75390625 C-44.94407276 22.33051909 -46.89820923 35.28977252 -45.75 48.3125 C-44.10595912 56.03063204 -40.71956151 62.11936334 -34.75 67.3125 C-28.58817807 71.25606604 -21.90039609 71.0770624 -14.75 70.3125 C-6.47006948 68.18879263 0.3222929 62.5041866 5.0625 55.5 C11.79517312 43.80283054 12.74423457 30.05162574 9.29296875 17.21875 C6.836081 10.37259087 2.53354748 5.80335971 -3.75 2.3125 C-16.30515753 -1.87255251 -28.10608887 2.42808413 -36.7734375 11.75390625 Z " fill="#FFFFFF" transform="translate(790.75,535.6875)"/>
<path d="M0 0 C4.16642697 -0.11703447 8.3324259 -0.18753101 12.5 -0.25 C13.67304687 -0.28351562 14.84609375 -0.31703125 16.0546875 -0.3515625 C23.22432214 -0.43212019 27.93231669 0.08023319 34 4 C37.78232677 8.14835839 38.1291395 13.56806985 38 19 C36.64662318 26.64899579 33.1730063 30.46159496 27.1875 35.25 C23.26446647 37.40382233 20.42585283 37.54513332 16 38 C16.45850342 38.74048584 16.91700684 39.48097168 17.3894043 40.24389648 C19.11499618 43.032932 20.83872943 45.82309918 22.5612793 48.61401367 C23.3024175 49.81400526 24.04426061 51.01356182 24.78686523 52.21264648 C29.02266209 59.05332987 33.19096366 65.90983215 37 73 C34.69287109 73.26074219 34.69287109 73.26074219 32 73 C30.35009766 71.26269531 30.35009766 71.26269531 28.9140625 68.828125 C28.37974609 67.94092773 27.84542969 67.05373047 27.29492188 66.13964844 C26.74384766 65.18606445 26.19277344 64.23248047 25.625 63.25 C25.04556641 62.29383789 24.46613281 61.33767578 23.86914062 60.35253906 C21.4281091 56.29833991 19.0551029 52.26014392 17.0546875 47.96875 C14.98285942 43.66479263 14.98285942 43.66479263 12 40 C7.58085773 38.74782273 3.56016907 38.64341535 -1 39 C-1.04898437 39.95777344 -1.09796875 40.91554688 -1.1484375 41.90234375 C-1.70238862 51.99372112 -2.72217575 61.97590297 -4 72 C-5.98 72.495 -5.98 72.495 -8 73 C-7.42053075 57.73711292 -5.34496778 42.6415224 -3.4375 27.5 C-3.10382494 24.82694618 -2.77162133 22.15371018 -2.43945312 19.48046875 C-1.63138772 12.98633605 -0.81787656 6.49290398 0 0 Z M4 3 C2.25821357 13.98749553 0.58847491 24.87985348 0 36 C10.4355316 36.3227484 20.26400744 36.28991465 29 30 C33.18095492 24.71879379 34.38994164 20.7456843 34.27734375 14.02734375 C33.8028486 10.55885105 32.28101158 8.58114468 30 6 C24.62852733 2.44139935 19.82724303 2.6399697 13.625 2.8125 C12.69816406 2.82603516 11.77132813 2.83957031 10.81640625 2.85351562 C8.54366002 2.88866119 6.27214153 2.93785868 4 3 Z " fill="#FFFFFF" transform="translate(1569,535)"/>
<path d="M0 0 C0.99 0 1.98 0 3 0 C2.58607845 9.57728839 1.66175991 18.99372921 0.4375 28.5 C-2.71701463 47.49537286 -2.71701463 47.49537286 3 65 C8.07746156 69.82978051 12.36708189 70.36794142 19.1484375 70.26953125 C24.39721371 69.77341405 28.07742658 68.01433261 31.71875 64.19921875 C38.46043386 55.68949525 39.73788602 47.45479611 41 36.875 C41.16712753 35.53810233 41.33543173 34.20135125 41.50488281 32.86474609 C41.76041209 30.84804022 42.01523282 28.8312777 42.26617432 26.81399536 C43.02239255 20.74028551 43.87024371 14.68186582 44.75 8.625 C44.87761719 7.74054199 45.00523438 6.85608398 45.13671875 5.94482422 C45.4231093 3.9630177 45.71130862 1.98147266 46 0 C47.32 0 48.64 0 50 0 C48.99522297 11.23763785 47.78421798 22.4520731 46.37194824 33.64593506 C46.13003531 35.58464656 45.90130147 37.52498805 45.67285156 39.46533203 C44.28968933 50.17847512 41.73987911 60.06618314 34 68 C26.03248199 74.07768926 18.90765514 74.74774756 9 74 C2.56736646 72.50544778 -0.45488654 68.65489445 -3.87109375 63.21875 C-9.54944242 52.05853532 -5.44040921 35.26820111 -3.91870117 23.40625 C-3.55698606 20.5819467 -3.21014849 17.75608733 -2.86523438 14.9296875 C-2.64147331 13.13270666 -2.41689566 11.33582728 -2.19140625 9.5390625 C-2.03509483 8.27215073 -2.03509483 8.27215073 -1.87562561 6.97964478 C-1.11625936 1.11625936 -1.11625936 1.11625936 0 0 Z " fill="#FFFFFF" transform="translate(1500,535)"/>
<path d="M0 0 C0.99 0 1.98 0 3 0 C2.58607845 9.57728839 1.66175991 18.99372921 0.4375 28.5 C-2.71701463 47.49537286 -2.71701463 47.49537286 3 65 C8.07746156 69.82978051 12.36708189 70.36794142 19.1484375 70.26953125 C24.39721371 69.77341405 28.07742658 68.01433261 31.71875 64.19921875 C38.46043386 55.68949525 39.73788602 47.45479611 41 36.875 C41.16712753 35.53810233 41.33543173 34.20135125 41.50488281 32.86474609 C41.76041209 30.84804022 42.01523282 28.8312777 42.26617432 26.81399536 C43.02239255 20.74028551 43.87024371 14.68186582 44.75 8.625 C44.87761719 7.74054199 45.00523438 6.85608398 45.13671875 5.94482422 C45.4231093 3.9630177 45.71130862 1.98147266 46 0 C47.32 0 48.64 0 50 0 C48.99522297 11.23763785 47.78421798 22.4520731 46.37194824 33.64593506 C46.13003531 35.58464656 45.90130147 37.52498805 45.67285156 39.46533203 C44.28968933 50.17847512 41.73987911 60.06618314 34 68 C26.03248199 74.07768926 18.90765514 74.74774756 9 74 C2.56736646 72.50544778 -0.45488654 68.65489445 -3.87109375 63.21875 C-9.54944242 52.05853532 -5.44040921 35.26820111 -3.91870117 23.40625 C-3.55698606 20.5819467 -3.21014849 17.75608733 -2.86523438 14.9296875 C-2.64147331 13.13270666 -2.41689566 11.33582728 -2.19140625 9.5390625 C-2.03509483 8.27215073 -2.03509483 8.27215073 -1.87562561 6.97964478 C-1.11625936 1.11625936 -1.11625936 1.11625936 0 0 Z " fill="#FFFFFF" transform="translate(1377,535)"/>
<path d="M0 0 C13.53 0 27.06 0 41 0 C40.67 0.99 40.34 1.98 40 3 C28.12 3 16.24 3 4 3 C3.05403756 12.07932896 3.05403756 12.07932896 2.11547852 21.15942383 C1.99615967 22.28888428 1.87684082 23.41834473 1.75390625 24.58203125 C1.63345947 25.73936768 1.5130127 26.8967041 1.38891602 28.08911133 C1 31 1 31 0 34 C10.23 34 20.46 34 31 34 C31 34.99 31 35.98 31 37 C20.77 37 10.54 37 0 37 C-1.32 47.89 -2.64 58.78 -4 70 C7.88 70 19.76 70 32 70 C32 70.99 32 71.98 32 73 C18.8 73 5.6 73 -8 73 C-7.36788165 62.88610636 -6.64467551 52.99026899 -5.37109375 42.96875 C-5.21713638 41.7262146 -5.06317902 40.4836792 -4.90455627 39.20349121 C-4.42006766 35.30174701 -3.92891672 31.40087701 -3.4375 27.5 C-3.10382495 24.8269462 -2.771579 22.15371543 -2.43945312 19.48046875 C-1.63220108 12.98621668 -0.81590978 6.4931932 0 0 Z " fill="#FFFFFF" transform="translate(1626,535)"/>
<path d="M0 0 C13.53 0 27.06 0 41 0 C40.67 0.99 40.34 1.98 40 3 C28.12 3 16.24 3 4 3 C3.05403756 12.07932896 3.05403756 12.07932896 2.11547852 21.15942383 C1.99615967 22.28888428 1.87684082 23.41834473 1.75390625 24.58203125 C1.63345947 25.73936768 1.5130127 26.8967041 1.38891602 28.08911133 C1 31 1 31 0 34 C10.23 34 20.46 34 31 34 C31 34.99 31 35.98 31 37 C20.77 37 10.54 37 0 37 C-1.32 47.89 -2.64 58.78 -4 70 C7.88 70 19.76 70 32 70 C32 70.99 32 71.98 32 73 C18.8 73 5.6 73 -8 73 C-7.36788165 62.88610636 -6.64467551 52.99026899 -5.37109375 42.96875 C-5.21713638 41.7262146 -5.06317902 40.4836792 -4.90455627 39.20349121 C-4.42006766 35.30174701 -3.92891672 31.40087701 -3.4375 27.5 C-3.10382495 24.8269462 -2.771579 22.15371543 -2.43945312 19.48046875 C-1.63220108 12.98621668 -0.81590978 6.4931932 0 0 Z " fill="#FFFFFF" transform="translate(957,535)"/>
<path d="M0 0 C2.9115568 1.83887798 5.02275403 4.35917989 6.87109375 7.234375 C5.18359375 7.984375 5.18359375 7.984375 2.87109375 8.234375 C0.24609375 6.359375 0.24609375 6.359375 -2.12890625 4.234375 C-6.5178033 2.03992648 -12.63654749 2.52032331 -17.26953125 3.84765625 C-21.55582294 5.96284802 -23.64446785 8.90893163 -25.47265625 13.1484375 C-26.82259629 17.43931835 -26.73200208 20.79364606 -25.00390625 24.921875 C-21.08357335 29.75695224 -15.8240841 31.87995974 -10.12890625 34.046875 C-1.01968581 37.82587698 -1.01968581 37.82587698 2.0078125 42.0625 C4.32935857 47.90313174 3.79138126 54.16674995 2.015625 60.0859375 C-0.65841143 66.12761708 -4.39557239 69.98388655 -10.12890625 73.234375 C-13.7020362 74.42541832 -16.67443947 74.43966323 -20.44140625 74.484375 C-21.73691406 74.51015625 -23.03242187 74.5359375 -24.3671875 74.5625 C-30.87456098 73.99487864 -34.94869219 71.1522739 -39.12890625 66.234375 C-39.12890625 65.244375 -39.12890625 64.254375 -39.12890625 63.234375 C-35.12890625 63.234375 -35.12890625 63.234375 -32.62890625 65.609375 C-31.80390625 66.475625 -30.97890625 67.341875 -30.12890625 68.234375 C-25.43283708 71.16440107 -20.48076455 70.8125536 -15.12890625 70.234375 C-10.27858267 68.94422159 -7.09563479 66.69680776 -4.19140625 62.609375 C-1.66351365 58.0248918 -0.83184597 53.44643258 -1.12890625 48.234375 C-2.8667274 43.53203543 -5.95340888 41.80656007 -10.12890625 39.234375 C-12.44414156 38.25303094 -14.77865062 37.31610604 -17.12890625 36.421875 C-22.77731146 34.12127505 -27.24627304 31.81564355 -30.12890625 26.234375 C-31.96076016 20.05186804 -30.96105313 13.99470871 -28.16015625 8.24609375 C-22.20801048 -1.14462272 -10.34121714 -3.71904323 0 0 Z " fill="#FFFFFF" transform="translate(878.12890625,534.765625)"/>
<path d="M0 0 C13.53 0 27.06 0 41 0 C40.67 0.99 40.34 1.98 40 3 C28.12 3 16.24 3 4 3 C3.05517684 11.98935602 3.05517684 11.98935602 2.11547852 20.97924805 C1.99615967 22.10371338 1.87684082 23.22817871 1.75390625 24.38671875 C1.63345947 25.53358154 1.5130127 26.68044434 1.38891602 27.86206055 C1.05043908 30.59303609 0.53968631 33.30156847 0 36 C10.56 36 21.12 36 32 36 C31.67 36.99 31.34 37.98 31 39 C20.44 39 9.88 39 -1 39 C-1.185625 42.4340625 -1.185625 42.4340625 -1.375 45.9375 C-1.88561732 54.67116469 -2.89407745 63.32441342 -4 72 C-5.98 72.495 -5.98 72.495 -8 73 C-7.42053075 57.73711292 -5.34496778 42.6415224 -3.4375 27.5 C-3.10382495 24.8269462 -2.771579 22.15371543 -2.43945312 19.48046875 C-1.63220108 12.98621668 -0.81590978 6.4931932 0 0 Z " fill="#FFFFFF" transform="translate(1323,535)"/>
<path d="M0 0 C17.16 0 34.32 0 52 0 C52 0.99 52 1.98 52 3 C44.08 3 36.16 3 28 3 C27.76289307 5.04944824 27.52578613 7.09889648 27.28149414 9.21044922 C26.49864272 15.9722595 25.71164896 22.73358295 24.92260075 29.49467278 C24.44420283 33.59501502 23.96721334 37.69551102 23.4934082 41.79638672 C23.03634178 45.75193597 22.57562075 49.70704377 22.1123333 53.66186905 C21.93598905 55.17283018 21.76097535 56.6839472 21.58729744 58.19521713 C21.34432369 60.30749013 21.09667882 62.41916567 20.84790039 64.53076172 C20.70800186 65.73433319 20.56810333 66.93790466 20.42396545 68.177948 C20 71 20 71 19 73 C17.68 72.67 16.36 72.34 15 72 C16.02210653 63.44603491 17.04758983 54.89248343 18.07739925 46.33944225 C18.55546226 42.3680124 19.0323562 38.3964494 19.5065918 34.42456055 C19.96420486 30.59225481 20.42487127 26.76032741 20.8876667 22.92864418 C21.06378786 21.46593628 21.23880408 20.0030949 21.41270256 18.54012108 C21.65625386 16.49277415 21.90371163 14.44593487 22.15209961 12.39916992 C22.29199814 11.23334885 22.43189667 10.06752777 22.57603455 8.86637878 C23 6 23 6 24 3 C16.08 3 8.16 3 0 3 C0 2.01 0 1.02 0 0 Z " fill="#FFFFFF" transform="translate(1437,535)"/>
<path d="M0 0 C17.16 0 34.32 0 52 0 C52 0.99 52 1.98 52 3 C44.08 3 36.16 3 28 3 C27.76289307 5.04944824 27.52578613 7.09889648 27.28149414 9.21044922 C26.49864272 15.9722595 25.71164896 22.73358295 24.92260075 29.49467278 C24.44420283 33.59501502 23.96721334 37.69551102 23.4934082 41.79638672 C23.03634178 45.75193597 22.57562075 49.70704377 22.1123333 53.66186905 C21.93598905 55.17283018 21.76097535 56.6839472 21.58729744 58.19521713 C21.34432369 60.30749013 21.09667882 62.41916567 20.84790039 64.53076172 C20.70800186 65.73433319 20.56810333 66.93790466 20.42396545 68.177948 C20 71 20 71 19 73 C17.68 72.67 16.36 72.34 15 72 C16.02210653 63.44603491 17.04758983 54.89248343 18.07739925 46.33944225 C18.55546226 42.3680124 19.0323562 38.3964494 19.5065918 34.42456055 C19.96420486 30.59225481 20.42487127 26.76032741 20.8876667 22.92864418 C21.06378786 21.46593628 21.23880408 20.0030949 21.41270256 18.54012108 C21.65625386 16.49277415 21.90371163 14.44593487 22.15209961 12.39916992 C22.29199814 11.23334885 22.43189667 10.06752777 22.57603455 8.86637878 C23 6 23 6 24 3 C16.08 3 8.16 3 0 3 C0 2.01 0 1.02 0 0 Z " fill="#FFFFFF" transform="translate(894,535)"/>
<path d="M0 0 C2.875 -0.125 2.875 -0.125 6 0 C6.66 0.66 7.32 1.32 8 2 C7.44444444 6.55555556 7.44444444 6.55555556 6 8 C4.00041636 8.04080783 1.99954746 8.04254356 0 8 C-1.125 2.25 -1.125 2.25 0 0 Z " fill="#FFFFFF" transform="translate(1672,601)"/>
<path d="M0 0 C2.875 -0.125 2.875 -0.125 6 0 C6.66 0.66 7.32 1.32 8 2 C7.44444444 6.55555556 7.44444444 6.55555556 6 8 C4.00041636 8.04080783 1.99954746 8.04254356 0 8 C-1.125 2.25 -1.125 2.25 0 0 Z " fill="#FFFFFF" transform="translate(1089,601)"/>
<path d="M0 0 C0.66 0.33 1.32 0.66 2 1 C-0.97 3.97 -3.94 6.94 -7 10 C-7 7 -7 7 -4.625 4.4375 C-3.75875 3.633125 -2.8925 2.82875 -2 2 C-1.34 1.34 -0.68 0.68 0 0 Z " fill="#E1BE31" transform="translate(1897,300)"/>
</svg>
